<svg
              viewBox="0 0 40 40"
              fill="none"
              xmlns="http://www.w3.org/2000/svg"
            >
              <circle cx="20" cy="20" r="19.5" fill="currentColor" stroke="black" />
              <path
                d="M26.0564 25.8683H26.0576C26.5942 25.8695 27.1156 25.6904 27.5383 25.3598C27.9609 25.0291 28.2602 24.5661 28.3881 24.045L28.3883 24.0442L30.4822 15.5734C30.522 15.4125 30.5246 15.2448 30.4898 15.0828C30.4551 14.9208 30.3839 14.7689 30.2817 14.6385C30.1795 14.5081 30.0489 14.4028 29.8999 14.3304C29.7509 14.258 29.5874 14.2205 29.4217 14.2207L29.421 14.2207L16.441 14.2207V14.3061H29.4232H29.4237C29.5761 14.3062 29.7266 14.341 29.8636 14.4079C30.0007 14.4747 30.1207 14.5719 30.2147 14.6919C30.3087 14.812 30.3741 14.9519 30.4061 15.101C30.4381 15.2501 30.4357 15.4045 30.3992 15.5525L30.3991 15.5528L28.3057 24.0234L26.0564 25.8683ZM26.0564 25.8683H13.9575H13.9575M26.0564 25.8683H13.9575M13.9575 25.8683C13.9477 25.8683 13.9382 25.8649 13.9306 25.8587C13.923 25.8526 13.9177 25.844 13.9157 25.8344L10.8434 11.3044L10.7595 10.9079M13.9575 25.8683L10.7595 10.9079M10.7595 10.9079H10.3542M10.7595 10.9079H10.3542M10.3542 10.9079H5.64453V10.8225L10.7936 10.8225C10.7936 10.8225 10.7936 10.8225 10.7936 10.8225C10.8034 10.8225 10.8129 10.8259 10.8204 10.832C10.828 10.8382 10.8333 10.8468 10.8353 10.8563C10.8353 10.8563 10.8353 10.8563 10.8353 10.8564L13.9082 25.3864L13.9921 25.7829M10.3542 10.9079L13.9921 25.7829M13.9921 25.7829H14.3974M13.9921 25.7829H14.3974M14.3974 25.7829H26.0559M14.3974 25.7829H26.0559M26.0559 25.7829C26.5737 25.7841 27.0769 25.6113 27.4848 25.2924C27.8927 24.9735 28.1817 24.5268 28.3055 24.0239L26.0559 25.7829ZM23.8487 31.3416C24.1382 31.5349 24.4786 31.638 24.8268 31.638L23.8487 31.3416ZM23.8487 31.3416C23.559 31.1481 23.3331 30.8732 23.1997 30.5514M23.8487 31.3416L23.1997 30.5514M23.1997 30.5514C23.0663 30.2296 23.0313 29.8755 23.0992 29.5338M23.1997 30.5514L23.0992 29.5338M23.0992 29.5338C23.167 29.1921 23.3347 28.8782 23.581 28.6319M23.0992 29.5338L23.581 28.6319M23.581 28.6319C23.8273 28.3855 24.1411 28.2177 24.4827 28.1497M23.581 28.6319L24.4827 28.1497M24.4827 28.1497C24.8244 28.0817 25.1785 28.1166 25.5003 28.2499M24.4827 28.1497L25.5003 28.2499M25.5003 28.2499C25.8222 28.3832 26.0972 28.6089 26.2908 28.8986M25.5003 28.2499L26.2908 28.8986M26.2908 28.8986C26.4842 29.1881 26.5874 29.5284 26.5875 29.8766M26.2908 28.8986L26.5875 29.8766M26.5875 29.8766C26.5869 30.3434 26.4013 30.791 26.0712 31.1212C25.7413 31.4513 25.294 31.6371 24.8273 31.638L26.5875 29.8766ZM17.5662 28.2782V28.2012H17.0662C16.7348 28.2012 16.4109 28.2995 16.1353 28.4836C15.8597 28.6677 15.645 28.9294 15.5181 29.2356C15.3913 29.5417 15.3581 29.8786 15.4227 30.2037C15.4873 30.5287 15.6469 30.8273 15.8812 31.0617C16.1155 31.296 16.4141 31.4557 16.7391 31.5204C17.0641 31.5851 17.401 31.5519 17.7072 31.4252C18.0134 31.2984 18.2752 31.0837 18.4593 30.8082C18.6435 30.5326 18.7419 30.2087 18.7419 29.8773V29.8766C18.7414 29.4325 18.5648 29.0067 18.2507 28.6927C18.0576 28.4995 17.8222 28.3584 17.5662 28.2782ZM25.3275 28.2785V28.2017L24.828 28.2012C24.4965 28.2009 24.1724 28.2989 23.8967 28.4828C23.6209 28.6668 23.4059 28.9283 23.2788 29.2345C23.1517 29.5406 23.1183 29.8776 23.1827 30.2027C23.2472 30.5279 23.4066 30.8266 23.6409 31.0611C23.8751 31.2956 24.1737 31.4554 24.4987 31.5203C24.8238 31.5851 25.1608 31.552 25.4671 31.4253C25.7734 31.2986 26.0352 31.0839 26.2195 30.8083C26.4037 30.5328 26.5021 30.2088 26.5022 29.8773V29.8766C26.5016 29.4328 26.3252 29.0072 26.0115 28.6932C25.8185 28.5001 25.5833 28.3588 25.3275 28.2785ZM17.0657 31.638C16.7176 31.6378 16.3773 31.5346 16.0878 31.3412C15.7982 31.1476 15.5725 30.8726 15.4392 30.5508C15.3059 30.229 15.2711 29.8749 15.339 29.5333C15.407 29.1917 15.5748 28.8779 15.8211 28.6316C16.0674 28.3853 16.3812 28.2176 16.7228 28.1497C17.0644 28.0817 17.4185 28.1167 17.7403 28.25C18.0621 28.3833 18.3371 28.609 18.5306 28.8987C18.724 29.1882 18.8272 29.5285 18.8273 29.8766C18.8267 30.3436 18.6409 30.7913 18.3107 31.1215C17.9805 31.4517 17.5327 31.6374 17.0657 31.638Z"
                fill="#2C2C2C"
                stroke="black"
              />
            </svg>