<svg width="30" height="30" viewBox="0 0 30 30" fill="none" xmlns="http://www.w3.org/2000/svg">
<path d="M2.27766 8.7428H6.9123C7.155 8.7428 7.35176 8.5461 7.35176 8.30334C7.35176 8.06059 7.155 7.86389 6.9123 7.86389H2.27766C2.03496 7.86389 1.8382 8.06059 1.8382 8.30334C1.8382 8.5461 2.0349 8.7428 2.27766 8.7428ZM6.7534 10.8584H4.92258C4.67988 10.8584 4.48313 11.0551 4.48313 11.2979C4.48313 11.5406 4.67988 11.7373 4.92258 11.7373H6.7534C6.99609 11.7373 7.19285 11.5406 7.19285 11.2979C7.19285 11.0551 6.99609 10.8584 6.7534 10.8584ZM0.439453 13.9059H4.92258C5.16527 13.9059 5.36203 13.7092 5.36203 13.4664C5.36203 13.2237 5.16527 13.027 4.92258 13.027H0.439453C0.196758 13.027 0 13.2237 0 13.4664C0 13.7092 0.196758 13.9059 0.439453 13.9059ZM7.35176 21.6966C7.35176 21.5801 7.30546 21.4683 7.22304 21.3859C7.14063 21.3035 7.02885 21.2572 6.9123 21.2572H2.27766C2.03496 21.2572 1.8382 21.4539 1.8382 21.6966C1.8382 21.9394 2.03496 22.1361 2.27766 22.1361H6.9123C7.02885 22.1361 7.14063 22.0898 7.22304 22.0074C7.30546 21.925 7.35176 21.8132 7.35176 21.6966ZM6.7534 18.2627H4.92258C4.67988 18.2627 4.48313 18.4594 4.48313 18.7022C4.48313 18.9449 4.67988 19.1416 4.92258 19.1416H6.7534C6.99609 19.1416 7.19285 18.9449 7.19285 18.7022C7.19285 18.4594 6.99609 18.2627 6.7534 18.2627ZM5.36203 16.5336C5.36203 16.417 5.31573 16.3053 5.23332 16.2229C5.15091 16.1404 5.03913 16.0941 4.92258 16.0941H0.439453C0.196758 16.0941 0 16.2908 0 16.5336C0 16.7764 0.196758 16.9731 0.439453 16.9731H4.92258C5.03913 16.9731 5.15091 16.9268 5.23332 16.8443C5.31573 16.7619 5.36203 16.6501 5.36203 16.5336ZM18.7224 9.71663C18.9652 9.71663 19.1619 9.51993 19.1619 9.27717V8.60639C19.1619 8.36364 18.9652 8.16694 18.7224 8.16694C18.4796 8.16694 18.2829 8.36364 18.2829 8.60639V9.27717C18.2829 9.51993 18.4796 9.71663 18.7224 9.71663ZM23.5541 10.1683C23.4717 10.0859 23.3599 10.0396 23.2433 10.0396C23.1268 10.0396 23.015 10.0859 22.9326 10.1683L22.4583 10.6426C22.3759 10.725 22.3296 10.8368 22.3296 10.9533C22.3296 11.0699 22.3759 11.1817 22.4583 11.2641C22.5407 11.3465 22.6525 11.3928 22.769 11.3928C22.8856 11.3928 22.9974 11.3465 23.0798 11.2641L23.5541 10.7898C23.6365 10.7073 23.6828 10.5956 23.6828 10.479C23.6828 10.3625 23.6365 10.2507 23.5541 10.1683ZM24.4453 14.5606C24.2025 14.5606 24.0058 14.7573 24.0058 15C24.0058 15.2428 24.2025 15.4395 24.4453 15.4395H25.116C25.3587 15.4395 25.5554 15.2428 25.5554 15C25.5554 14.7573 25.3587 14.5606 25.116 14.5606H24.4453ZM23.0798 18.7359C23.039 18.6951 22.9905 18.6627 22.9372 18.6406C22.8839 18.6186 22.8267 18.6072 22.769 18.6072C22.7113 18.6072 22.6542 18.6186 22.6009 18.6406C22.5475 18.6627 22.4991 18.6951 22.4583 18.7359C22.4175 18.7767 22.3851 18.8252 22.363 18.8785C22.3409 18.9318 22.3296 18.9889 22.3296 19.0467C22.3296 19.1044 22.3409 19.1615 22.363 19.2148C22.3851 19.2682 22.4175 19.3166 22.4583 19.3574L22.9326 19.8317C23.0154 19.9123 23.1266 19.957 23.2421 19.9562C23.3576 19.9554 23.4682 19.9091 23.5498 19.8275C23.6315 19.7458 23.6778 19.6352 23.6786 19.5197C23.6793 19.4042 23.6346 19.293 23.5541 19.2102L23.0798 18.7359ZM18.2829 20.7229V21.3936C18.2829 21.6364 18.4796 21.8331 18.7224 21.8331C18.9652 21.8331 19.1619 21.6364 19.1619 21.3936V20.7229C19.1619 20.4801 18.9652 20.2834 18.7224 20.2834C18.4796 20.2834 18.2829 20.4802 18.2829 20.7229ZM14.365 18.7359L13.8906 19.2102C13.8088 19.2928 13.763 19.4043 13.7633 19.5206C13.7635 19.6368 13.8098 19.7482 13.892 19.8303C13.9741 19.9125 14.0855 19.9588 14.2017 19.9591C14.318 19.9593 14.4295 19.9135 14.5121 19.8317L14.9864 19.3574C15.0682 19.2749 15.114 19.1633 15.1138 19.0471C15.1135 18.9309 15.0673 18.8195 14.9851 18.7373C14.9029 18.6551 14.7915 18.6088 14.6753 18.6086C14.5591 18.6083 14.4475 18.6541 14.365 18.7359ZM12.3288 14.5606C12.0861 14.5606 11.8893 14.7573 11.8893 15C11.8893 15.2428 12.0861 15.4395 12.3288 15.4395H12.9996C13.2422 15.4395 13.439 15.2428 13.439 15C13.439 14.7573 13.2422 14.5606 12.9996 14.5606H12.3288ZM14.9865 10.6426L14.5121 10.1683C14.4293 10.0881 14.3182 10.0438 14.2029 10.0448C14.0877 10.0458 13.9774 10.092 13.8959 10.1735C13.8144 10.255 13.7682 10.3653 13.7672 10.4806C13.7662 10.5959 13.8106 10.7069 13.8907 10.7898L14.365 11.2641C14.4476 11.3459 14.5591 11.3917 14.6754 11.3914C14.7916 11.3912 14.903 11.3449 14.9851 11.2627C15.0673 11.1805 15.1136 11.0691 15.1138 10.9529C15.1141 10.8367 15.0683 10.7251 14.9865 10.6426ZM21.0855 15C21.0855 14.7573 20.8888 14.5606 20.646 14.5606H19.1619V11.2978C19.1619 11.0551 18.9652 10.8584 18.7224 10.8584C18.4796 10.8584 18.2829 11.0551 18.2829 11.2978V15C18.2829 15.2428 18.4796 15.4395 18.7224 15.4395H20.646C20.7626 15.4395 20.8744 15.3932 20.9568 15.3108C21.0392 15.2284 21.0855 15.1166 21.0855 15Z" fill="currentColor"/>
<path d="M27.0554 14.9274C27.1717 14.9204 27.2805 14.8674 27.3577 14.7802C27.435 14.6929 27.4745 14.5785 27.4674 14.4622C27.1879 9.85071 23.3467 6.23834 18.7226 6.23834C13.8914 6.23834 9.96094 10.1688 9.96094 15C9.96094 19.8312 13.8914 23.7617 18.7226 23.7617C23.0508 23.7617 26.7441 20.5905 27.3865 16.3111C27.3951 16.254 27.3923 16.1958 27.3784 16.1398C27.3645 16.0838 27.3397 16.0311 27.3054 15.9847C27.2711 15.9383 27.228 15.8991 27.1785 15.8693C27.1291 15.8396 27.0742 15.8198 27.0172 15.8113C26.9601 15.8027 26.9019 15.8055 26.8459 15.8194C26.7899 15.8333 26.7372 15.8581 26.6908 15.8924C26.6444 15.9267 26.6052 15.9699 26.5754 16.0193C26.5456 16.0687 26.5259 16.1236 26.5174 16.1806C25.9402 20.0252 22.6205 22.8828 18.7226 22.8828C14.376 22.8828 10.8398 19.3466 10.8398 15.0001C10.8398 10.6536 14.376 7.11731 18.7226 7.11731C22.8828 7.11731 26.3386 10.367 26.5901 14.5155C26.6047 14.7576 26.8129 14.9415 27.0554 14.9274Z" fill="currentColor"/>
<path d="M18.7225 3.72241C17.1767 3.72241 15.6622 4.0431 14.2683 4.6428H6.51465C6.27195 4.6428 6.0752 4.8395 6.0752 5.08226C6.0752 5.32501 6.27195 5.52171 6.51465 5.52171H12.615C11.7832 6.05681 11.0255 6.69913 10.3614 7.4321C10.2838 7.51859 10.2437 7.63228 10.2497 7.7483C10.2557 7.86433 10.3074 7.97324 10.3935 8.05123C10.4797 8.12922 10.5932 8.16994 10.7092 8.16447C10.8253 8.15901 10.9344 8.10781 11.0128 8.02208C12.9817 5.84813 15.7918 4.60132 18.7225 4.60132C24.4563 4.60132 29.1212 9.26614 29.1212 15C29.1212 20.7338 24.4564 25.3987 18.7225 25.3987C12.9886 25.3987 8.32379 20.7339 8.32379 15C8.32379 12.9921 8.89736 11.0433 9.9824 9.36411C10.045 9.26622 10.0662 9.14754 10.0415 9.03403C10.0168 8.92052 9.94816 8.8214 9.85058 8.75836C9.753 8.69532 9.63443 8.67348 9.5208 8.69761C9.40716 8.72175 9.30771 8.7899 9.24418 8.88716C8.06703 10.7087 7.44488 12.8225 7.44488 15C7.44488 18.9707 9.50773 22.4683 12.6178 24.4783H6.51471C6.27201 24.4783 6.07525 24.675 6.07525 24.9178C6.07525 25.1605 6.27201 25.3572 6.51471 25.3572H14.2623C15.631 25.949 17.139 26.2776 18.7225 26.2776C24.941 26.2776 30.0001 21.2185 30.0001 15C30.0001 8.78151 24.941 3.72241 18.7225 3.72241Z" fill="currentColor"/>
</svg>
