<svg width="40" height="40" viewBox="0 0 40 40" fill="none" xmlns="http://www.w3.org/2000/svg">
<path d="M38.4177 8.82574L20.2562 0.0582402C20.1767 0.019908 20.0897 0 20.0014 0C19.9132 0 19.8262 0.019908 19.7467 0.0582402L1.58508 8.82574C1.48585 8.87365 1.40214 8.94858 1.34356 9.04191C1.28498 9.13524 1.25391 9.2432 1.25391 9.3534V30.6463C1.25391 30.7565 1.28498 30.8644 1.34356 30.9578C1.40214 31.0511 1.48585 31.126 1.58508 31.1739L19.7466 39.9416C19.8261 39.9799 19.9132 39.9999 20.0014 39.9999C20.0896 39.9999 20.1767 39.9799 20.2562 39.9416L38.4177 31.1739C38.517 31.126 38.6007 31.0511 38.6593 30.9578C38.7178 30.8644 38.7489 30.7565 38.7489 30.6463V9.35347C38.7489 9.24327 38.7178 9.13531 38.6592 9.04196C38.6007 8.94862 38.517 8.87368 38.4177 8.82574ZM20.0014 1.23652L36.8152 9.35347L31.9412 11.7064C31.9104 11.6823 31.8771 11.6614 31.842 11.6439L15.1424 3.58222L20.0014 1.23652ZM13.8191 4.24472L30.6085 12.3499L27.1698 14.01L10.3874 5.90801L13.8191 4.24472ZM27.7894 15.0121L31.0013 13.4615V19.5979L27.7894 21.1486V15.0121ZM20.5873 38.4805V18.4889L24.6399 16.5325C24.7092 16.499 24.7712 16.4522 24.8225 16.3948C24.8737 16.3374 24.9131 16.2704 24.9384 16.1978C24.9638 16.1251 24.9745 16.0482 24.9701 15.9714C24.9657 15.8945 24.9463 15.8193 24.9128 15.75C24.8794 15.6807 24.8326 15.6187 24.7752 15.5675C24.7177 15.5163 24.6508 15.4769 24.5781 15.4515C24.5055 15.4262 24.4285 15.4154 24.3517 15.4198C24.2749 15.4242 24.1997 15.4437 24.1304 15.4771L20.0014 17.4705L18.3767 16.6861C18.0852 16.5453 17.735 16.6676 17.5943 16.959C17.4536 17.2504 17.5758 17.6007 17.8672 17.7414L19.4155 18.4889V38.4804L2.42578 30.2786V10.2869L15.3633 16.5326C15.4425 16.5711 15.5295 16.591 15.6176 16.5911C15.7504 16.5912 15.8793 16.5463 15.9832 16.4636C16.0871 16.3809 16.1598 16.2654 16.1894 16.136C16.2191 16.0065 16.2039 15.8709 16.1464 15.7512C16.0888 15.6315 15.9923 15.535 15.8727 15.4773L3.18758 9.3534L9.00828 6.5434L26.6094 15.0406C26.612 15.0442 26.6148 15.0474 26.6175 15.0509V22.0821C26.6175 22.1812 26.6427 22.2788 26.6908 22.3656C26.7388 22.4523 26.808 22.5255 26.892 22.5782C26.976 22.631 27.072 22.6615 27.1711 22.667C27.2701 22.6725 27.3689 22.6528 27.4582 22.6097L31.842 20.4934C31.9413 20.4455 32.025 20.3706 32.0836 20.2772C32.1421 20.1839 32.1732 20.0759 32.1732 19.9657V12.8958L37.577 10.2871V30.2787L20.5873 38.4805Z" fill="currentColor"/>
<path d="M7.25985 28.0063L4.59461 26.7197C4.45467 26.6521 4.29362 26.6429 4.14688 26.6941C4.00015 26.7452 3.87976 26.8526 3.81219 26.9926C3.74462 27.1325 3.73541 27.2935 3.78659 27.4403C3.83777 27.587 3.94514 27.7074 4.08508 27.775L6.75032 29.0616C6.82958 29.1001 6.91652 29.12 7.00461 29.1201C7.11489 29.1201 7.22294 29.0891 7.31636 29.0304C7.40977 28.9718 7.48474 28.888 7.53266 28.7887C7.56613 28.7194 7.58562 28.6442 7.59003 28.5674C7.59443 28.4906 7.58366 28.4137 7.55832 28.341C7.53299 28.2683 7.49359 28.2014 7.44238 28.144C7.39116 28.0865 7.32914 28.0398 7.25985 28.0063ZM9.71274 26.4096L4.59828 23.9405C4.45867 23.8755 4.29907 23.8681 4.15402 23.9198C4.00896 23.9715 3.8901 24.0783 3.82315 24.217C3.7562 24.3557 3.74654 24.5152 3.79626 24.6609C3.84598 24.8067 3.95108 24.927 4.08883 24.9959L9.20328 27.465C9.28256 27.5034 9.36949 27.5234 9.45758 27.5234C9.59039 27.5236 9.71933 27.4787 9.82326 27.396C9.9272 27.3133 9.99995 27.1978 10.0296 27.0683C10.0593 26.9389 10.0441 26.8032 9.98649 26.6835C9.92892 26.5638 9.83239 26.4672 9.71274 26.4096Z" fill="currentColor"/>
</svg>
