<svg width="45" height="48" viewBox="0 0 45 48" fill="none" xmlns="http://www.w3.org/2000/svg">
<path fill-rule="evenodd" clip-rule="evenodd" d="M22.4633 46.9221H22.4852H22.4779H22.4633ZM22.3977 46.9221H22.4196H22.405H22.3977ZM22.6966 46.9221H22.682H22.7039H22.6966ZM22.2446 46.9221H22.2665H22.2592H22.2446ZM22.9081 46.9221H22.8935H22.9154H22.9081ZM22.179 46.9221H22.2008H22.1863H22.179ZM21.9602 46.9149H21.9894H21.9821H21.9602ZM23.1268 46.9149H23.1195H23.1487H23.1268ZM23.1997 46.9149H23.1851H23.2143H23.1997ZM21.8946 46.9149H21.9238H21.9092H21.8946ZM23.3382 46.9077H23.3309H23.3601H23.3382ZM21.7415 46.9077H21.7707H21.7634H21.7415ZM21.6759 46.9077H21.705H21.6905H21.6759ZM23.4111 46.9077H23.3966H23.4257H23.4111ZM21.5228 46.9005H21.5592H21.5519H21.5228ZM23.557 46.9005H23.5497H23.5861H23.557ZM21.4572 46.8933H21.4936H21.479H21.4572ZM23.6299 46.8933H23.6153H23.6518H23.6299ZM21.3915 46.8933H21.428H21.4061H21.3915ZM23.6955 46.8933H23.6736H23.7101H23.6955ZM23.8413 46.8861H23.8267H23.8632H23.8413ZM21.2384 46.8861H21.2749H21.2603H21.2384ZM21.1801 46.8789H21.2165H21.1947H21.1801ZM23.9142 46.8789H23.8924H23.9288H23.9142ZM24.0528 46.8717H24.0455H24.0819H24.0528ZM21.027 46.8717H21.0634H21.0561H21.027ZM20.9614 46.8645H20.9978H20.9832H20.9614ZM24.1257 46.8645H24.1111H24.1475H24.1257ZM20.8155 46.8573H20.8447H20.8374H20.8155ZM24.3371 46.8501H24.3225H24.3517H24.3371ZM20.7499 46.8501H20.7791H20.7645H20.7499ZM20.5458 46.8357H20.5604H20.5531H20.5458ZM19.0657 46.6558C8.4062 45.0006 0.240234 35.8825 0.240234 24.9005C0.240234 12.7454 10.2362 2.87891 22.5508 2.87891C34.8654 2.87891 44.8614 12.7454 44.8614 24.9005C44.8614 35.8825 36.6954 45.0006 26.0359 46.6558V31.2695H31.2344L32.226 24.9005H26.0359V20.7696C26.0359 19.0281 26.9036 17.3297 29.6742 17.3297H32.4885V11.9106C32.4885 11.9106 29.9366 11.4788 27.4941 11.4788C22.3977 11.4788 19.0657 14.5302 19.0657 20.05V24.9005H13.4006V31.2695H19.0657V46.6558Z" fill="currentColor"/>
</svg>
