<svg width="47" height="48" viewBox="0 0 47 48" fill="none" xmlns="http://www.w3.org/2000/svg">
<path fill-rule="evenodd" clip-rule="evenodd" d="M24.1016 2.47852C36.4161 2.47852 46.4122 12.3451 46.4122 24.5001C46.4122 36.6552 36.4161 46.5217 24.1016 46.5217C11.787 46.5217 1.79102 36.6552 1.79102 24.5001C1.79102 12.3451 11.787 2.47852 24.1016 2.47852ZM24.1016 10.7402C20.3175 10.7402 19.8363 10.7546 18.349 10.8266C16.8616 10.8913 15.8481 11.1288 14.9659 11.4671C14.0472 11.8197 13.2744 12.2875 12.4943 13.0575C11.7141 13.8275 11.2402 14.5904 10.8829 15.4972C10.5403 16.3751 10.2997 17.3755 10.234 18.8364C10.1684 20.3045 10.1538 20.7723 10.1538 24.5145C10.1538 28.2567 10.1684 28.7245 10.234 30.1926C10.2997 31.6607 10.5403 32.661 10.8829 33.5318C11.2402 34.4386 11.7141 35.2014 12.4943 35.9715C13.2671 36.7343 14.0472 37.2093 14.9659 37.5619C15.8554 37.9002 16.8689 38.1377 18.349 38.2024C19.8363 38.2672 20.3102 38.2888 24.1016 38.2888C27.8929 38.2888 28.3668 38.2744 29.8542 38.2024C31.3416 38.1377 32.355 37.9002 33.2373 37.5619C34.1559 37.2093 34.9288 36.7415 35.7089 35.9715C36.4818 35.2086 36.963 34.4386 37.3202 33.5318C37.6629 32.6539 37.9035 31.6535 37.9691 30.1926C38.0348 28.7245 38.0566 28.2567 38.0566 24.5145C38.0566 20.7723 38.0421 20.3045 37.9691 18.8364C37.9035 17.3683 37.6629 16.3679 37.3202 15.4972C36.963 14.5904 36.4891 13.8275 35.7089 13.0575C34.9361 12.2947 34.1559 11.8197 33.2373 11.4671C32.3477 11.1288 31.3343 10.8913 29.8542 10.8266C28.3668 10.7546 27.8856 10.7402 24.1016 10.7402ZM24.1016 13.2158C27.8273 13.2158 28.2648 13.2302 29.7376 13.295C31.0937 13.3598 31.8374 13.5829 32.3259 13.77C32.9748 14.0219 33.4414 14.3169 33.9299 14.7991C34.4184 15.2813 34.7173 15.7418 34.9725 16.3823C35.1621 16.8645 35.3881 17.5986 35.4537 18.9371C35.5194 20.3908 35.5339 20.8226 35.5339 24.5001C35.5339 28.1776 35.5194 28.6094 35.4537 30.0631C35.3954 31.4016 35.1621 32.1357 34.9725 32.6179C34.7173 33.2584 34.4184 33.7189 33.9299 34.2011C33.4414 34.6833 32.9748 34.9783 32.3259 35.2302C31.8374 35.4173 31.0937 35.6404 29.7376 35.7052C28.2648 35.77 27.8273 35.7844 24.1016 35.7844C20.3759 35.7844 19.9384 35.77 18.4656 35.7052C17.1095 35.6476 16.3658 35.4173 15.8773 35.2302C15.2284 34.9783 14.7618 34.6833 14.2733 34.2011C13.7848 33.7189 13.4858 33.2584 13.2307 32.6179C13.0411 32.1357 12.8151 31.4016 12.7494 30.0631C12.6838 28.6094 12.6692 28.1776 12.6692 24.5001C12.6692 20.8226 12.6838 20.3908 12.7494 18.9371C12.8151 17.5986 13.0411 16.8645 13.2307 16.3823C13.4858 15.7418 13.7848 15.2813 14.2733 14.7991C14.7618 14.3169 15.2284 14.0219 15.8773 13.77C16.3658 13.5829 17.1095 13.3598 18.4656 13.295C19.9384 13.2302 20.3759 13.2158 24.1016 13.2158ZM24.1016 17.433C20.1498 17.433 16.9418 20.5995 16.9418 24.5001C16.9418 28.4007 20.1498 31.5672 24.1016 31.5672C28.0533 31.5672 31.2614 28.4007 31.2614 24.5001C31.2614 20.5995 28.0533 17.433 24.1016 17.433ZM24.1016 29.0843C21.5351 29.0843 19.4572 27.0333 19.4572 24.5001C19.4572 21.9669 21.5351 19.9159 24.1016 19.9159C26.668 19.9159 28.746 21.9669 28.746 24.5001C28.746 27.0333 26.668 29.0843 24.1016 29.0843ZM33.2154 17.1524C33.2154 18.0663 32.4644 18.8004 31.5384 18.8004C30.6125 18.8004 29.8688 18.0591 29.8688 17.1524C29.8688 16.2384 30.6198 15.4972 31.5384 15.4972C32.4717 15.5044 33.2154 16.2384 33.2154 17.1524Z" fill="currentColor"/>
</svg>
