<svg width="48" height="48" viewBox="0 0 48 48" fill="none" xmlns="http://www.w3.org/2000/svg">
<path d="M24.2071 2.47656C11.8852 2.47656 1.89648 12.3359 1.89648 24.4982C1.89648 33.8249 7.78035 41.806 16.0776 45.0085C15.8807 43.2669 15.7057 40.5897 16.1578 38.6826C16.5661 36.9627 18.7752 27.7366 18.7752 27.7366C18.7752 27.7366 18.1045 26.4196 18.1045 24.4694C18.1045 21.4108 19.9053 19.1223 22.1437 19.1223C24.0467 19.1223 24.9653 20.5328 24.9653 22.224C24.9653 24.1167 23.7477 26.9378 23.1207 29.5574C22.5957 31.7523 24.2362 33.5371 26.4235 33.5371C30.3899 33.5371 33.4375 29.4134 33.4375 23.4546C33.4375 18.1795 29.6024 14.4949 24.1196 14.4949C17.7691 14.4949 14.0434 19.1943 14.0434 24.052C14.0434 25.9447 14.7797 27.9741 15.7057 29.0752C15.888 29.2911 15.9171 29.4854 15.8588 29.7085C15.6911 30.4066 15.312 31.8963 15.2391 32.2057C15.1443 32.6087 14.9183 32.6951 14.4954 32.5008C11.7102 31.2198 9.96766 27.1969 9.96766 23.9728C9.96766 17.0281 15.0787 10.6447 24.7101 10.6447C32.4532 10.6447 38.461 16.0853 38.461 23.3611C38.461 30.9535 33.6125 37.0562 26.8829 37.0562C24.6226 37.0562 22.4937 35.8976 21.7719 34.5302C21.7719 34.5302 20.6563 38.733 20.3793 39.7621C19.8762 41.6764 18.5128 44.0729 17.6087 45.5338C19.6866 46.1743 21.9104 46.5197 24.2071 46.5197C36.5289 46.5197 46.5176 36.6604 46.5176 24.4982C46.5176 12.3359 36.5289 2.47656 24.2071 2.47656Z" fill="currentColor"/>
</svg>
