<svg width="40" height="40" viewBox="0 0 40 40" fill="none" xmlns="http://www.w3.org/2000/svg">
<circle cx="20" cy="20" r="19.5" fill="white" stroke="black"/>
<path d="M26.0564 25.8685H26.0576C26.5942 25.8697 27.1156 25.6907 27.5383 25.36C27.9609 25.0294 28.2602 24.5664 28.3881 24.0452L28.3883 24.0445L30.4822 15.5736C30.522 15.4128 30.5246 15.245 30.4898 15.083C30.4551 14.9211 30.3839 14.7691 30.2817 14.6388C30.1795 14.5084 30.0489 14.403 29.8999 14.3306C29.7509 14.2582 29.5874 14.2207 29.4217 14.221L29.421 14.221L16.441 14.221V14.3063H29.4232H29.4237C29.5761 14.3065 29.7266 14.3413 29.8636 14.4081C30.0007 14.475 30.1207 14.5721 30.2147 14.6922C30.3087 14.8123 30.3741 14.9521 30.4061 15.1012C30.4381 15.2503 30.4357 15.4047 30.3992 15.5527L30.3991 15.5531L28.3057 24.0236L26.0564 25.8685ZM26.0564 25.8685H13.9575H13.9575M26.0564 25.8685H13.9575M13.9575 25.8685C13.9477 25.8685 13.9382 25.8651 13.9306 25.859C13.923 25.8528 13.9177 25.8442 13.9157 25.8347L10.8434 11.3047L10.7595 10.9081M13.9575 25.8685L10.7595 10.9081M10.7595 10.9081H10.3542M10.7595 10.9081H10.3542M10.3542 10.9081H5.64453V10.8228L10.7936 10.8228C10.7936 10.8228 10.7936 10.8228 10.7936 10.8228C10.8034 10.8228 10.8129 10.8261 10.8204 10.8323C10.828 10.8384 10.8333 10.847 10.8353 10.8565C10.8353 10.8566 10.8353 10.8566 10.8353 10.8566L13.9082 25.3866L13.9921 25.7832M10.3542 10.9081L13.9921 25.7832M13.9921 25.7832H14.3974M13.9921 25.7832H14.3974M14.3974 25.7832H26.0559M14.3974 25.7832H26.0559M26.0559 25.7832C26.5737 25.7843 27.0769 25.6116 27.4848 25.2927C27.8927 24.9737 28.1817 24.527 28.3055 24.0242L26.0559 25.7832ZM23.8487 31.3418C24.1382 31.5351 24.4786 31.6383 24.8268 31.6382L23.8487 31.3418ZM23.8487 31.3418C23.559 31.1484 23.3331 30.8734 23.1997 30.5516M23.8487 31.3418L23.1997 30.5516M23.1997 30.5516C23.0663 30.2298 23.0313 29.8757 23.0992 29.534M23.1997 30.5516L23.0992 29.534M23.0992 29.534C23.167 29.1924 23.3347 28.8785 23.581 28.6321M23.0992 29.534L23.581 28.6321M23.581 28.6321C23.8273 28.3858 24.1411 28.218 24.4827 28.15M23.581 28.6321L24.4827 28.15M24.4827 28.15C24.8244 28.082 25.1785 28.1168 25.5003 28.2501M24.4827 28.15L25.5003 28.2501M25.5003 28.2501C25.8222 28.3834 26.0972 28.6092 26.2908 28.8988M25.5003 28.2501L26.2908 28.8988M26.2908 28.8988C26.4842 29.1883 26.5874 29.5287 26.5875 29.8768M26.2908 28.8988L26.5875 29.8768M26.5875 29.8768C26.5869 30.3437 26.4013 30.7913 26.0712 31.1215C25.7413 31.4515 25.294 31.6373 24.8273 31.6382L26.5875 29.8768ZM17.5662 28.2784V28.2015H17.0662C16.7348 28.2015 16.4109 28.2997 16.1353 28.4838C15.8597 28.6679 15.645 28.9296 15.5181 29.2358C15.3913 29.542 15.3581 29.8789 15.4227 30.2039C15.4873 30.529 15.6469 30.8275 15.8812 31.0619C16.1155 31.2963 16.4141 31.4559 16.7391 31.5206C17.0641 31.5853 17.401 31.5522 17.7072 31.4254C18.0134 31.2986 18.2752 31.0839 18.4593 30.8084C18.6435 30.5329 18.7419 30.2089 18.7419 29.8775V29.8768C18.7414 29.4327 18.5648 29.007 18.2507 28.6929C18.0576 28.4998 17.8222 28.3586 17.5662 28.2784ZM25.3275 28.2788V28.2019L24.828 28.2015C24.4965 28.2011 24.1724 28.2992 23.8967 28.4831C23.6209 28.667 23.4059 28.9286 23.2788 29.2347C23.1517 29.5409 23.1183 29.8778 23.1827 30.203C23.2472 30.5281 23.4066 30.8268 23.6409 31.0614C23.8751 31.2959 24.1737 31.4557 24.4987 31.5205C24.8238 31.5853 25.1608 31.5523 25.4671 31.4256C25.7734 31.2988 26.0352 31.0841 26.2195 30.8086C26.4037 30.533 26.5021 30.209 26.5022 29.8775V29.8768C26.5016 29.433 26.3252 29.0075 26.0115 28.6935C25.8185 28.5003 25.5833 28.3591 25.3275 28.2788ZM17.0657 31.6382C16.7176 31.6381 16.3773 31.5348 16.0878 31.3414C15.7982 31.1479 15.5725 30.8728 15.4392 30.551C15.3059 30.2292 15.2711 29.8751 15.339 29.5335C15.407 29.1919 15.5748 28.8781 15.8211 28.6318C16.0674 28.3856 16.3812 28.2178 16.7228 28.1499C17.0644 28.082 17.4185 28.1169 17.7403 28.2502C18.0621 28.3835 18.3371 28.6093 18.5306 28.8989C18.724 29.1884 18.8272 29.5287 18.8273 29.8768C18.8267 30.3438 18.6409 30.7916 18.3107 31.1218C17.9805 31.452 17.5327 31.6377 17.0657 31.6382Z" fill="#2C2C2C" stroke="black"/>
</svg>
