<svg width="47" height="47" viewBox="0 0 47 47" fill="none" xmlns="http://www.w3.org/2000/svg">
<path d="M22.3106 2C9.98747 2 0 11.8581 0 24.0216C0 36.1851 9.98747 46.0432 22.3106 46.0432C34.6337 46.0432 44.6211 36.1851 44.6211 24.0216C44.6211 11.8581 34.6337 2 22.3106 2ZM33.6053 21.9915C31.2348 21.9915 28.934 21.2345 27.1562 19.9442L27.1387 28.6754C27.1387 33.0711 23.522 36.6238 19.0773 36.6238C14.6326 36.6238 11.0246 33.0539 11.0246 28.6668C11.0246 24.2711 14.6413 20.7184 19.086 20.7184C19.4433 20.7184 19.8006 20.7442 20.1492 20.7872V25.0711C18.1361 24.4861 16.0183 25.6216 15.4257 27.6087C14.833 29.5958 15.9834 31.6861 17.9966 32.2711C20.0098 32.856 22.1276 31.7205 22.7202 29.7334C22.8248 29.3894 22.8771 29.0281 22.8771 28.6668V11.4022H27.3479C27.3479 14.8087 30.1454 17.5786 33.6053 17.5786V21.9915Z" fill="currentColor"/>
</svg>
