<svg width="30" height="30" viewBox="0 0 30 30" fill="none" xmlns="http://www.w3.org/2000/svg">
<path d="M13.7148 27.9648C6.5658 27.9648 0.75 22.1487 0.75 15C0.75 7.85126 6.5661 2.03516 13.7148 2.03516C20.8638 2.03516 26.6796 7.85126 26.6796 15C26.6796 15.1799 26.6081 15.3525 26.4808 15.4798C26.3536 15.6071 26.181 15.6786 26.001 15.6786C25.821 15.6786 25.6484 15.6071 25.5212 15.4798C25.3939 15.3525 25.3224 15.1799 25.3224 15C25.3224 8.59946 20.1153 3.39236 13.7148 3.39236C7.3143 3.39236 2.1072 8.59946 2.1072 15C2.1072 21.4005 7.314 26.6076 13.7148 26.6076C13.8948 26.6076 14.0674 26.6791 14.1946 26.8063C14.3219 26.9336 14.3934 27.1062 14.3934 27.2862C14.3934 27.4661 14.3219 27.6387 14.1946 27.766C14.0674 27.8933 13.8948 27.9648 13.7148 27.9648Z" fill="currentColor"/>
<path d="M26.0031 15.694C25.8441 15.694 25.6896 15.6379 25.5669 15.535L22.5039 12.9646C22.4334 12.908 22.3749 12.838 22.3319 12.7585C22.2889 12.679 22.2621 12.5918 22.2533 12.5019C22.2444 12.412 22.2536 12.3212 22.2803 12.2348C22.307 12.1485 22.3507 12.0684 22.4087 11.9992C22.4668 11.9299 22.5381 11.873 22.6185 11.8317C22.6989 11.7904 22.7867 11.7656 22.8768 11.7587C22.9669 11.7518 23.0574 11.763 23.1431 11.7915C23.2289 11.8201 23.308 11.8655 23.376 11.9251L25.9194 14.0593L28.0536 11.5162C28.1104 11.4465 28.1805 11.3888 28.2598 11.3465C28.3392 11.3042 28.4261 11.278 28.5156 11.2696C28.6051 11.2612 28.6954 11.2706 28.7812 11.2973C28.867 11.3241 28.9467 11.3676 29.0156 11.4254C29.0844 11.4832 29.1411 11.5541 29.1824 11.634C29.2236 11.7139 29.2485 11.8012 29.2557 11.8908C29.263 11.9804 29.2523 12.0705 29.2244 12.156C29.1964 12.2415 29.1518 12.3205 29.0931 12.3886L26.523 15.4516C26.4593 15.5275 26.3797 15.5885 26.2899 15.6304C26.2001 15.6723 26.1022 15.694 26.0031 15.694Z" fill="currentColor"/>
</svg>
