<svg width="46" height="48" viewBox="0 0 46 48" fill="none" xmlns="http://www.w3.org/2000/svg">
<path fill-rule="evenodd" clip-rule="evenodd" d="M22.6543 2.47852C34.9689 2.47852 44.9649 12.3451 44.9649 24.5001C44.9649 36.6552 34.9689 46.5217 22.6543 46.5217C10.3398 46.5217 0.34375 36.6552 0.34375 24.5001C0.34375 12.3451 10.3398 2.47852 22.6543 2.47852ZM36.0188 17.872C35.698 16.6846 34.7502 15.7562 33.5544 15.4396C31.3817 14.8639 22.6616 14.8639 22.6616 14.8639C22.6616 14.8639 13.9415 14.8639 11.7688 15.4396C10.5658 15.7562 9.62524 16.6918 9.30443 17.872C8.72115 20.0166 8.72115 24.5001 8.72115 24.5001C8.72115 24.5001 8.72115 28.9764 9.30443 31.1282C9.62524 32.3156 10.5731 33.244 11.7688 33.5606C13.9415 34.1364 22.6616 34.1364 22.6616 34.1364C22.6616 34.1364 31.3817 34.1364 33.5544 33.5606C34.7574 33.244 35.698 32.3084 36.0188 31.1282C36.6021 28.9836 36.6021 24.5001 36.6021 24.5001C36.6021 24.5001 36.5948 20.0238 36.0188 17.872ZM19.8619 28.631V20.3693L27.1091 24.5001L19.8619 28.631Z" fill="currentColor"/>
</svg>
