<svg width="30" height="30" viewBox="0 0 30 30" fill="none" xmlns="http://www.w3.org/2000/svg">
<g clip-path="url(#clip0_115_457)">
<path d="M28.9797 1.02042C27.946 -0.0133635 26.219 -0.271854 24.1171 0.292466C22.2545 0.792515 20.3343 1.89936 18.9804 3.25327C17.5422 4.69149 17.0198 6.79521 17.6171 8.7435C17.7881 9.30172 17.6465 9.8852 17.2473 10.2663L2.70987 24.1428C2.52028 24.3238 2.2663 24.4637 1.9334 24.5704C0.751155 24.9494 -0.0255464 26.0353 0.000642409 27.2725C0.0318112 28.7449 1.25501 29.9682 2.72745 29.9995C2.74784 30 2.76799 30.0002 2.78832 30.0002C4.00027 30.0001 5.05708 29.2296 5.42982 28.0668C5.53651 27.7339 5.67636 27.4798 5.85739 27.2902L14.4519 18.2864C14.5324 18.2021 14.5761 18.0893 14.5733 17.9728C14.5706 17.8563 14.5217 17.7456 14.4374 17.6652C14.3531 17.5847 14.2403 17.541 14.1238 17.5437C14.0073 17.5464 13.8966 17.5953 13.8162 17.6796L5.22166 26.6834C4.94682 26.9714 4.74112 27.3362 4.59295 27.7985C4.33364 28.6075 3.59098 29.1395 2.74608 29.1209C1.75512 29.0998 0.900262 28.2449 0.879287 27.2539C0.861418 26.4087 1.39287 25.6665 2.20174 25.4072C2.66405 25.259 3.02876 25.0534 3.31673 24.7785L14.0939 14.4912L15.509 15.9063L15.207 16.2227C15.1265 16.307 15.0828 16.4198 15.0856 16.5363C15.0883 16.6528 15.1372 16.7635 15.2215 16.8439C15.3058 16.9244 15.4186 16.9681 15.5351 16.9654C15.6516 16.9627 15.7623 16.9138 15.8427 16.8295L19.734 12.7529C20.115 12.3537 20.6985 12.2121 21.2567 12.3831C23.205 12.9805 25.3087 12.458 26.7469 11.0198C28.1008 9.66591 29.2077 7.74563 29.7078 5.88311C30.2721 3.78115 30.0135 2.05421 28.9797 1.02042ZM14.7298 13.8842L15.4194 13.226L16.7742 14.5808L16.1159 15.2704L14.7298 13.8842ZM26.1255 10.3984C24.9178 11.6061 23.1509 12.0445 21.5143 11.5429C20.6361 11.2736 19.7103 11.5049 19.0982 12.1461L17.3811 13.9449L16.0552 12.619L17.8541 10.9019C18.4953 10.2898 18.7265 9.364 18.4572 8.48588C17.9555 6.84929 18.394 5.08233 19.6017 3.87466C22.0751 1.4013 26.6017 -0.114838 28.3584 1.64187C30.115 3.39851 28.5989 7.92502 26.1255 10.3984Z" fill="currentColor"/>
</g>
<defs>
<clipPath id="clip0_115_457">
<rect width="30" height="30" fill="white"/>
</clipPath>
</defs>
</svg>
