<svg width="20" height="20" viewBox="0 0 20 20" fill="none" xmlns="http://www.w3.org/2000/svg">
<path fill-rule="evenodd" clip-rule="evenodd" d="M13.125 3.75781C11.6206 3.75781 10.355 4.83656 10.0637 6.25781H1.875C1.70924 6.25781 1.55027 6.32366 1.43306 6.44087C1.31585 6.55808 1.25 6.71705 1.25 6.88281C1.25 7.04857 1.31585 7.20754 1.43306 7.32475C1.55027 7.44196 1.70924 7.50781 1.875 7.50781H10.0637C10.355 8.92969 11.62 10.0078 13.125 10.0078C14.63 10.0078 15.895 8.92969 16.1863 7.50781H18.125C18.2908 7.50781 18.4497 7.44196 18.5669 7.32475C18.6842 7.20754 18.75 7.04857 18.75 6.88281C18.75 6.71705 18.6842 6.55808 18.5669 6.44087C18.4497 6.32366 18.2908 6.25781 18.125 6.25781H16.1863C15.895 4.83656 14.63 3.75781 13.125 3.75781ZM13.125 5.00781C14.1681 5.00781 15 5.83969 15 6.88281C15 7.92594 14.1681 8.75781 13.125 8.75781C12.0819 8.75781 11.25 7.92594 11.25 6.88281C11.25 5.83969 12.0819 5.00781 13.125 5.00781ZM6.875 10.0078C5.37063 10.0078 4.105 11.0866 3.81375 12.5078H1.875C1.70924 12.5078 1.55027 12.5737 1.43306 12.6909C1.31585 12.8081 1.25 12.9671 1.25 13.1328C1.25 13.2986 1.31585 13.4575 1.43306 13.5748C1.55027 13.692 1.70924 13.7578 1.875 13.7578H3.81375C4.105 15.1797 5.37 16.2578 6.875 16.2578C8.38 16.2578 9.645 15.1797 9.93625 13.7578H18.125C18.2908 13.7578 18.4497 13.692 18.5669 13.5748C18.6842 13.4575 18.75 13.2986 18.75 13.1328C18.75 12.9671 18.6842 12.8081 18.5669 12.6909C18.4497 12.5737 18.2908 12.5078 18.125 12.5078H9.93625C9.645 11.0866 8.38 10.0078 6.875 10.0078ZM6.875 11.2578C7.91813 11.2578 8.75 12.0897 8.75 13.1328C8.75 14.1759 7.91813 15.0078 6.875 15.0078C5.83187 15.0078 5 14.1759 5 13.1328C5 12.0897 5.83187 11.2578 6.875 11.2578Z" fill="currentColor"/>
</svg>
