<svg width="47" height="49" viewBox="0 0 47 49" fill="none" xmlns="http://www.w3.org/2000/svg">
<path fill-rule="evenodd" clip-rule="evenodd" d="M22.7578 3.47656C35.0724 3.47656 45.0684 13.3431 45.0684 25.4982C45.0684 37.6532 35.0724 47.5197 22.7578 47.5197C10.4433 47.5197 0.447266 37.6532 0.447266 25.4982C0.447266 13.3431 10.4433 3.47656 22.7578 3.47656ZM18.828 37.2142C28.7 37.2142 34.0954 29.1396 34.0954 22.1445C34.0954 21.9142 34.0954 21.684 34.0808 21.4609C35.1234 20.7124 36.0421 19.7769 36.7639 18.7118C35.8088 19.1292 34.7735 19.417 33.6798 19.5466C34.7953 18.8845 35.6411 17.8554 36.0421 16.6104C35.0068 17.2149 33.8621 17.6539 32.6372 17.8985C31.6602 16.8694 30.2676 16.2289 28.7219 16.2289C25.7617 16.2289 23.3557 18.6038 23.3557 21.5256C23.3557 21.943 23.3995 22.346 23.5015 22.7347C19.0394 22.5116 15.0877 20.403 12.441 17.2005C11.9817 17.9777 11.7192 18.8917 11.7192 19.856C11.7192 21.6912 12.667 23.3176 14.1107 24.2603C13.2285 24.2387 12.4046 23.9941 11.6828 23.5982V23.663C11.6828 26.2322 13.5274 28.3624 15.9918 28.859C15.547 28.9813 15.0658 29.0461 14.5773 29.0461C14.2346 29.0461 13.8992 29.0101 13.5638 28.9453C14.2419 31.0539 16.2251 32.5796 18.5728 32.6228C16.7354 34.0405 14.4242 34.8825 11.9088 34.8825C11.4713 34.8825 11.0484 34.8609 10.6256 34.8034C12.9733 36.329 15.8022 37.2142 18.828 37.2142Z" fill="currentColor"/>
</svg>
