<svg width="40" height="40" viewBox="0 0 40 40" fill="none" xmlns="http://www.w3.org/2000/svg">
<path d="M3.09109 31.9392H2.46469C1.7518 31.9392 1.17188 31.3593 1.17188 30.6464V9.3536C1.17188 8.64071 1.7518 8.06079 2.46469 8.06079H34.404C34.5594 8.06079 34.7084 7.99906 34.8183 7.88917C34.9282 7.77929 34.9899 7.63025 34.9899 7.47485C34.9899 7.31945 34.9282 7.17042 34.8183 7.06053C34.7084 6.95065 34.5594 6.88892 34.404 6.88892H2.46469C1.10563 6.88892 0 7.99454 0 9.3536V30.6465C0 32.0056 1.10563 33.1112 2.46469 33.1112H3.09109C3.24533 33.1094 3.39265 33.0469 3.50109 32.9372C3.60953 32.8275 3.67034 32.6795 3.67034 32.5252C3.67034 32.371 3.60953 32.2229 3.50109 32.1132C3.39265 32.0035 3.24533 31.941 3.09109 31.9392ZM37.5353 6.88892H36.9089C36.7535 6.88892 36.6045 6.95065 36.4946 7.06053C36.3847 7.17042 36.323 7.31945 36.323 7.47485C36.323 7.63025 36.3847 7.77929 36.4946 7.88917C36.6045 7.99906 36.7535 8.06079 36.9089 8.06079H37.5353C38.2482 8.06079 38.8281 8.64071 38.8281 9.3536V30.6465C38.8281 31.3594 38.2482 31.9393 37.5353 31.9393H5.59602C5.44062 31.9393 5.29158 32.001 5.18169 32.1109C5.07181 32.2208 5.01008 32.3698 5.01008 32.5252C5.01008 32.6806 5.07181 32.8297 5.18169 32.9396C5.29158 33.0494 5.44062 33.1112 5.59602 33.1112H37.5353C38.8944 33.1112 40 32.0056 40 30.6465V9.3536C40 7.99454 38.8944 6.88892 37.5353 6.88892Z" fill="currentColor"/>
<path d="M13.1102 22.5453C12.9548 22.5453 12.8057 22.607 12.6958 22.7169C12.586 22.8268 12.5242 22.9758 12.5242 23.1312C12.5242 23.2866 12.586 23.4357 12.6958 23.5455C12.8057 23.6554 12.9548 23.7172 13.1102 23.7172H18.7465C18.9019 23.7172 19.0509 23.6554 19.1608 23.5455C19.2707 23.4357 19.3324 23.2866 19.3324 23.1312C19.3324 22.9758 19.2707 22.8268 19.1608 22.7169C19.0509 22.607 18.9019 22.5453 18.7465 22.5453H13.1102ZM4.96875 22.5453C4.81335 22.5453 4.66431 22.607 4.55443 22.7169C4.44455 22.8268 4.38281 22.9758 4.38281 23.1312C4.38281 23.2866 4.44455 23.4357 4.55443 23.5455C4.66431 23.6554 4.81335 23.7172 4.96875 23.7172H10.6052C10.7606 23.7172 10.9096 23.6554 11.0195 23.5455C11.1294 23.4357 11.1911 23.2866 11.1911 23.1312C11.1911 22.9758 11.1294 22.8268 11.0195 22.7169C10.9096 22.607 10.7606 22.5453 10.6052 22.5453H4.96875ZM19.3324 26.8888C19.3324 26.8118 19.3173 26.7357 19.2878 26.6646C19.2584 26.5935 19.2152 26.5289 19.1608 26.4745C19.1064 26.4201 19.0418 26.3769 18.9707 26.3475C18.8996 26.318 18.8234 26.3029 18.7465 26.3029H4.96875C4.81335 26.3029 4.66431 26.3646 4.55443 26.4745C4.44455 26.5844 4.38281 26.7334 4.38281 26.8888C4.38281 27.0442 4.44455 27.1932 4.55443 27.3031C4.66431 27.413 4.81335 27.4747 4.96875 27.4747H18.7465C18.8234 27.4747 18.8996 27.4596 18.9707 27.4301C19.0418 27.4007 19.1064 27.3575 19.1608 27.3031C19.2152 27.2487 19.2584 27.1841 19.2878 27.113C19.3173 27.0419 19.3324 26.9657 19.3324 26.8888ZM28.807 23.1312C28.807 23.2866 28.8687 23.4357 28.9786 23.5455C29.0885 23.6554 29.2375 23.7172 29.3929 23.7172H35.0293C35.1847 23.7172 35.3337 23.6554 35.4436 23.5455C35.5535 23.4357 35.6152 23.2866 35.6152 23.1312C35.6152 22.9758 35.5535 22.8268 35.4436 22.7169C35.3337 22.607 35.1847 22.5453 35.0293 22.5453H29.3929C29.2375 22.5453 29.0885 22.607 28.9786 22.7169C28.8687 22.8268 28.807 22.9758 28.807 23.1312ZM26.8878 22.5453H21.2515C21.0961 22.5453 20.947 22.607 20.8372 22.7169C20.7273 22.8268 20.6655 22.9758 20.6655 23.1312C20.6655 23.2866 20.7273 23.4357 20.8372 23.5455C20.947 23.6554 21.0961 23.7172 21.2515 23.7172H26.8878C27.0432 23.7172 27.1922 23.6554 27.3021 23.5455C27.412 23.4357 27.4737 23.2866 27.4737 23.1312C27.4737 22.9758 27.412 22.8268 27.3021 22.7169C27.1922 22.607 27.0432 22.5453 26.8878 22.5453ZM26.8878 26.3029H21.2515C21.0961 26.3029 20.947 26.3646 20.8372 26.4745C20.7273 26.5844 20.6655 26.7334 20.6655 26.8888C20.6655 27.0442 20.7273 27.1932 20.8372 27.3031C20.947 27.413 21.0961 27.4747 21.2515 27.4747H26.8878C27.0432 27.4747 27.1922 27.413 27.3021 27.3031C27.412 27.1932 27.4737 27.0442 27.4737 26.8888C27.4737 26.7334 27.412 26.5844 27.3021 26.4745C27.1922 26.3646 27.0432 26.3029 26.8878 26.3029ZM11.191 16.2423C11.191 15.2286 10.3663 14.4039 9.3525 14.4039H6.22125C5.2075 14.4039 4.38281 15.2286 4.38281 16.2423V18.1211C4.38281 19.1348 5.20758 19.9595 6.22125 19.9595H9.35258C10.3663 19.9595 11.1911 19.1348 11.1911 18.1211V16.2423H11.191ZM5.55469 18.1211V16.2424C5.55469 15.8748 5.85375 15.5758 6.22125 15.5758H6.88781V18.7878H6.22125C5.85367 18.7877 5.55469 18.4886 5.55469 18.1211ZM10.0191 18.1211C10.0191 18.4887 9.72008 18.7877 9.3525 18.7877H8.05969V15.5757H9.3525C9.72008 15.5757 10.0191 15.8747 10.0191 16.2423V18.1211ZM29.3868 16.9372C29.4823 17.0005 29.5944 17.0342 29.7091 17.0342C29.8061 17.0343 29.9016 17.0103 29.987 16.9644C30.0725 16.9185 30.1452 16.852 30.1986 16.7711C30.767 15.9102 30.7359 14.7754 30.121 13.9472C30.0755 13.8846 30.0179 13.8317 29.9518 13.7915C29.8857 13.7513 29.8123 13.7245 29.7357 13.7129C29.6592 13.7012 29.5812 13.7048 29.5061 13.7235C29.431 13.7421 29.3603 13.7755 29.2981 13.8216C29.236 13.8678 29.1836 13.9257 29.144 13.9922C29.1044 14.0587 29.0783 14.1324 29.0674 14.209C29.0564 14.2856 29.0607 14.3636 29.08 14.4386C29.0994 14.5135 29.1334 14.5839 29.1801 14.6456C29.5022 15.0796 29.5185 15.6743 29.2206 16.1254C29.135 16.255 29.1044 16.4134 29.1356 16.5657C29.1667 16.7179 29.2571 16.8515 29.3868 16.9372ZM31.3867 18.4182C31.4854 18.4881 31.6033 18.5257 31.7242 18.5256C31.8181 18.5257 31.9106 18.5033 31.994 18.4601C32.0774 18.4169 32.1492 18.3544 32.2033 18.2776C33.4293 16.5418 33.4145 14.2197 32.1663 12.4997C32.0751 12.3739 31.9376 12.2895 31.7841 12.2651C31.6306 12.2407 31.4737 12.2782 31.348 12.3695C31.2222 12.4608 31.1378 12.5982 31.1134 12.7517C31.089 12.9052 31.1266 13.0621 31.2178 13.1879C32.1713 14.5018 32.1826 16.2754 31.246 17.6015C31.1564 17.7285 31.1209 17.8858 31.1473 18.039C31.1737 18.1921 31.2598 18.3285 31.3867 18.4182Z" fill="currentColor"/>
<path d="M34.2264 11.0692C34.1816 11.0067 34.1249 10.9536 34.0595 10.9129C33.9942 10.8723 33.9215 10.8449 33.8456 10.8323C33.7697 10.8198 33.692 10.8223 33.6171 10.8397C33.5422 10.8572 33.4714 10.8892 33.4088 10.934C33.3463 10.9788 33.2932 11.0355 33.2525 11.1009C33.2119 11.1662 33.1845 11.2389 33.1719 11.3148C33.1594 11.3907 33.1619 11.4684 33.1793 11.5433C33.1968 11.6182 33.2288 11.689 33.2736 11.7516C34.8293 13.9242 34.8411 16.8519 33.303 19.037C33.2152 19.1642 33.1811 19.3209 33.2082 19.473C33.2353 19.6251 33.3214 19.7604 33.4478 19.8493C33.5742 19.9383 33.7306 19.9737 33.8829 19.9479C34.0353 19.9221 34.1713 19.8371 34.2613 19.7115C36.0859 17.1195 36.0718 13.6464 34.2264 11.0692Z" fill="currentColor"/>
</svg>
