<svg width="30" height="30" viewBox="0 0 30 30" fill="none" xmlns="http://www.w3.org/2000/svg">
<path d="M28.8744 16.3899L27.6891 14.3373C27.443 13.9108 27.0439 13.6055 26.5652 13.4772C26.0871 13.3489 25.5885 13.4139 25.1619 13.66L24.6715 13.943C24.3943 14.103 24.0387 14.0074 23.8787 13.7309L20.9104 8.58928C20.7504 8.31214 20.8459 7.95647 21.1225 7.79651L21.6129 7.5135C22.4959 7.00374 22.8 5.86995 22.2896 4.98694L21.1043 2.9344C20.5945 2.05139 19.4607 1.74729 18.5777 2.25764C18.4441 2.33499 18.3234 2.40237 18.2127 2.46448C17.6232 2.79553 17.2676 2.99475 16.6893 3.63753C15.9305 4.4801 15.7646 5.98421 16.21 7.98753C16.3307 8.53245 16.4947 9.10432 16.6969 9.69202H3.89355C2.23125 9.69202 0.878906 11.0444 0.878906 12.7067V21.6147C0.878906 23.277 2.23125 24.6293 3.89355 24.6293H5.54883V27.078C5.54883 27.4512 5.7627 27.7729 6.10723 27.917C6.22383 27.9657 6.34512 27.9897 6.46406 27.9897C6.69609 27.9897 6.92109 27.8989 7.09688 27.726L10.241 24.6293H19.6664C21.3287 24.6293 22.6811 23.277 22.6811 21.6147V18.7553C23.683 19.5235 24.6416 19.9196 25.5047 19.9196C25.6939 19.9196 25.8785 19.9008 26.0578 19.8627C26.9033 19.6828 27.2543 19.4748 27.8355 19.1297C27.9451 19.0647 28.0641 18.9944 28.1977 18.917C28.6242 18.6709 28.9295 18.2719 29.0578 17.7932C29.1855 17.3145 29.1205 16.8164 28.8744 16.3899ZM19.6658 23.9268H10.0969C10.0043 23.9268 9.91582 23.9631 9.85019 24.0282L6.60352 27.2256C6.54023 27.2877 6.46055 27.303 6.3791 27.269C6.29766 27.235 6.25254 27.167 6.25254 27.0785V24.2783C6.25254 24.0844 6.09492 23.9268 5.90098 23.9268H3.89355C2.61914 23.9268 1.58203 22.8897 1.58203 21.6153V12.7067C1.58203 11.4323 2.61914 10.3951 3.89355 10.3951H16.9541C17.3736 11.4809 17.9127 12.6035 18.5438 13.6969C19.5809 15.4934 20.7955 17.0701 21.9773 18.1612V21.6153C21.9779 22.8897 20.9408 23.9268 19.6658 23.9268ZM28.3781 17.611C28.2984 17.908 28.1098 18.1553 27.8455 18.3076C27.709 18.3862 27.5877 18.4582 27.4758 18.525C26.9215 18.8537 26.6432 19.019 25.9107 19.1748C23.823 19.619 21.0123 16.5668 19.1525 13.3453C18.0709 11.4715 17.2699 9.51507 16.8967 7.83518C16.5088 6.0885 16.6207 4.76487 17.2125 4.10862C17.7135 3.55198 17.9959 3.39378 18.5578 3.07796C18.6709 3.01467 18.7939 2.94553 18.9305 2.86643C19.1104 2.76272 19.3072 2.71292 19.5018 2.71292C19.8984 2.71292 20.2846 2.91858 20.4967 3.28596L21.682 5.3385C21.9979 5.88635 21.8098 6.58889 21.2625 6.90471L20.7721 7.18772C20.1592 7.54163 19.9488 8.32796 20.3021 8.94085L23.2705 14.0824C23.6244 14.6953 24.4107 14.9057 25.0236 14.5524L25.5141 14.2694C25.7777 14.117 26.0865 14.0772 26.3836 14.1563C26.6807 14.236 26.9279 14.4252 27.0803 14.6889L28.2656 16.7414C28.418 17.0051 28.4578 17.3139 28.3781 17.611ZM7.06875 15.5625C6.1875 15.5625 5.47031 16.2797 5.47031 17.161C5.47031 18.0422 6.1875 18.7594 7.06875 18.7594C7.95 18.7594 8.66719 18.0422 8.66719 17.161C8.66719 16.2797 7.95059 15.5625 7.06875 15.5625ZM7.06875 18.0563C6.57539 18.0563 6.17344 17.6549 6.17344 17.161C6.17344 16.667 6.5748 16.2657 7.06875 16.2657C7.56211 16.2657 7.96406 16.667 7.96406 17.161C7.96406 17.6549 7.5627 18.0563 7.06875 18.0563ZM11.7797 15.5625C10.8984 15.5625 10.1812 16.2797 10.1812 17.161C10.1812 18.0422 10.8984 18.7594 11.7797 18.7594C12.6609 18.7594 13.3781 18.0422 13.3781 17.161C13.3781 16.2797 12.6615 15.5625 11.7797 15.5625ZM11.7797 18.0563C11.2863 18.0563 10.8844 17.6549 10.8844 17.161C10.8844 16.667 11.2857 16.2657 11.7797 16.2657C12.273 16.2657 12.675 16.667 12.675 17.161C12.675 17.6549 12.2736 18.0563 11.7797 18.0563ZM16.4906 15.5625C15.6094 15.5625 14.8922 16.2797 14.8922 17.161C14.8922 18.0422 15.6094 18.7594 16.4906 18.7594C17.3719 18.7594 18.0891 18.0422 18.0891 17.161C18.0891 16.2797 17.3725 15.5625 16.4906 15.5625ZM16.4906 18.0563C15.9973 18.0563 15.5953 17.6549 15.5953 17.161C15.5953 16.667 15.9967 16.2657 16.4906 16.2657C16.984 16.2657 17.3859 16.667 17.3859 17.161C17.3859 17.6549 16.9846 18.0563 16.4906 18.0563Z" fill="currentColor"/>
</svg>
