<svg width="118" height="132" viewBox="0 0 118 132" fill="none" xmlns="http://www.w3.org/2000/svg">
<path d="M73.2563 88.0344C74.0103 88.2298 74.7862 88.3286 75.5651 88.3286C80.6252 88.3286 84.7419 84.2119 84.7419 79.1518C84.7419 74.0917 80.6252 69.9751 75.5651 69.9751C74.5491 69.9751 73.6689 70.1863 72.9453 70.6C72.9324 70.6067 72.9195 70.6136 72.9068 70.6208C72.9005 70.6246 72.8936 70.6276 72.8873 70.6315C72.8794 70.6363 72.8722 70.6418 72.8644 70.6468C72.8161 70.6767 72.7702 70.7105 72.7273 70.7478C72.7002 70.7708 72.6744 70.7954 72.65 70.8213C72.6103 70.8623 72.5739 70.9065 72.5413 70.9534C72.5318 70.9667 72.523 70.9805 72.5142 70.9943C72.4937 71.0258 72.4751 71.0585 72.4585 71.0922C72.4416 71.1253 72.4265 71.1593 72.4133 71.194C72.4001 71.2277 72.3887 71.2622 72.3791 71.2971C72.3644 71.3489 72.3537 71.4017 72.3471 71.4552C72.3423 71.4939 72.3393 71.5329 72.3383 71.5719C72.3381 71.5809 72.3369 71.5896 72.3369 71.5986V85.7598C72.3369 86.1214 72.3245 86.4869 72.2996 86.846C72.2587 87.4358 72.681 87.9496 73.2563 88.0344ZM82.493 79.1518C82.493 82.9719 79.3852 86.0797 75.5651 86.0797C75.2345 86.0797 74.9059 86.0544 74.5812 86.0083C74.5824 85.9254 74.5855 85.8422 74.5855 85.7596V72.3424C74.8728 72.2652 75.2022 72.2241 75.5651 72.2241C79.3852 72.224 82.493 75.3319 82.493 79.1518Z" fill="white"/>
<path d="M85.4418 96.6111H70.8927C71.6762 95.5967 72.3468 94.4999 72.8925 93.3401C73.7735 93.5049 74.6678 93.5878 75.564 93.5878C83.5241 93.5878 90 87.1118 90 79.1518C90 71.1919 83.524 64.7159 75.564 64.7159C75.236 64.7159 74.9071 64.7276 74.5795 64.7497C74.4775 62.268 72.4276 60.2803 69.9213 60.2803H49.2346C48.9363 60.2803 48.6503 60.3988 48.4395 60.6097C48.2286 60.8205 48.1101 61.1066 48.1101 61.4048C48.1101 61.703 48.2286 61.989 48.4395 62.1999C48.6503 62.4107 48.9363 62.5292 49.2346 62.5292H69.9215C71.2527 62.5292 72.3357 63.6123 72.3357 64.9433V66.0063C72.3358 66.1838 72.3779 66.3588 72.4586 66.517C72.5393 66.6751 72.6563 66.8119 72.8 66.9162C72.9438 67.0204 73.1102 67.0891 73.2856 67.1167C73.461 67.1442 73.6404 67.1299 73.8092 67.0748C73.8645 67.0758 73.9203 67.0743 73.9768 67.067C74.5032 66.9988 75.0334 66.9646 75.5642 66.9646C82.2843 66.9646 87.7513 72.4317 87.7513 79.1517C87.7513 85.8716 82.2841 91.3387 75.5642 91.3387C74.5357 91.3394 73.5112 91.2102 72.515 90.9543C72.5036 90.9513 72.4922 90.9498 72.4808 90.9473C72.4605 90.9425 72.44 90.9383 72.4194 90.9347C72.4027 90.9318 72.3861 90.9299 72.3693 90.9278C72.3492 90.9254 72.3291 90.923 72.309 90.9216C72.2912 90.9205 72.2733 90.9202 72.2557 90.9197C72.2371 90.9194 72.2186 90.9191 72.2002 90.9197C72.128 90.9224 72.0563 90.9316 71.9858 90.9471C71.9506 90.9554 71.9157 90.9651 71.8813 90.9764C71.8469 90.988 71.813 91.0011 71.7796 91.0157C71.7627 91.0231 71.7461 91.0312 71.7296 91.0396C71.6811 91.0638 71.6345 91.0915 71.5901 91.1225C71.5762 91.1324 71.5625 91.1425 71.5491 91.153C71.5339 91.1645 71.5191 91.1764 71.5045 91.1887C71.4913 91.1999 71.4786 91.2118 71.4659 91.2236C71.4385 91.2489 71.4127 91.2757 71.3885 91.304C71.3633 91.3322 71.3398 91.362 71.3182 91.3932C71.3092 91.4058 71.3002 91.4184 71.2918 91.4314C71.2794 91.4506 71.2678 91.4705 71.2564 91.4905C71.2495 91.5026 71.2426 91.5146 71.2362 91.527C71.2251 91.5483 71.2152 91.5704 71.2056 91.5926C71.2017 91.6013 71.1972 91.6095 71.1936 91.6184C70.4326 93.486 69.3308 95.1636 67.918 96.6102H50.7825C50.4843 96.6102 50.1983 96.7287 49.9874 96.9396C49.7766 97.1505 49.6581 97.4365 49.6581 97.7347C49.6581 98.0329 49.7766 98.3189 49.9874 98.5298C50.1983 98.7407 50.4843 98.8591 50.7825 98.8591H85.442C85.6428 98.8594 85.8354 98.9392 85.9774 99.0813C86.1194 99.2233 86.1993 99.4158 86.1996 99.6167V99.7693C86.1996 102.621 83.8796 104.941 81.0282 104.941H26.4204C23.5688 104.941 21.249 102.621 21.249 99.7693V99.6167C21.2492 99.4158 21.3291 99.2232 21.4711 99.0812C21.6132 98.9392 21.8057 98.8593 22.0066 98.8591H46.2848C46.583 98.8591 46.869 98.7407 47.0799 98.5298C47.2908 98.3189 47.4092 98.0329 47.4092 97.7347C47.4092 97.4365 47.2908 97.1505 47.0799 96.9396C46.869 96.7287 46.583 96.6102 46.2848 96.6102H39.6629C39.6338 96.5697 39.602 96.5312 39.5679 96.4948C36.7916 93.5906 35.2628 89.7779 35.2628 85.7587V64.9434C35.2628 63.6123 36.3458 62.5294 37.677 62.5294H44.7368C45.035 62.5294 45.321 62.4109 45.5319 62.2C45.7428 61.9891 45.8613 61.7031 45.8613 61.4049C45.8613 61.1067 45.7428 60.8207 45.5319 60.6098C45.321 60.399 45.035 60.2805 44.7368 60.2805H37.677C35.1058 60.2805 33.0139 62.3724 33.0139 64.9434V85.7597C33.0139 89.7238 34.3144 93.5119 36.7067 96.6111H22.0064C20.3487 96.6111 19 97.9599 19 99.6176V99.7702C19 103.862 22.3288 107.191 26.4202 107.191H38.5455L38.4259 107.541C37.9902 108.817 38.1902 110.178 38.9745 111.274C39.7587 112.371 40.982 113 42.3302 113H65.1182C66.4665 113 67.6895 112.371 68.474 111.274C69.2582 110.178 69.4582 108.817 69.0225 107.541L68.9027 107.19H81.028C85.1195 107.19 88.4483 103.862 88.4483 99.7701V99.6174C88.4483 97.9597 87.0997 96.6111 85.4418 96.6111ZM66.8943 108.268C67.0925 108.848 67.0015 109.467 66.6447 109.966C66.2879 110.465 65.7315 110.751 65.1182 110.751H42.3302C41.7169 110.751 41.1605 110.465 40.8037 109.966C40.4469 109.467 40.3559 108.848 40.5541 108.268L40.922 107.191H66.5264L66.8943 108.268Z" fill="white"/>
<path d="M49.5639 86.1101C50.3212 86.6617 51.2222 86.9404 52.202 86.9404C52.8727 86.9404 53.5805 86.8098 54.3044 86.5465C55.931 85.9552 57.4726 84.7426 58.6453 83.1324C59.818 81.5222 60.499 79.6828 60.5627 77.9533C60.6324 76.0593 59.9684 74.5046 58.6925 73.5755C57.4168 72.6464 55.733 72.4914 53.952 73.1389C52.3254 73.7304 50.7838 74.9428 49.6111 76.5531C47.0516 80.0675 47.0309 84.2654 49.5639 86.1101ZM58.3153 77.8705C58.2679 79.1576 57.7394 80.5563 56.8274 81.8086C55.9155 83.0609 54.7465 83.993 53.536 84.433C53.2152 84.5497 52.7436 84.6803 52.2412 84.6866C52.4903 83.7134 53.0534 82.2022 54.2921 80.9957C54.8246 80.477 55.3189 80.0762 55.7969 79.6887C56.6507 78.9965 57.4718 78.3306 58.2882 77.1794C58.3187 77.438 58.3223 77.678 58.3153 77.8705ZM51.429 77.877C52.3409 76.6247 53.5099 75.6926 54.7206 75.2524C55.0495 75.1328 55.5363 74.9972 56.0529 74.9972C56.3399 74.9972 56.6358 75.0401 56.9192 75.1497C56.1259 76.5238 55.3687 77.1407 54.3807 77.9417C53.8877 78.3416 53.329 78.7945 52.7231 79.3848C51.3582 80.7142 50.6285 82.2857 50.2407 83.5035C49.5724 82.135 50.0044 79.833 51.429 77.877Z" fill="white"/>
<path d="M41.7051 80.3404C41.7051 87.1914 47.2787 92.765 54.1296 92.765C60.9806 92.765 66.5542 87.1914 66.5542 80.3404C66.5542 73.4896 60.9806 67.9158 54.1296 67.9158C47.2787 67.9158 41.7051 73.4896 41.7051 80.3404ZM54.1295 70.1647C59.7403 70.1647 64.3052 74.7295 64.3052 80.3404C64.3052 85.9513 59.7404 90.5161 54.1295 90.5161C48.5186 90.5161 43.9538 85.9513 43.9538 80.3404C43.9539 74.7296 48.5187 70.1647 54.1295 70.1647ZM47.3121 57.0126C47.3121 57.3108 47.4306 57.5968 47.6415 57.8077C47.8523 58.0185 48.1383 58.137 48.4365 58.137C48.7348 58.137 49.0208 58.0185 49.2316 57.8077C49.4425 57.5968 49.561 57.3108 49.561 57.0126C49.561 55.7799 49.9703 55.2316 50.5368 54.4728C51.1709 53.624 51.9598 52.5675 51.9598 50.5877C51.9598 48.6079 51.1709 47.5514 50.5368 46.7025C49.9703 45.9438 49.561 45.3957 49.561 44.1628C49.561 42.9304 49.9703 42.3823 50.5368 41.6237C51.1709 40.7748 51.9598 39.7185 51.9598 37.739C51.9598 37.4408 51.8413 37.1548 51.6304 36.9439C51.4196 36.733 51.1336 36.6146 50.8353 36.6146C50.5371 36.6146 50.2511 36.733 50.0402 36.9439C49.8294 37.1548 49.7109 37.4408 49.7109 37.739C49.7109 38.9714 49.3016 39.5195 48.735 40.2781C48.1012 41.127 47.3121 42.1834 47.3121 44.163C47.3121 46.1427 48.101 47.1992 48.735 48.0481C49.3016 48.8069 49.7109 49.355 49.7109 50.5878C49.7109 51.8205 49.3016 52.3687 48.735 53.1274C48.1012 53.9763 47.3121 55.0328 47.3121 57.0126ZM55.4907 57.0126C55.4907 57.3108 55.6091 57.5968 55.82 57.8077C56.0309 58.0185 56.3169 58.137 56.6151 58.137C56.9133 58.137 57.1993 58.0185 57.4102 57.8077C57.6211 57.5968 57.7395 57.3108 57.7395 57.0126C57.7395 55.7799 58.1488 55.2316 58.7154 54.4728C59.3493 53.624 60.1383 52.5675 60.1383 50.5877C60.1383 48.6079 59.3494 47.5514 58.7154 46.7025C58.1488 45.9438 57.7395 45.3957 57.7395 44.1628C57.7395 42.9304 58.1488 42.3823 58.7154 41.6237C59.3493 40.7748 60.1383 39.7185 60.1383 37.739C60.1383 37.4408 60.0199 37.1548 59.809 36.9439C59.5981 36.733 59.3121 36.6146 59.0139 36.6146C58.7157 36.6146 58.4297 36.733 58.2188 36.9439C58.0079 37.1548 57.8895 37.4408 57.8895 37.739C57.8895 38.9714 57.4802 39.5195 56.9136 40.2781C56.2797 41.127 55.4907 42.1834 55.4907 44.163C55.4907 46.1427 56.2796 47.1992 56.9136 48.0481C57.4802 48.8069 57.8895 49.355 57.8895 50.5878C57.8895 51.8205 57.4802 52.3687 56.9136 53.1274C56.2796 53.9763 55.4907 55.0328 55.4907 57.0126Z" fill="white"/>
</svg>
