<svg width="118" height="132" viewBox="0 0 118 132" fill="none" xmlns="http://www.w3.org/2000/svg">
<path fill-rule="evenodd" clip-rule="evenodd" d="M35.2421 103.148C35.0682 103.149 34.8961 103.113 34.7369 103.042C34.5778 102.972 34.435 102.87 34.3179 102.741C34.2008 102.612 34.1118 102.461 34.0568 102.296C34.0017 102.131 33.9818 101.956 33.9983 101.783L34.873 92.3191H28.4138C25.918 92.3162 23.5253 91.3234 21.7605 89.5586C19.9957 87.7938 19.0029 85.4011 19 82.9053V58.412C19.0034 55.9165 19.9964 53.5242 21.7611 51.7598C23.5259 49.9954 25.9183 49.0029 28.4138 49H58.737C61.2325 49.0029 63.625 49.9954 65.3897 51.7598C67.1545 53.5242 68.1474 55.9165 68.1508 58.412V82.9053C68.1474 85.4004 67.1547 87.7924 65.3904 89.5568C63.626 91.3211 61.234 92.3138 58.7389 92.3173H45.6285L36.1686 102.739C36.0513 102.868 35.9083 102.971 35.7487 103.042C35.5892 103.112 35.4166 103.149 35.2421 103.148ZM28.4138 51.4988C26.5809 51.5007 24.8237 52.2297 23.5276 53.5258C22.2316 54.8218 21.5026 56.5791 21.5006 58.412V82.9053C21.5026 84.7379 22.2313 86.4948 23.527 87.7908C24.8226 89.0868 26.5794 89.816 28.412 89.8185H36.2424C36.4164 89.8182 36.5886 89.8543 36.7478 89.9245C36.9071 89.9947 37.0499 90.0973 37.1672 90.2259C37.2845 90.3545 37.3736 90.5061 37.4288 90.6711C37.4841 90.8361 37.5043 91.0109 37.4881 91.1841L36.8311 98.2893L44.1466 90.2282C44.2639 90.099 44.4069 89.9958 44.5664 89.9252C44.726 89.8547 44.8986 89.8183 45.073 89.8185H58.7352C60.5684 89.817 62.3261 89.0882 63.6226 87.7921C64.919 86.496 65.6483 84.7385 65.6502 82.9053V58.412C65.6483 56.5788 64.919 54.8212 63.6226 53.5251C62.3261 52.229 60.5684 51.5003 58.7352 51.4988H28.4138Z" fill="white"/>
<path fill-rule="evenodd" clip-rule="evenodd" d="M82.7584 113.079C82.5839 113.079 82.4114 113.043 82.2518 112.972C82.0922 112.902 81.9492 112.798 81.832 112.669L72.372 102.248H59.2635C56.768 102.245 54.3756 101.252 52.6108 99.488C50.8461 97.7236 49.8531 95.3313 49.8497 92.8358V91.0679C49.8497 90.3776 50.4089 89.8185 51.0991 89.8185H58.7394C60.5723 89.8165 62.3296 89.0875 63.6256 87.7915C64.9217 86.4954 65.6506 84.7382 65.6526 82.9053V60.1799C65.6526 59.4879 66.2118 58.9287 66.902 58.9287H89.5867C92.0825 58.9316 94.4753 59.9244 96.2401 61.6892C98.0049 63.454 98.9976 65.8467 99.0005 68.3425V92.8358C99.0005 98.0253 94.7781 102.248 89.5886 102.248H83.1275L84.0023 111.715C84.0184 111.888 83.9983 112.063 83.9432 112.228C83.888 112.393 83.799 112.544 83.682 112.673C83.5649 112.801 83.4223 112.904 83.2632 112.974C83.1042 113.045 82.9323 113.079 82.7584 113.079ZM52.3485 92.3173V92.834C52.3499 94.6675 53.079 96.4255 54.3755 97.722C55.672 99.0185 57.43 99.7476 59.2635 99.749H72.9256C73.2781 99.749 73.614 99.8967 73.8521 100.159L81.1676 108.218L80.5124 101.113C80.4963 100.94 80.5164 100.765 80.5715 100.6C80.6267 100.435 80.7157 100.284 80.8327 100.155C80.9498 100.027 81.0924 99.924 81.2515 99.8538C81.4105 99.7835 81.5824 99.7472 81.7563 99.7472H89.5867C91.4196 99.7457 93.1771 99.0172 94.4734 97.7215C95.7699 96.4258 96.4993 94.6687 96.5017 92.8358V68.3425C96.4998 66.5093 95.7706 64.7518 94.4741 63.4557C93.1777 62.1596 91.4199 61.4308 89.5867 61.4293H68.1514V82.9034C68.1514 88.0948 63.9289 92.3173 58.7375 92.3173H52.3485ZM58.1175 63.1106H37.9574C37.626 63.1106 37.3082 62.979 37.0739 62.7446C36.8396 62.5103 36.708 62.1925 36.708 61.8612C36.708 61.5298 36.8396 61.212 37.0739 60.9777C37.3082 60.7434 37.626 60.6118 37.9574 60.6118H58.1175C58.4488 60.6118 58.7666 60.7434 59.0009 60.9777C59.2352 61.212 59.3669 61.5298 59.3669 61.8612C59.3669 62.1925 59.2352 62.5103 59.0009 62.7446C58.7666 62.979 58.4488 63.1106 58.1175 63.1106ZM32.2807 63.1106H29.0326C28.7012 63.1106 28.3834 62.979 28.1491 62.7446C27.9148 62.5103 27.7832 62.1925 27.7832 61.8612C27.7832 61.5298 27.9148 61.212 28.1491 60.9777C28.3834 60.7434 28.7012 60.6118 29.0326 60.6118H32.277C32.6083 60.6118 32.9261 60.7434 33.1604 60.9777C33.3947 61.212 33.5264 61.5298 33.5264 61.8612C33.5264 62.1925 33.3947 62.5103 33.1604 62.7446C32.9261 62.979 32.6083 63.1106 32.277 63.1106H32.2807ZM58.1175 71.908H54.9894C54.658 71.908 54.3402 71.7764 54.1059 71.5421C53.8716 71.3078 53.74 70.99 53.74 70.6586C53.74 70.3273 53.8716 70.0095 54.1059 69.7752C54.3402 69.5409 54.658 69.4092 54.9894 69.4092H58.1175C58.4488 69.4092 58.7666 69.5409 59.0009 69.7752C59.2352 70.0095 59.3669 70.3273 59.3669 70.6586C59.3669 70.99 59.2352 71.3078 59.0009 71.5421C58.7666 71.7764 58.4488 71.908 58.1175 71.908ZM49.3126 71.908H45.952C45.6207 71.908 45.3029 71.7764 45.0686 71.5421C44.8343 71.3078 44.7026 70.99 44.7026 70.6586C44.7026 70.3273 44.8343 70.0095 45.0686 69.7752C45.3029 69.5409 45.6207 69.4092 45.952 69.4092H49.3108C49.6422 69.4092 49.96 69.5409 50.1943 69.7752C50.4286 70.0095 50.5602 70.3273 50.5602 70.6586C50.5602 70.99 50.4286 71.3078 50.1943 71.5421C49.96 71.7764 49.644 71.908 49.3126 71.908ZM40.2735 71.908H29.0344C28.7031 71.908 28.3853 71.7764 28.151 71.5421C27.9167 71.3078 27.785 70.99 27.785 70.6586C27.785 70.3273 27.9167 70.0095 28.151 69.7752C28.3853 69.5409 28.7031 69.4092 29.0344 69.4092H40.2735C40.6048 69.4092 40.9226 69.5409 41.1569 69.7752C41.3912 70.0095 41.5229 70.3273 41.5229 70.6586C41.5229 70.99 41.3912 71.3078 41.1569 71.5421C40.9226 71.7764 40.6048 71.908 40.2735 71.908Z" fill="white"/>
<path fill-rule="evenodd" clip-rule="evenodd" d="M58.1176 80.7055H50.4699C50.1385 80.7055 49.8207 80.5739 49.5864 80.3396C49.3521 80.1052 49.2205 79.7875 49.2205 79.4561C49.2205 79.1247 49.3521 78.807 49.5864 78.5726C49.8207 78.3383 50.1385 78.2067 50.4699 78.2067H58.1176C58.4489 78.2067 58.7667 78.3383 59.001 78.5726C59.2353 78.807 59.367 79.1247 59.367 79.4561C59.367 79.7875 59.2353 80.1052 59.001 80.3396C58.7667 80.5739 58.4489 80.7055 58.1176 80.7055ZM44.7932 80.7055H40.7368C40.4054 80.7055 40.0876 80.5739 39.8533 80.3396C39.619 80.1052 39.4874 79.7875 39.4874 79.4561C39.4874 79.1247 39.619 78.807 39.8533 78.5726C40.0876 78.3383 40.4054 78.2067 40.7368 78.2067H44.7932C45.1245 78.2067 45.4423 78.3383 45.6766 78.5726C45.9109 78.807 46.0426 79.1247 46.0426 79.4561C46.0426 79.7875 45.9109 80.1052 45.6766 80.3396C45.4423 80.5739 45.1245 80.7055 44.7932 80.7055ZM35.0601 80.7055H29.0345C28.7032 80.7055 28.3854 80.5739 28.1511 80.3396C27.9168 80.1052 27.7852 79.7875 27.7852 79.4561C27.7852 79.1247 27.9168 78.807 28.1511 78.5726C28.3854 78.3383 28.7032 78.2067 29.0345 78.2067H35.0601C35.3914 78.2067 35.7092 78.3383 35.9435 78.5726C36.1778 78.807 36.3095 79.1247 36.3095 79.4561C36.3095 79.7875 36.1778 80.1052 35.9435 80.3396C35.7092 80.5739 35.3914 80.7055 35.0601 80.7055ZM91.3954 73.3014H73.2579C72.9266 73.3014 72.6088 73.1698 72.3745 72.9355C72.1402 72.7012 72.0085 72.3834 72.0085 72.052C72.0085 71.7206 72.1402 71.4029 72.3745 71.1686C72.6088 70.9342 72.9266 70.8026 73.2579 70.8026H91.3954C91.7267 70.8026 92.0445 70.9342 92.2788 71.1686C92.5131 71.4029 92.6448 71.7206 92.6448 72.052C92.6448 72.3834 92.5131 72.7012 92.2788 72.9355C92.0445 73.1698 91.7267 73.3014 91.3954 73.3014ZM91.3954 81.8386H73.2579C72.9266 81.8386 72.6088 81.707 72.3745 81.4727C72.1402 81.2384 72.0085 80.9206 72.0085 80.5892C72.0085 80.2579 72.1402 79.9401 72.3745 79.7058C72.6088 79.4715 72.9266 79.3398 73.2579 79.3398H91.3954C91.5595 79.3398 91.7219 79.3722 91.8735 79.4349C92.0251 79.4977 92.1628 79.5898 92.2788 79.7058C92.3949 79.8218 92.4869 79.9595 92.5497 80.1111C92.6125 80.2627 92.6448 80.4252 92.6448 80.5892C92.6448 80.7533 92.6125 80.9158 92.5497 81.0674C92.4869 81.2189 92.3949 81.3567 92.2788 81.4727C92.1628 81.5887 92.0251 81.6807 91.8735 81.7435C91.7219 81.8063 91.5595 81.8386 91.3954 81.8386ZM91.3954 90.3758H73.2579C72.9266 90.3758 72.6088 90.2442 72.3745 90.0099C72.1402 89.7756 72.0085 89.4578 72.0085 89.1264C72.0085 88.7951 72.1402 88.4773 72.3745 88.243C72.6088 88.0087 72.9266 87.8771 73.2579 87.8771H91.3954C91.7267 87.8771 92.0445 88.0087 92.2788 88.243C92.5131 88.4773 92.6448 88.7951 92.6448 89.1264C92.6448 89.4578 92.5131 89.7756 92.2788 90.0099C92.0445 90.2442 91.7267 90.3758 91.3954 90.3758Z" fill="white"/>
</svg>
