<svg width="118" height="132" viewBox="0 0 118 132" fill="none" xmlns="http://www.w3.org/2000/svg">
<path d="M96.3651 82.5967L94.1829 73.8683C94.7795 73.7416 95.2272 73.2123 95.2272 72.5782V71.1709C95.2272 68.1153 92.7412 65.6296 89.6858 65.6296H79.7466V62.7267C79.7466 61.2231 78.5235 60 77.0199 60H26.3559C24.8524 60 23.6292 61.2231 23.6292 62.7267V86.6514C23.6292 87.0013 23.7682 87.3369 24.0157 87.5844C24.2631 87.8318 24.5987 87.9708 24.9486 87.9708C25.2986 87.9708 25.6342 87.8318 25.8816 87.5844C26.1291 87.3369 26.2681 87.0013 26.2681 86.6514V62.7267C26.2681 62.6782 26.3074 62.6388 26.3559 62.6388H77.0198C77.0683 62.6388 77.1076 62.6782 77.1076 62.7267V86.6517C77.1076 87.0017 77.2466 87.3373 77.4941 87.5847C77.7415 87.8321 78.0771 87.9712 78.4271 87.9712C78.777 87.9712 79.1126 87.8321 79.36 87.5847C79.6075 87.3373 79.7465 87.0017 79.7465 86.6517V85.1561H95.3104L95.3139 85.1564L95.3175 85.1562C97.2327 85.1574 98.8589 86.4146 99.4175 88.1468H95.3149C94.965 88.1468 94.6294 88.2858 94.3819 88.5332C94.1345 88.7807 93.9955 89.1163 93.9955 89.4662V92.2808C93.9955 94.5604 95.8499 96.4148 98.1295 96.4148H99.6248V102.22H96.175C95.0417 98.9478 91.931 96.5906 88.2782 96.5906C84.6254 96.5906 81.5145 98.9477 80.3814 102.22H79.7461V92.2808C79.7461 91.9309 79.6071 91.5953 79.3597 91.3478C79.1123 91.1004 78.7767 90.9614 78.4267 90.9614C78.0768 90.9614 77.7412 91.1004 77.4938 91.3478C77.2463 91.5953 77.1073 91.9309 77.1073 92.2808V102.22H49.7334C48.6001 98.9475 45.4894 96.5904 41.8366 96.5904C38.1838 96.5904 35.073 98.9475 33.9399 102.22H26.3559C26.3326 102.22 26.3103 102.211 26.2938 102.194C26.2773 102.178 26.2681 102.155 26.2681 102.132V99.2293H31.9853C32.3353 99.2293 32.6709 99.0903 32.9183 98.8428C33.1657 98.5954 33.3048 98.2598 33.3048 97.9099C33.3048 97.5599 33.1657 97.2243 32.9183 96.9769C32.6709 96.7294 32.3353 96.5904 31.9853 96.5904H19.3194C18.9695 96.5904 18.6339 96.7294 18.3864 96.9769C18.139 97.2243 18 97.5599 18 97.9099C18 98.2598 18.139 98.5954 18.3864 98.8428C18.6339 99.0903 18.9695 99.2293 19.3194 99.2293H23.6294V102.132C23.6294 103.636 24.8525 104.859 26.3561 104.859H33.483C33.4827 104.888 33.4807 104.917 33.4807 104.947C33.4807 109.554 37.2293 113.302 41.8366 113.302C46.444 113.302 50.1926 109.554 50.1926 104.947C50.1926 104.917 50.1906 104.888 50.1903 104.859H79.9246C79.9242 104.888 79.9222 104.917 79.9222 104.947C79.9222 109.554 83.6708 113.302 88.2782 113.302C92.8856 113.302 96.6341 109.554 96.6341 104.947C96.6341 104.917 96.6322 104.888 96.6318 104.859H100.944C101.294 104.859 101.63 104.72 101.877 104.472C102.125 104.225 102.264 103.889 102.264 103.539V89.4659C102.264 85.9915 99.7002 83.1044 96.3651 82.5967ZM79.7466 73.8974H91.4703L93.6253 82.5174H79.7466V73.8974ZM89.6858 68.2682C91.2863 68.2682 92.5885 69.5704 92.5885 71.1709V71.2588H79.7466V68.2682H89.6858ZM41.8366 110.664C38.6841 110.664 36.1194 108.099 36.1194 104.947C36.1194 101.794 38.6841 99.2294 41.8366 99.2294C44.9891 99.2294 47.5539 101.794 47.5539 104.947C47.5539 108.099 44.9891 110.664 41.8366 110.664ZM88.2785 110.664C85.126 110.664 82.5613 108.099 82.5613 104.947C82.5613 101.794 85.126 99.2294 88.2785 99.2294C91.431 99.2294 93.9958 101.794 93.9958 104.947C93.9958 108.099 91.431 110.664 88.2785 110.664ZM98.1298 93.776C97.3053 93.776 96.6345 93.1052 96.6345 92.2806V90.7853H99.625V93.7758H98.1298V93.776Z" fill="white"/>
<path d="M41.8365 102.22C40.3329 102.22 39.1098 103.443 39.1098 104.947C39.1098 106.45 40.3329 107.673 41.8365 107.673C43.3401 107.673 44.5632 106.45 44.5632 104.947C44.5632 103.443 43.3401 102.22 41.8365 102.22ZM88.2784 102.22C86.7748 102.22 85.5517 103.443 85.5517 104.947C85.5517 106.45 86.7748 107.673 88.2784 107.673C89.782 107.673 91.0051 106.45 91.0051 104.947C91.0051 103.443 89.782 102.22 88.2784 102.22ZM51.7758 97.91C51.7758 98.2599 51.9148 98.5955 52.1623 98.843C52.4097 99.0904 52.7453 99.2294 53.0952 99.2294H72.7977C73.1476 99.2294 73.4832 99.0904 73.7307 98.843C73.9781 98.5955 74.1171 98.2599 74.1171 97.91C74.1171 97.5601 73.9781 97.2245 73.7307 96.977C73.4832 96.7296 73.1476 96.5906 72.7977 96.5906H53.0951C52.7452 96.5906 52.4096 96.7297 52.1622 96.9771C51.9148 97.2245 51.7758 97.5601 51.7758 97.91ZM22.1339 93.6H39.0219C39.3718 93.6 39.7074 93.461 39.9548 93.2136C40.2023 92.9662 40.3413 92.6306 40.3413 92.2806C40.3413 91.9307 40.2023 91.5951 39.9548 91.3477C39.7074 91.1002 39.3718 90.9612 39.0219 90.9612H22.1339C21.7839 90.9612 21.4483 91.1002 21.2009 91.3477C20.9535 91.5951 20.8145 91.9307 20.8145 92.2806C20.8145 92.6306 20.9535 92.9662 21.2009 93.2136C21.4483 93.461 21.7839 93.6 22.1339 93.6ZM62.0136 73.0525L50.2805 84.7854L44.1768 78.6817C44.0543 78.5592 43.9088 78.462 43.7488 78.3957C43.5887 78.3294 43.4171 78.2953 43.2439 78.2953C43.0706 78.2953 42.899 78.3294 42.739 78.3957C42.5789 78.462 42.4335 78.5592 42.311 78.6817C42.1884 78.8042 42.0912 78.9497 42.0249 79.1097C41.9586 79.2698 41.9245 79.4414 41.9245 79.6146C41.9245 79.7879 41.9586 79.9595 42.0249 80.1195C42.0912 80.2796 42.1884 80.425 42.311 80.5475L49.3476 87.5842C49.6052 87.842 49.9429 87.9707 50.2805 87.9707C50.618 87.9707 50.9557 87.842 51.2133 87.5842L63.8792 74.9183C64.0017 74.7958 64.0989 74.6504 64.1652 74.4903C64.2315 74.3303 64.2657 74.1587 64.2657 73.9855C64.2657 73.8122 64.2316 73.6407 64.1653 73.4806C64.099 73.3205 64.0018 73.1751 63.8793 73.0526C63.7568 72.9301 63.6114 72.8329 63.4513 72.7666C63.2912 72.7003 63.1197 72.6661 62.9464 72.6661C62.7732 72.6661 62.6016 72.7002 62.4416 72.7665C62.2815 72.8328 62.1361 72.93 62.0136 73.0525Z" fill="white"/>
</svg>
