<svg aria-hidden="true" xmlns="http://www.w3.org/2000/svg" xmlns:xlink="http://www.w3.org/1999/xlink"><symbol viewBox="0 0 77 15" fill="none" id="icon-arrow" xmlns="http://www.w3.org/2000/svg">
<path d="M76.2071 8.20711C76.5976 7.81658 76.5976 7.18342 76.2071 6.79289L69.8431 0.428932C69.4526 0.0384078 68.8195 0.0384078 68.4289 0.428932C68.0384 0.819457 68.0384 1.45262 68.4289 1.84315L74.0858 7.5L68.4289 13.1569C68.0384 13.5474 68.0384 14.1805 68.4289 14.5711C68.8195 14.9616 69.4526 14.9616 69.8431 14.5711L76.2071 8.20711ZM0.5 8.5H75.5V6.5H0.5V8.5Z" fill="currentColor"/>
</symbol><symbol viewBox="0 0 40 40" fill="none" id="icon-basket" xmlns="http://www.w3.org/2000/svg">
<circle cx="20" cy="20" r="19.5" fill="currentColor" stroke="currentColor"/>
<path d="M26.0564 25.8685H26.0576C26.5942 25.8697 27.1156 25.6907 27.5383 25.36C27.9609 25.0294 28.2602 24.5664 28.3881 24.0452L28.3883 24.0445L30.4822 15.5736C30.522 15.4128 30.5246 15.245 30.4898 15.083C30.4551 14.9211 30.3839 14.7691 30.2817 14.6388C30.1795 14.5084 30.0489 14.403 29.8999 14.3306C29.7509 14.2582 29.5874 14.2207 29.4217 14.221L29.421 14.221L16.441 14.221V14.3063H29.4232H29.4237C29.5761 14.3065 29.7266 14.3413 29.8636 14.4081C30.0007 14.475 30.1207 14.5721 30.2147 14.6922C30.3087 14.8123 30.3741 14.9521 30.4061 15.1012C30.4381 15.2503 30.4357 15.4047 30.3992 15.5527L30.3991 15.5531L28.3057 24.0236L26.0564 25.8685ZM26.0564 25.8685H13.9575H13.9575M26.0564 25.8685H13.9575M13.9575 25.8685C13.9477 25.8685 13.9382 25.8651 13.9306 25.859C13.923 25.8528 13.9177 25.8442 13.9157 25.8347L10.8434 11.3047L10.7595 10.9081M13.9575 25.8685L10.7595 10.9081M10.7595 10.9081H10.3542M10.7595 10.9081H10.3542M10.3542 10.9081H5.64453V10.8228L10.7936 10.8228C10.7936 10.8228 10.7936 10.8228 10.7936 10.8228C10.8034 10.8228 10.8129 10.8261 10.8204 10.8323C10.828 10.8384 10.8333 10.847 10.8353 10.8565C10.8353 10.8566 10.8353 10.8566 10.8353 10.8566L13.9082 25.3866L13.9921 25.7832M10.3542 10.9081L13.9921 25.7832M13.9921 25.7832H14.3974M13.9921 25.7832H14.3974M14.3974 25.7832H26.0559M14.3974 25.7832H26.0559M26.0559 25.7832C26.5737 25.7843 27.0769 25.6116 27.4848 25.2927C27.8927 24.9737 28.1817 24.527 28.3055 24.0242L26.0559 25.7832ZM23.8487 31.3418C24.1382 31.5351 24.4786 31.6383 24.8268 31.6382L23.8487 31.3418ZM23.8487 31.3418C23.559 31.1484 23.3331 30.8734 23.1997 30.5516M23.8487 31.3418L23.1997 30.5516M23.1997 30.5516C23.0663 30.2298 23.0313 29.8757 23.0992 29.534M23.1997 30.5516L23.0992 29.534M23.0992 29.534C23.167 29.1924 23.3347 28.8785 23.581 28.6321M23.0992 29.534L23.581 28.6321M23.581 28.6321C23.8273 28.3858 24.1411 28.218 24.4827 28.15M23.581 28.6321L24.4827 28.15M24.4827 28.15C24.8244 28.082 25.1785 28.1168 25.5003 28.2501M24.4827 28.15L25.5003 28.2501M25.5003 28.2501C25.8222 28.3834 26.0972 28.6092 26.2908 28.8988M25.5003 28.2501L26.2908 28.8988M26.2908 28.8988C26.4842 29.1883 26.5874 29.5287 26.5875 29.8768M26.2908 28.8988L26.5875 29.8768M26.5875 29.8768C26.5869 30.3437 26.4013 30.7913 26.0712 31.1215C25.7413 31.4515 25.294 31.6373 24.8273 31.6382L26.5875 29.8768ZM17.5662 28.2784V28.2015H17.0662C16.7348 28.2015 16.4109 28.2997 16.1353 28.4838C15.8597 28.6679 15.645 28.9296 15.5181 29.2358C15.3913 29.542 15.3581 29.8789 15.4227 30.2039C15.4873 30.529 15.6469 30.8275 15.8812 31.0619C16.1155 31.2963 16.4141 31.4559 16.7391 31.5206C17.0641 31.5853 17.401 31.5522 17.7072 31.4254C18.0134 31.2986 18.2752 31.0839 18.4593 30.8084C18.6435 30.5329 18.7419 30.2089 18.7419 29.8775V29.8768C18.7414 29.4327 18.5648 29.007 18.2507 28.6929C18.0576 28.4998 17.8222 28.3586 17.5662 28.2784ZM25.3275 28.2788V28.2019L24.828 28.2015C24.4965 28.2011 24.1724 28.2992 23.8967 28.4831C23.6209 28.667 23.4059 28.9286 23.2788 29.2347C23.1517 29.5409 23.1183 29.8778 23.1827 30.203C23.2472 30.5281 23.4066 30.8268 23.6409 31.0614C23.8751 31.2959 24.1737 31.4557 24.4987 31.5205C24.8238 31.5853 25.1608 31.5523 25.4671 31.4256C25.7734 31.2988 26.0352 31.0841 26.2195 30.8086C26.4037 30.533 26.5021 30.209 26.5022 29.8775V29.8768C26.5016 29.433 26.3252 29.0075 26.0115 28.6935C25.8185 28.5003 25.5833 28.3591 25.3275 28.2788ZM17.0657 31.6382C16.7176 31.6381 16.3773 31.5348 16.0878 31.3414C15.7982 31.1479 15.5725 30.8728 15.4392 30.551C15.3059 30.2292 15.2711 29.8751 15.339 29.5335C15.407 29.1919 15.5748 28.8781 15.8211 28.6318C16.0674 28.3856 16.3812 28.2178 16.7228 28.1499C17.0644 28.082 17.4185 28.1169 17.7403 28.2502C18.0621 28.3835 18.3371 28.6093 18.5306 28.8989C18.724 29.1884 18.8272 29.5287 18.8273 29.8768C18.8267 30.3438 18.6409 30.7916 18.3107 31.1218C17.9805 31.452 17.5327 31.6377 17.0657 31.6382Z" fill="currentColor" stroke="currentColor"/>
</symbol><symbol viewBox="0 0 40 40" fill="none" id="icon-box" xmlns="http://www.w3.org/2000/svg">
<path d="M38.4177 8.82574L20.2562 0.0582402C20.1767 0.019908 20.0897 0 20.0014 0C19.9132 0 19.8262 0.019908 19.7467 0.0582402L1.58508 8.82574C1.48585 8.87365 1.40214 8.94858 1.34356 9.04191C1.28498 9.13524 1.25391 9.2432 1.25391 9.3534V30.6463C1.25391 30.7565 1.28498 30.8644 1.34356 30.9578C1.40214 31.0511 1.48585 31.126 1.58508 31.1739L19.7466 39.9416C19.8261 39.9799 19.9132 39.9999 20.0014 39.9999C20.0896 39.9999 20.1767 39.9799 20.2562 39.9416L38.4177 31.1739C38.517 31.126 38.6007 31.0511 38.6593 30.9578C38.7178 30.8644 38.7489 30.7565 38.7489 30.6463V9.35347C38.7489 9.24327 38.7178 9.13531 38.6592 9.04196C38.6007 8.94862 38.517 8.87368 38.4177 8.82574ZM20.0014 1.23652L36.8152 9.35347L31.9412 11.7064C31.9104 11.6823 31.8771 11.6614 31.842 11.6439L15.1424 3.58222L20.0014 1.23652ZM13.8191 4.24472L30.6085 12.3499L27.1698 14.01L10.3874 5.90801L13.8191 4.24472ZM27.7894 15.0121L31.0013 13.4615V19.5979L27.7894 21.1486V15.0121ZM20.5873 38.4805V18.4889L24.6399 16.5325C24.7092 16.499 24.7712 16.4522 24.8225 16.3948C24.8737 16.3374 24.9131 16.2704 24.9384 16.1978C24.9638 16.1251 24.9745 16.0482 24.9701 15.9714C24.9657 15.8945 24.9463 15.8193 24.9128 15.75C24.8794 15.6807 24.8326 15.6187 24.7752 15.5675C24.7177 15.5163 24.6508 15.4769 24.5781 15.4515C24.5055 15.4262 24.4285 15.4154 24.3517 15.4198C24.2749 15.4242 24.1997 15.4437 24.1304 15.4771L20.0014 17.4705L18.3767 16.6861C18.0852 16.5453 17.735 16.6676 17.5943 16.959C17.4536 17.2504 17.5758 17.6007 17.8672 17.7414L19.4155 18.4889V38.4804L2.42578 30.2786V10.2869L15.3633 16.5326C15.4425 16.5711 15.5295 16.591 15.6176 16.5911C15.7504 16.5912 15.8793 16.5463 15.9832 16.4636C16.0871 16.3809 16.1598 16.2654 16.1894 16.136C16.2191 16.0065 16.2039 15.8709 16.1464 15.7512C16.0888 15.6315 15.9923 15.535 15.8727 15.4773L3.18758 9.3534L9.00828 6.5434L26.6094 15.0406C26.612 15.0442 26.6148 15.0474 26.6175 15.0509V22.0821C26.6175 22.1812 26.6427 22.2788 26.6908 22.3656C26.7388 22.4523 26.808 22.5255 26.892 22.5782C26.976 22.631 27.072 22.6615 27.1711 22.667C27.2701 22.6725 27.3689 22.6528 27.4582 22.6097L31.842 20.4934C31.9413 20.4455 32.025 20.3706 32.0836 20.2772C32.1421 20.1839 32.1732 20.0759 32.1732 19.9657V12.8958L37.577 10.2871V30.2787L20.5873 38.4805Z" fill="currentColor"/>
<path d="M7.25985 28.0063L4.59461 26.7197C4.45467 26.6521 4.29362 26.6429 4.14688 26.6941C4.00015 26.7452 3.87976 26.8526 3.81219 26.9926C3.74462 27.1325 3.73541 27.2935 3.78659 27.4403C3.83777 27.587 3.94514 27.7074 4.08508 27.775L6.75032 29.0616C6.82958 29.1001 6.91652 29.12 7.00461 29.1201C7.11489 29.1201 7.22294 29.0891 7.31636 29.0304C7.40977 28.9718 7.48474 28.888 7.53266 28.7887C7.56613 28.7194 7.58562 28.6442 7.59003 28.5674C7.59443 28.4906 7.58366 28.4137 7.55832 28.341C7.53299 28.2683 7.49359 28.2014 7.44238 28.144C7.39116 28.0865 7.32914 28.0398 7.25985 28.0063ZM9.71274 26.4096L4.59828 23.9405C4.45867 23.8755 4.29907 23.8681 4.15402 23.9198C4.00896 23.9715 3.8901 24.0783 3.82315 24.217C3.7562 24.3557 3.74654 24.5152 3.79626 24.6609C3.84598 24.8067 3.95108 24.927 4.08883 24.9959L9.20328 27.465C9.28256 27.5034 9.36949 27.5234 9.45758 27.5234C9.59039 27.5236 9.71933 27.4787 9.82326 27.396C9.9272 27.3133 9.99995 27.1978 10.0296 27.0683C10.0593 26.9389 10.0441 26.8032 9.98649 26.6835C9.92892 26.5638 9.83239 26.4672 9.71274 26.4096Z" fill="currentColor"/>
</symbol><symbol viewBox="0 0 30 30" fill="none" id="icon-call" xmlns="http://www.w3.org/2000/svg">
<path d="M28.8744 16.3899L27.6891 14.3373C27.443 13.9108 27.0439 13.6055 26.5652 13.4772C26.0871 13.3489 25.5885 13.4139 25.1619 13.66L24.6715 13.943C24.3943 14.103 24.0387 14.0074 23.8787 13.7309L20.9104 8.58928C20.7504 8.31214 20.8459 7.95647 21.1225 7.79651L21.6129 7.5135C22.4959 7.00374 22.8 5.86995 22.2896 4.98694L21.1043 2.9344C20.5945 2.05139 19.4607 1.74729 18.5777 2.25764C18.4441 2.33499 18.3234 2.40237 18.2127 2.46448C17.6232 2.79553 17.2676 2.99475 16.6893 3.63753C15.9305 4.4801 15.7646 5.98421 16.21 7.98753C16.3307 8.53245 16.4947 9.10432 16.6969 9.69202H3.89355C2.23125 9.69202 0.878906 11.0444 0.878906 12.7067V21.6147C0.878906 23.277 2.23125 24.6293 3.89355 24.6293H5.54883V27.078C5.54883 27.4512 5.7627 27.7729 6.10723 27.917C6.22383 27.9657 6.34512 27.9897 6.46406 27.9897C6.69609 27.9897 6.92109 27.8989 7.09688 27.726L10.241 24.6293H19.6664C21.3287 24.6293 22.6811 23.277 22.6811 21.6147V18.7553C23.683 19.5235 24.6416 19.9196 25.5047 19.9196C25.6939 19.9196 25.8785 19.9008 26.0578 19.8627C26.9033 19.6828 27.2543 19.4748 27.8355 19.1297C27.9451 19.0647 28.0641 18.9944 28.1977 18.917C28.6242 18.6709 28.9295 18.2719 29.0578 17.7932C29.1855 17.3145 29.1205 16.8164 28.8744 16.3899ZM19.6658 23.9268H10.0969C10.0043 23.9268 9.91582 23.9631 9.85019 24.0282L6.60352 27.2256C6.54023 27.2877 6.46055 27.303 6.3791 27.269C6.29766 27.235 6.25254 27.167 6.25254 27.0785V24.2783C6.25254 24.0844 6.09492 23.9268 5.90098 23.9268H3.89355C2.61914 23.9268 1.58203 22.8897 1.58203 21.6153V12.7067C1.58203 11.4323 2.61914 10.3951 3.89355 10.3951H16.9541C17.3736 11.4809 17.9127 12.6035 18.5438 13.6969C19.5809 15.4934 20.7955 17.0701 21.9773 18.1612V21.6153C21.9779 22.8897 20.9408 23.9268 19.6658 23.9268ZM28.3781 17.611C28.2984 17.908 28.1098 18.1553 27.8455 18.3076C27.709 18.3862 27.5877 18.4582 27.4758 18.525C26.9215 18.8537 26.6432 19.019 25.9107 19.1748C23.823 19.619 21.0123 16.5668 19.1525 13.3453C18.0709 11.4715 17.2699 9.51507 16.8967 7.83518C16.5088 6.0885 16.6207 4.76487 17.2125 4.10862C17.7135 3.55198 17.9959 3.39378 18.5578 3.07796C18.6709 3.01467 18.7939 2.94553 18.9305 2.86643C19.1104 2.76272 19.3072 2.71292 19.5018 2.71292C19.8984 2.71292 20.2846 2.91858 20.4967 3.28596L21.682 5.3385C21.9979 5.88635 21.8098 6.58889 21.2625 6.90471L20.7721 7.18772C20.1592 7.54163 19.9488 8.32796 20.3021 8.94085L23.2705 14.0824C23.6244 14.6953 24.4107 14.9057 25.0236 14.5524L25.5141 14.2694C25.7777 14.117 26.0865 14.0772 26.3836 14.1563C26.6807 14.236 26.9279 14.4252 27.0803 14.6889L28.2656 16.7414C28.418 17.0051 28.4578 17.3139 28.3781 17.611ZM7.06875 15.5625C6.1875 15.5625 5.47031 16.2797 5.47031 17.161C5.47031 18.0422 6.1875 18.7594 7.06875 18.7594C7.95 18.7594 8.66719 18.0422 8.66719 17.161C8.66719 16.2797 7.95059 15.5625 7.06875 15.5625ZM7.06875 18.0563C6.57539 18.0563 6.17344 17.6549 6.17344 17.161C6.17344 16.667 6.5748 16.2657 7.06875 16.2657C7.56211 16.2657 7.96406 16.667 7.96406 17.161C7.96406 17.6549 7.5627 18.0563 7.06875 18.0563ZM11.7797 15.5625C10.8984 15.5625 10.1812 16.2797 10.1812 17.161C10.1812 18.0422 10.8984 18.7594 11.7797 18.7594C12.6609 18.7594 13.3781 18.0422 13.3781 17.161C13.3781 16.2797 12.6615 15.5625 11.7797 15.5625ZM11.7797 18.0563C11.2863 18.0563 10.8844 17.6549 10.8844 17.161C10.8844 16.667 11.2857 16.2657 11.7797 16.2657C12.273 16.2657 12.675 16.667 12.675 17.161C12.675 17.6549 12.2736 18.0563 11.7797 18.0563ZM16.4906 15.5625C15.6094 15.5625 14.8922 16.2797 14.8922 17.161C14.8922 18.0422 15.6094 18.7594 16.4906 18.7594C17.3719 18.7594 18.0891 18.0422 18.0891 17.161C18.0891 16.2797 17.3725 15.5625 16.4906 15.5625ZM16.4906 18.0563C15.9973 18.0563 15.5953 17.6549 15.5953 17.161C15.5953 16.667 15.9967 16.2657 16.4906 16.2657C16.984 16.2657 17.3859 16.667 17.3859 17.161C17.3859 17.6549 16.9846 18.0563 16.4906 18.0563Z" fill="currentColor"/>
</symbol><symbol viewBox="0 0 40 40" fill="none" id="icon-card" xmlns="http://www.w3.org/2000/svg">
<path d="M3.09109 31.9392H2.46469C1.7518 31.9392 1.17188 31.3593 1.17188 30.6464V9.3536C1.17188 8.64071 1.7518 8.06079 2.46469 8.06079H34.404C34.5594 8.06079 34.7084 7.99906 34.8183 7.88917C34.9282 7.77929 34.9899 7.63025 34.9899 7.47485C34.9899 7.31945 34.9282 7.17042 34.8183 7.06053C34.7084 6.95065 34.5594 6.88892 34.404 6.88892H2.46469C1.10563 6.88892 0 7.99454 0 9.3536V30.6465C0 32.0056 1.10563 33.1112 2.46469 33.1112H3.09109C3.24533 33.1094 3.39265 33.0469 3.50109 32.9372C3.60953 32.8275 3.67034 32.6795 3.67034 32.5252C3.67034 32.371 3.60953 32.2229 3.50109 32.1132C3.39265 32.0035 3.24533 31.941 3.09109 31.9392ZM37.5353 6.88892H36.9089C36.7535 6.88892 36.6045 6.95065 36.4946 7.06053C36.3847 7.17042 36.323 7.31945 36.323 7.47485C36.323 7.63025 36.3847 7.77929 36.4946 7.88917C36.6045 7.99906 36.7535 8.06079 36.9089 8.06079H37.5353C38.2482 8.06079 38.8281 8.64071 38.8281 9.3536V30.6465C38.8281 31.3594 38.2482 31.9393 37.5353 31.9393H5.59602C5.44062 31.9393 5.29158 32.001 5.18169 32.1109C5.07181 32.2208 5.01008 32.3698 5.01008 32.5252C5.01008 32.6806 5.07181 32.8297 5.18169 32.9396C5.29158 33.0494 5.44062 33.1112 5.59602 33.1112H37.5353C38.8944 33.1112 40 32.0056 40 30.6465V9.3536C40 7.99454 38.8944 6.88892 37.5353 6.88892Z" fill="currentColor"/>
<path d="M13.1102 22.5453C12.9548 22.5453 12.8057 22.607 12.6958 22.7169C12.586 22.8268 12.5242 22.9758 12.5242 23.1312C12.5242 23.2866 12.586 23.4357 12.6958 23.5455C12.8057 23.6554 12.9548 23.7172 13.1102 23.7172H18.7465C18.9019 23.7172 19.0509 23.6554 19.1608 23.5455C19.2707 23.4357 19.3324 23.2866 19.3324 23.1312C19.3324 22.9758 19.2707 22.8268 19.1608 22.7169C19.0509 22.607 18.9019 22.5453 18.7465 22.5453H13.1102ZM4.96875 22.5453C4.81335 22.5453 4.66431 22.607 4.55443 22.7169C4.44455 22.8268 4.38281 22.9758 4.38281 23.1312C4.38281 23.2866 4.44455 23.4357 4.55443 23.5455C4.66431 23.6554 4.81335 23.7172 4.96875 23.7172H10.6052C10.7606 23.7172 10.9096 23.6554 11.0195 23.5455C11.1294 23.4357 11.1911 23.2866 11.1911 23.1312C11.1911 22.9758 11.1294 22.8268 11.0195 22.7169C10.9096 22.607 10.7606 22.5453 10.6052 22.5453H4.96875ZM19.3324 26.8888C19.3324 26.8118 19.3173 26.7357 19.2878 26.6646C19.2584 26.5935 19.2152 26.5289 19.1608 26.4745C19.1064 26.4201 19.0418 26.3769 18.9707 26.3475C18.8996 26.318 18.8234 26.3029 18.7465 26.3029H4.96875C4.81335 26.3029 4.66431 26.3646 4.55443 26.4745C4.44455 26.5844 4.38281 26.7334 4.38281 26.8888C4.38281 27.0442 4.44455 27.1932 4.55443 27.3031C4.66431 27.413 4.81335 27.4747 4.96875 27.4747H18.7465C18.8234 27.4747 18.8996 27.4596 18.9707 27.4301C19.0418 27.4007 19.1064 27.3575 19.1608 27.3031C19.2152 27.2487 19.2584 27.1841 19.2878 27.113C19.3173 27.0419 19.3324 26.9657 19.3324 26.8888ZM28.807 23.1312C28.807 23.2866 28.8687 23.4357 28.9786 23.5455C29.0885 23.6554 29.2375 23.7172 29.3929 23.7172H35.0293C35.1847 23.7172 35.3337 23.6554 35.4436 23.5455C35.5535 23.4357 35.6152 23.2866 35.6152 23.1312C35.6152 22.9758 35.5535 22.8268 35.4436 22.7169C35.3337 22.607 35.1847 22.5453 35.0293 22.5453H29.3929C29.2375 22.5453 29.0885 22.607 28.9786 22.7169C28.8687 22.8268 28.807 22.9758 28.807 23.1312ZM26.8878 22.5453H21.2515C21.0961 22.5453 20.947 22.607 20.8372 22.7169C20.7273 22.8268 20.6655 22.9758 20.6655 23.1312C20.6655 23.2866 20.7273 23.4357 20.8372 23.5455C20.947 23.6554 21.0961 23.7172 21.2515 23.7172H26.8878C27.0432 23.7172 27.1922 23.6554 27.3021 23.5455C27.412 23.4357 27.4737 23.2866 27.4737 23.1312C27.4737 22.9758 27.412 22.8268 27.3021 22.7169C27.1922 22.607 27.0432 22.5453 26.8878 22.5453ZM26.8878 26.3029H21.2515C21.0961 26.3029 20.947 26.3646 20.8372 26.4745C20.7273 26.5844 20.6655 26.7334 20.6655 26.8888C20.6655 27.0442 20.7273 27.1932 20.8372 27.3031C20.947 27.413 21.0961 27.4747 21.2515 27.4747H26.8878C27.0432 27.4747 27.1922 27.413 27.3021 27.3031C27.412 27.1932 27.4737 27.0442 27.4737 26.8888C27.4737 26.7334 27.412 26.5844 27.3021 26.4745C27.1922 26.3646 27.0432 26.3029 26.8878 26.3029ZM11.191 16.2423C11.191 15.2286 10.3663 14.4039 9.3525 14.4039H6.22125C5.2075 14.4039 4.38281 15.2286 4.38281 16.2423V18.1211C4.38281 19.1348 5.20758 19.9595 6.22125 19.9595H9.35258C10.3663 19.9595 11.1911 19.1348 11.1911 18.1211V16.2423H11.191ZM5.55469 18.1211V16.2424C5.55469 15.8748 5.85375 15.5758 6.22125 15.5758H6.88781V18.7878H6.22125C5.85367 18.7877 5.55469 18.4886 5.55469 18.1211ZM10.0191 18.1211C10.0191 18.4887 9.72008 18.7877 9.3525 18.7877H8.05969V15.5757H9.3525C9.72008 15.5757 10.0191 15.8747 10.0191 16.2423V18.1211ZM29.3868 16.9372C29.4823 17.0005 29.5944 17.0342 29.7091 17.0342C29.8061 17.0343 29.9016 17.0103 29.987 16.9644C30.0725 16.9185 30.1452 16.852 30.1986 16.7711C30.767 15.9102 30.7359 14.7754 30.121 13.9472C30.0755 13.8846 30.0179 13.8317 29.9518 13.7915C29.8857 13.7513 29.8123 13.7245 29.7357 13.7129C29.6592 13.7012 29.5812 13.7048 29.5061 13.7235C29.431 13.7421 29.3603 13.7755 29.2981 13.8216C29.236 13.8678 29.1836 13.9257 29.144 13.9922C29.1044 14.0587 29.0783 14.1324 29.0674 14.209C29.0564 14.2856 29.0607 14.3636 29.08 14.4386C29.0994 14.5135 29.1334 14.5839 29.1801 14.6456C29.5022 15.0796 29.5185 15.6743 29.2206 16.1254C29.135 16.255 29.1044 16.4134 29.1356 16.5657C29.1667 16.7179 29.2571 16.8515 29.3868 16.9372ZM31.3867 18.4182C31.4854 18.4881 31.6033 18.5257 31.7242 18.5256C31.8181 18.5257 31.9106 18.5033 31.994 18.4601C32.0774 18.4169 32.1492 18.3544 32.2033 18.2776C33.4293 16.5418 33.4145 14.2197 32.1663 12.4997C32.0751 12.3739 31.9376 12.2895 31.7841 12.2651C31.6306 12.2407 31.4737 12.2782 31.348 12.3695C31.2222 12.4608 31.1378 12.5982 31.1134 12.7517C31.089 12.9052 31.1266 13.0621 31.2178 13.1879C32.1713 14.5018 32.1826 16.2754 31.246 17.6015C31.1564 17.7285 31.1209 17.8858 31.1473 18.039C31.1737 18.1921 31.2598 18.3285 31.3867 18.4182Z" fill="currentColor"/>
<path d="M34.2264 11.0692C34.1816 11.0067 34.1249 10.9536 34.0595 10.9129C33.9942 10.8723 33.9215 10.8449 33.8456 10.8323C33.7697 10.8198 33.692 10.8223 33.6171 10.8397C33.5422 10.8572 33.4714 10.8892 33.4088 10.934C33.3463 10.9788 33.2932 11.0355 33.2525 11.1009C33.2119 11.1662 33.1845 11.2389 33.1719 11.3148C33.1594 11.3907 33.1619 11.4684 33.1793 11.5433C33.1968 11.6182 33.2288 11.689 33.2736 11.7516C34.8293 13.9242 34.8411 16.8519 33.303 19.037C33.2152 19.1642 33.1811 19.3209 33.2082 19.473C33.2353 19.6251 33.3214 19.7604 33.4478 19.8493C33.5742 19.9383 33.7306 19.9737 33.8829 19.9479C34.0353 19.9221 34.1713 19.8371 34.2613 19.7115C36.0859 17.1195 36.0718 13.6464 34.2264 11.0692Z" fill="currentColor"/>
</symbol><symbol class="fsupplies-sales__item-icon" fill="none" viewBox="0 0 25 25" id="icon-check" xmlns="http://www.w3.org/2000/svg">
            <path d="M13 25C19.6274 25 25 19.6274 25 13C25 6.37258 19.6274 1 13 1C6.37258 1 1 6.37258 1 13C1 19.6274 6.37258 25 13 25Z" stroke="currentColor" stroke-width="0.5"/>
            <mask id="fpath-2-inside-1_700_212" fill="currentColor">
              <path d="M18.0253 9.37465C17.8708 9.22017 17.6203 9.22017 17.4658 9.37465L11.0531 15.7874L8.5308 13.2651C8.37633 13.1105 8.12584 13.1105 7.97133 13.2651C7.81685 13.4195 7.81685 13.67 7.97133 13.8245L10.7734 16.6266C10.9278 16.781 11.1784 16.7811 11.3329 16.6266L18.0253 9.93412C18.1798 9.77961 18.1798 9.52914 18.0253 9.37465Z"/>
            </mask>
            <path d="M18.0253 9.37465L16.8939 10.506L16.8939 10.506L18.0253 9.37465ZM17.4658 9.37465L16.3345 8.24321L16.3345 8.24329L17.4658 9.37465ZM11.0531 15.7874L9.92174 16.9188L11.0531 18.0501L12.1845 16.9188L11.0531 15.7874ZM8.5308 13.2651L7.39928 14.3963L7.39943 14.3964L8.5308 13.2651ZM7.97133 13.8245L6.83989 14.9558L6.83996 14.9559L7.97133 13.8245ZM10.7734 16.6266L9.64204 17.758H9.64204L10.7734 16.6266ZM11.3329 16.6266L12.4643 17.758L12.4643 17.758L11.3329 16.6266ZM18.0253 9.93412L19.1567 11.0655L19.1567 11.0654L18.0253 9.93412ZM19.1567 8.24336C18.3773 7.46385 17.1138 7.46406 16.3345 8.24321L18.5971 10.5061C18.1269 10.9763 17.3643 10.9765 16.8939 10.506L19.1567 8.24336ZM16.3345 8.24329L9.92174 14.656L12.1845 16.9188L18.5972 10.506L16.3345 8.24329ZM12.1845 14.656L9.66218 12.1337L7.39943 14.3964L9.92174 16.9188L12.1845 14.656ZM9.66232 12.1338C8.8829 11.3542 7.61923 11.3544 6.83996 12.1337L9.1027 14.3964C8.63245 14.8667 7.86977 14.8669 7.39928 14.3963L9.66232 12.1338ZM6.83996 12.1337C6.0606 12.913 6.0607 14.1765 6.83989 14.9558L9.10278 12.6932C9.57299 13.1635 9.5731 13.926 9.1027 14.3964L6.83996 12.1337ZM6.83996 14.9559L9.64204 17.758L11.9048 15.4952L9.10271 12.6931L6.83996 14.9559ZM9.64204 17.758C10.4212 18.5371 11.6848 18.5374 12.4643 17.758L10.2015 15.4952C10.672 15.0248 11.4345 15.0249 11.9048 15.4952L9.64204 17.758ZM12.4643 17.758L19.1567 11.0655L16.8939 8.80276L10.2015 15.4952L12.4643 17.758ZM19.1567 11.0654C19.9359 10.2861 19.936 9.02265 19.1567 8.24328L16.8939 10.506C16.4235 10.0356 16.4236 9.2731 16.8939 8.80282L19.1567 11.0654Z" fill="currentColor" mask="url(#fpath-2-inside-1_700_212)"/>
          </symbol><symbol viewBox="0 0 50 50" id="icon-close" xmlns="http://www.w3.org/2000/svg"><path d="M 7.71875 6.28125 L 6.28125 7.71875 L 23.5625 25 L 6.28125 42.28125 L 7.71875 43.71875 L 25 26.4375 L 42.28125 43.71875 L 43.71875 42.28125 L 26.4375 25 L 43.71875 7.71875 L 42.28125 6.28125 L 25 23.5625 Z"/></symbol><symbol viewBox="0 0 45 48" fill="none" id="icon-fb" xmlns="http://www.w3.org/2000/svg">
<path fill-rule="evenodd" clip-rule="evenodd" d="M22.4633 46.9221H22.4852H22.4779H22.4633ZM22.3977 46.9221H22.4196H22.405H22.3977ZM22.6966 46.9221H22.682H22.7039H22.6966ZM22.2446 46.9221H22.2665H22.2592H22.2446ZM22.9081 46.9221H22.8935H22.9154H22.9081ZM22.179 46.9221H22.2008H22.1863H22.179ZM21.9602 46.9149H21.9894H21.9821H21.9602ZM23.1268 46.9149H23.1195H23.1487H23.1268ZM23.1997 46.9149H23.1851H23.2143H23.1997ZM21.8946 46.9149H21.9238H21.9092H21.8946ZM23.3382 46.9077H23.3309H23.3601H23.3382ZM21.7415 46.9077H21.7707H21.7634H21.7415ZM21.6759 46.9077H21.705H21.6905H21.6759ZM23.4111 46.9077H23.3966H23.4257H23.4111ZM21.5228 46.9005H21.5592H21.5519H21.5228ZM23.557 46.9005H23.5497H23.5861H23.557ZM21.4572 46.8933H21.4936H21.479H21.4572ZM23.6299 46.8933H23.6153H23.6518H23.6299ZM21.3915 46.8933H21.428H21.4061H21.3915ZM23.6955 46.8933H23.6736H23.7101H23.6955ZM23.8413 46.8861H23.8267H23.8632H23.8413ZM21.2384 46.8861H21.2749H21.2603H21.2384ZM21.1801 46.8789H21.2165H21.1947H21.1801ZM23.9142 46.8789H23.8924H23.9288H23.9142ZM24.0528 46.8717H24.0455H24.0819H24.0528ZM21.027 46.8717H21.0634H21.0561H21.027ZM20.9614 46.8645H20.9978H20.9832H20.9614ZM24.1257 46.8645H24.1111H24.1475H24.1257ZM20.8155 46.8573H20.8447H20.8374H20.8155ZM24.3371 46.8501H24.3225H24.3517H24.3371ZM20.7499 46.8501H20.7791H20.7645H20.7499ZM20.5458 46.8357H20.5604H20.5531H20.5458ZM19.0657 46.6558C8.4062 45.0006 0.240234 35.8825 0.240234 24.9005C0.240234 12.7454 10.2362 2.87891 22.5508 2.87891C34.8654 2.87891 44.8614 12.7454 44.8614 24.9005C44.8614 35.8825 36.6954 45.0006 26.0359 46.6558V31.2695H31.2344L32.226 24.9005H26.0359V20.7696C26.0359 19.0281 26.9036 17.3297 29.6742 17.3297H32.4885V11.9106C32.4885 11.9106 29.9366 11.4788 27.4941 11.4788C22.3977 11.4788 19.0657 14.5302 19.0657 20.05V24.9005H13.4006V31.2695H19.0657V46.6558Z" fill="currentColor"/>
</symbol><symbol viewBox="0 0 20 20" fill="none" id="icon-filter" xmlns="http://www.w3.org/2000/svg">
<path fill-rule="evenodd" clip-rule="evenodd" d="M13.125 3.75781C11.6206 3.75781 10.355 4.83656 10.0637 6.25781H1.875C1.70924 6.25781 1.55027 6.32366 1.43306 6.44087C1.31585 6.55808 1.25 6.71705 1.25 6.88281C1.25 7.04857 1.31585 7.20754 1.43306 7.32475C1.55027 7.44196 1.70924 7.50781 1.875 7.50781H10.0637C10.355 8.92969 11.62 10.0078 13.125 10.0078C14.63 10.0078 15.895 8.92969 16.1863 7.50781H18.125C18.2908 7.50781 18.4497 7.44196 18.5669 7.32475C18.6842 7.20754 18.75 7.04857 18.75 6.88281C18.75 6.71705 18.6842 6.55808 18.5669 6.44087C18.4497 6.32366 18.2908 6.25781 18.125 6.25781H16.1863C15.895 4.83656 14.63 3.75781 13.125 3.75781ZM13.125 5.00781C14.1681 5.00781 15 5.83969 15 6.88281C15 7.92594 14.1681 8.75781 13.125 8.75781C12.0819 8.75781 11.25 7.92594 11.25 6.88281C11.25 5.83969 12.0819 5.00781 13.125 5.00781ZM6.875 10.0078C5.37063 10.0078 4.105 11.0866 3.81375 12.5078H1.875C1.70924 12.5078 1.55027 12.5737 1.43306 12.6909C1.31585 12.8081 1.25 12.9671 1.25 13.1328C1.25 13.2986 1.31585 13.4575 1.43306 13.5748C1.55027 13.692 1.70924 13.7578 1.875 13.7578H3.81375C4.105 15.1797 5.37 16.2578 6.875 16.2578C8.38 16.2578 9.645 15.1797 9.93625 13.7578H18.125C18.2908 13.7578 18.4497 13.692 18.5669 13.5748C18.6842 13.4575 18.75 13.2986 18.75 13.1328C18.75 12.9671 18.6842 12.8081 18.5669 12.6909C18.4497 12.5737 18.2908 12.5078 18.125 12.5078H9.93625C9.645 11.0866 8.38 10.0078 6.875 10.0078ZM6.875 11.2578C7.91813 11.2578 8.75 12.0897 8.75 13.1328C8.75 14.1759 7.91813 15.0078 6.875 15.0078C5.83187 15.0078 5 14.1759 5 13.1328C5 12.0897 5.83187 11.2578 6.875 11.2578Z" fill="currentColor"/>
</symbol><symbol viewBox="0 0 47 48" fill="none" id="icon-inst" xmlns="http://www.w3.org/2000/svg">
<path fill-rule="evenodd" clip-rule="evenodd" d="M24.1016 2.47852C36.4161 2.47852 46.4122 12.3451 46.4122 24.5001C46.4122 36.6552 36.4161 46.5217 24.1016 46.5217C11.787 46.5217 1.79102 36.6552 1.79102 24.5001C1.79102 12.3451 11.787 2.47852 24.1016 2.47852ZM24.1016 10.7402C20.3175 10.7402 19.8363 10.7546 18.349 10.8266C16.8616 10.8913 15.8481 11.1288 14.9659 11.4671C14.0472 11.8197 13.2744 12.2875 12.4943 13.0575C11.7141 13.8275 11.2402 14.5904 10.8829 15.4972C10.5403 16.3751 10.2997 17.3755 10.234 18.8364C10.1684 20.3045 10.1538 20.7723 10.1538 24.5145C10.1538 28.2567 10.1684 28.7245 10.234 30.1926C10.2997 31.6607 10.5403 32.661 10.8829 33.5318C11.2402 34.4386 11.7141 35.2014 12.4943 35.9715C13.2671 36.7343 14.0472 37.2093 14.9659 37.5619C15.8554 37.9002 16.8689 38.1377 18.349 38.2024C19.8363 38.2672 20.3102 38.2888 24.1016 38.2888C27.8929 38.2888 28.3668 38.2744 29.8542 38.2024C31.3416 38.1377 32.355 37.9002 33.2373 37.5619C34.1559 37.2093 34.9288 36.7415 35.7089 35.9715C36.4818 35.2086 36.963 34.4386 37.3202 33.5318C37.6629 32.6539 37.9035 31.6535 37.9691 30.1926C38.0348 28.7245 38.0566 28.2567 38.0566 24.5145C38.0566 20.7723 38.0421 20.3045 37.9691 18.8364C37.9035 17.3683 37.6629 16.3679 37.3202 15.4972C36.963 14.5904 36.4891 13.8275 35.7089 13.0575C34.9361 12.2947 34.1559 11.8197 33.2373 11.4671C32.3477 11.1288 31.3343 10.8913 29.8542 10.8266C28.3668 10.7546 27.8856 10.7402 24.1016 10.7402ZM24.1016 13.2158C27.8273 13.2158 28.2648 13.2302 29.7376 13.295C31.0937 13.3598 31.8374 13.5829 32.3259 13.77C32.9748 14.0219 33.4414 14.3169 33.9299 14.7991C34.4184 15.2813 34.7173 15.7418 34.9725 16.3823C35.1621 16.8645 35.3881 17.5986 35.4537 18.9371C35.5194 20.3908 35.5339 20.8226 35.5339 24.5001C35.5339 28.1776 35.5194 28.6094 35.4537 30.0631C35.3954 31.4016 35.1621 32.1357 34.9725 32.6179C34.7173 33.2584 34.4184 33.7189 33.9299 34.2011C33.4414 34.6833 32.9748 34.9783 32.3259 35.2302C31.8374 35.4173 31.0937 35.6404 29.7376 35.7052C28.2648 35.77 27.8273 35.7844 24.1016 35.7844C20.3759 35.7844 19.9384 35.77 18.4656 35.7052C17.1095 35.6476 16.3658 35.4173 15.8773 35.2302C15.2284 34.9783 14.7618 34.6833 14.2733 34.2011C13.7848 33.7189 13.4858 33.2584 13.2307 32.6179C13.0411 32.1357 12.8151 31.4016 12.7494 30.0631C12.6838 28.6094 12.6692 28.1776 12.6692 24.5001C12.6692 20.8226 12.6838 20.3908 12.7494 18.9371C12.8151 17.5986 13.0411 16.8645 13.2307 16.3823C13.4858 15.7418 13.7848 15.2813 14.2733 14.7991C14.7618 14.3169 15.2284 14.0219 15.8773 13.77C16.3658 13.5829 17.1095 13.3598 18.4656 13.295C19.9384 13.2302 20.3759 13.2158 24.1016 13.2158ZM24.1016 17.433C20.1498 17.433 16.9418 20.5995 16.9418 24.5001C16.9418 28.4007 20.1498 31.5672 24.1016 31.5672C28.0533 31.5672 31.2614 28.4007 31.2614 24.5001C31.2614 20.5995 28.0533 17.433 24.1016 17.433ZM24.1016 29.0843C21.5351 29.0843 19.4572 27.0333 19.4572 24.5001C19.4572 21.9669 21.5351 19.9159 24.1016 19.9159C26.668 19.9159 28.746 21.9669 28.746 24.5001C28.746 27.0333 26.668 29.0843 24.1016 29.0843ZM33.2154 17.1524C33.2154 18.0663 32.4644 18.8004 31.5384 18.8004C30.6125 18.8004 29.8688 18.0591 29.8688 17.1524C29.8688 16.2384 30.6198 15.4972 31.5384 15.4972C32.4717 15.5044 33.2154 16.2384 33.2154 17.1524Z" fill="currentColor"/>
</symbol><symbol viewBox="0 0 18 10" fill="none" id="icon-miniarrow" xmlns="http://www.w3.org/2000/svg">
<path d="M1 1L9.25806 9L17 1" stroke="currentColor" stroke-linecap="round"/>
</symbol><symbol viewBox="0 0 48 48" fill="none" id="icon-p" xmlns="http://www.w3.org/2000/svg">
<path d="M24.2071 2.47656C11.8852 2.47656 1.89648 12.3359 1.89648 24.4982C1.89648 33.8249 7.78035 41.806 16.0776 45.0085C15.8807 43.2669 15.7057 40.5897 16.1578 38.6826C16.5661 36.9627 18.7752 27.7366 18.7752 27.7366C18.7752 27.7366 18.1045 26.4196 18.1045 24.4694C18.1045 21.4108 19.9053 19.1223 22.1437 19.1223C24.0467 19.1223 24.9653 20.5328 24.9653 22.224C24.9653 24.1167 23.7477 26.9378 23.1207 29.5574C22.5957 31.7523 24.2362 33.5371 26.4235 33.5371C30.3899 33.5371 33.4375 29.4134 33.4375 23.4546C33.4375 18.1795 29.6024 14.4949 24.1196 14.4949C17.7691 14.4949 14.0434 19.1943 14.0434 24.052C14.0434 25.9447 14.7797 27.9741 15.7057 29.0752C15.888 29.2911 15.9171 29.4854 15.8588 29.7085C15.6911 30.4066 15.312 31.8963 15.2391 32.2057C15.1443 32.6087 14.9183 32.6951 14.4954 32.5008C11.7102 31.2198 9.96766 27.1969 9.96766 23.9728C9.96766 17.0281 15.0787 10.6447 24.7101 10.6447C32.4532 10.6447 38.461 16.0853 38.461 23.3611C38.461 30.9535 33.6125 37.0562 26.8829 37.0562C24.6226 37.0562 22.4937 35.8976 21.7719 34.5302C21.7719 34.5302 20.6563 38.733 20.3793 39.7621C19.8762 41.6764 18.5128 44.0729 17.6087 45.5338C19.6866 46.1743 21.9104 46.5197 24.2071 46.5197C36.5289 46.5197 46.5176 36.6604 46.5176 24.4982C46.5176 12.3359 36.5289 2.47656 24.2071 2.47656Z" fill="currentColor"/>
</symbol><symbol viewBox="0 0 40 40" fill="none" id="icon-profile" xmlns="http://www.w3.org/2000/svg">
              <circle cx="20" cy="20" r="19.5" fill="currentColor" stroke="currentColor"/>
              <path d="M26.0564 25.8683H26.0576C26.5942 25.8695 27.1156 25.6904 27.5383 25.3598C27.9609 25.0291 28.2602 24.5661 28.3881 24.045L28.3883 24.0442L30.4822 15.5734C30.522 15.4125 30.5246 15.2448 30.4898 15.0828C30.4551 14.9208 30.3839 14.7689 30.2817 14.6385C30.1795 14.5081 30.0489 14.4028 29.8999 14.3304C29.7509 14.258 29.5874 14.2205 29.4217 14.2207L29.421 14.2207L16.441 14.2207V14.3061H29.4232H29.4237C29.5761 14.3062 29.7266 14.341 29.8636 14.4079C30.0007 14.4747 30.1207 14.5719 30.2147 14.6919C30.3087 14.812 30.3741 14.9519 30.4061 15.101C30.4381 15.2501 30.4357 15.4045 30.3992 15.5525L30.3991 15.5528L28.3057 24.0234L26.0564 25.8683ZM26.0564 25.8683H13.9575H13.9575M26.0564 25.8683H13.9575M13.9575 25.8683C13.9477 25.8683 13.9382 25.8649 13.9306 25.8587C13.923 25.8526 13.9177 25.844 13.9157 25.8344L10.8434 11.3044L10.7595 10.9079M13.9575 25.8683L10.7595 10.9079M10.7595 10.9079H10.3542M10.7595 10.9079H10.3542M10.3542 10.9079H5.64453V10.8225L10.7936 10.8225C10.7936 10.8225 10.7936 10.8225 10.7936 10.8225C10.8034 10.8225 10.8129 10.8259 10.8204 10.832C10.828 10.8382 10.8333 10.8468 10.8353 10.8563C10.8353 10.8563 10.8353 10.8563 10.8353 10.8564L13.9082 25.3864L13.9921 25.7829M10.3542 10.9079L13.9921 25.7829M13.9921 25.7829H14.3974M13.9921 25.7829H14.3974M14.3974 25.7829H26.0559M14.3974 25.7829H26.0559M26.0559 25.7829C26.5737 25.7841 27.0769 25.6113 27.4848 25.2924C27.8927 24.9735 28.1817 24.5268 28.3055 24.0239L26.0559 25.7829ZM23.8487 31.3416C24.1382 31.5349 24.4786 31.638 24.8268 31.638L23.8487 31.3416ZM23.8487 31.3416C23.559 31.1481 23.3331 30.8732 23.1997 30.5514M23.8487 31.3416L23.1997 30.5514M23.1997 30.5514C23.0663 30.2296 23.0313 29.8755 23.0992 29.5338M23.1997 30.5514L23.0992 29.5338M23.0992 29.5338C23.167 29.1921 23.3347 28.8782 23.581 28.6319M23.0992 29.5338L23.581 28.6319M23.581 28.6319C23.8273 28.3855 24.1411 28.2177 24.4827 28.1497M23.581 28.6319L24.4827 28.1497M24.4827 28.1497C24.8244 28.0817 25.1785 28.1166 25.5003 28.2499M24.4827 28.1497L25.5003 28.2499M25.5003 28.2499C25.8222 28.3832 26.0972 28.6089 26.2908 28.8986M25.5003 28.2499L26.2908 28.8986M26.2908 28.8986C26.4842 29.1881 26.5874 29.5284 26.5875 29.8766M26.2908 28.8986L26.5875 29.8766M26.5875 29.8766C26.5869 30.3434 26.4013 30.791 26.0712 31.1212C25.7413 31.4513 25.294 31.6371 24.8273 31.638L26.5875 29.8766ZM17.5662 28.2782V28.2012H17.0662C16.7348 28.2012 16.4109 28.2995 16.1353 28.4836C15.8597 28.6677 15.645 28.9294 15.5181 29.2356C15.3913 29.5417 15.3581 29.8786 15.4227 30.2037C15.4873 30.5287 15.6469 30.8273 15.8812 31.0617C16.1155 31.296 16.4141 31.4557 16.7391 31.5204C17.0641 31.5851 17.401 31.5519 17.7072 31.4252C18.0134 31.2984 18.2752 31.0837 18.4593 30.8082C18.6435 30.5326 18.7419 30.2087 18.7419 29.8773V29.8766C18.7414 29.4325 18.5648 29.0067 18.2507 28.6927C18.0576 28.4995 17.8222 28.3584 17.5662 28.2782ZM25.3275 28.2785V28.2017L24.828 28.2012C24.4965 28.2009 24.1724 28.2989 23.8967 28.4828C23.6209 28.6668 23.4059 28.9283 23.2788 29.2345C23.1517 29.5406 23.1183 29.8776 23.1827 30.2027C23.2472 30.5279 23.4066 30.8266 23.6409 31.0611C23.8751 31.2956 24.1737 31.4554 24.4987 31.5203C24.8238 31.5851 25.1608 31.552 25.4671 31.4253C25.7734 31.2986 26.0352 31.0839 26.2195 30.8083C26.4037 30.5328 26.5021 30.2088 26.5022 29.8773V29.8766C26.5016 29.4328 26.3252 29.0072 26.0115 28.6932C25.8185 28.5001 25.5833 28.3588 25.3275 28.2785ZM17.0657 31.638C16.7176 31.6378 16.3773 31.5346 16.0878 31.3412C15.7982 31.1476 15.5725 30.8726 15.4392 30.5508C15.3059 30.229 15.2711 29.8749 15.339 29.5333C15.407 29.1917 15.5748 28.8779 15.8211 28.6316C16.0674 28.3853 16.3812 28.2176 16.7228 28.1497C17.0644 28.0817 17.4185 28.1167 17.7403 28.25C18.0621 28.3833 18.3371 28.609 18.5306 28.8987C18.724 29.1882 18.8272 29.5285 18.8273 29.8766C18.8267 30.3436 18.6409 30.7913 18.3107 31.1215C17.9805 31.4517 17.5327 31.6374 17.0657 31.638Z" fill="currentColor" stroke="currentColor"/>
            </symbol><symbol viewBox="0 0 30 30" fill="none" id="icon-reload" xmlns="http://www.w3.org/2000/svg">
<path d="M13.7148 27.9648C6.5658 27.9648 0.75 22.1487 0.75 15C0.75 7.85126 6.5661 2.03516 13.7148 2.03516C20.8638 2.03516 26.6796 7.85126 26.6796 15C26.6796 15.1799 26.6081 15.3525 26.4808 15.4798C26.3536 15.6071 26.181 15.6786 26.001 15.6786C25.821 15.6786 25.6484 15.6071 25.5212 15.4798C25.3939 15.3525 25.3224 15.1799 25.3224 15C25.3224 8.59946 20.1153 3.39236 13.7148 3.39236C7.3143 3.39236 2.1072 8.59946 2.1072 15C2.1072 21.4005 7.314 26.6076 13.7148 26.6076C13.8948 26.6076 14.0674 26.6791 14.1946 26.8063C14.3219 26.9336 14.3934 27.1062 14.3934 27.2862C14.3934 27.4661 14.3219 27.6387 14.1946 27.766C14.0674 27.8933 13.8948 27.9648 13.7148 27.9648Z" fill="currentColor"/>
<path d="M26.0031 15.694C25.8441 15.694 25.6896 15.6379 25.5669 15.535L22.5039 12.9646C22.4334 12.908 22.3749 12.838 22.3319 12.7585C22.2889 12.679 22.2621 12.5918 22.2533 12.5019C22.2444 12.412 22.2536 12.3212 22.2803 12.2348C22.307 12.1485 22.3507 12.0684 22.4087 11.9992C22.4668 11.9299 22.5381 11.873 22.6185 11.8317C22.6989 11.7904 22.7867 11.7656 22.8768 11.7587C22.9669 11.7518 23.0574 11.763 23.1431 11.7915C23.2289 11.8201 23.308 11.8655 23.376 11.9251L25.9194 14.0593L28.0536 11.5162C28.1104 11.4465 28.1805 11.3888 28.2598 11.3465C28.3392 11.3042 28.4261 11.278 28.5156 11.2696C28.6051 11.2612 28.6954 11.2706 28.7812 11.2973C28.867 11.3241 28.9467 11.3676 29.0156 11.4254C29.0844 11.4832 29.1411 11.5541 29.1824 11.634C29.2236 11.7139 29.2485 11.8012 29.2557 11.8908C29.263 11.9804 29.2523 12.0705 29.2244 12.156C29.1964 12.2415 29.1518 12.3205 29.0931 12.3886L26.523 15.4516C26.4593 15.5275 26.3797 15.5885 26.2899 15.6304C26.2001 15.6723 26.1022 15.694 26.0031 15.694Z" fill="currentColor"/>
</symbol><symbol viewBox="0 0 30 30" fill="none" id="icon-spoon" xmlns="http://www.w3.org/2000/svg">
<g clip-path="url(#oclip0_115_457)">
<path d="M28.9797 1.02042C27.946 -0.0133635 26.219 -0.271854 24.1171 0.292466C22.2545 0.792515 20.3343 1.89936 18.9804 3.25327C17.5422 4.69149 17.0198 6.79521 17.6171 8.7435C17.7881 9.30172 17.6465 9.8852 17.2473 10.2663L2.70987 24.1428C2.52028 24.3238 2.2663 24.4637 1.9334 24.5704C0.751155 24.9494 -0.0255464 26.0353 0.000642409 27.2725C0.0318112 28.7449 1.25501 29.9682 2.72745 29.9995C2.74784 30 2.76799 30.0002 2.78832 30.0002C4.00027 30.0001 5.05708 29.2296 5.42982 28.0668C5.53651 27.7339 5.67636 27.4798 5.85739 27.2902L14.4519 18.2864C14.5324 18.2021 14.5761 18.0893 14.5733 17.9728C14.5706 17.8563 14.5217 17.7456 14.4374 17.6652C14.3531 17.5847 14.2403 17.541 14.1238 17.5437C14.0073 17.5464 13.8966 17.5953 13.8162 17.6796L5.22166 26.6834C4.94682 26.9714 4.74112 27.3362 4.59295 27.7985C4.33364 28.6075 3.59098 29.1395 2.74608 29.1209C1.75512 29.0998 0.900262 28.2449 0.879287 27.2539C0.861418 26.4087 1.39287 25.6665 2.20174 25.4072C2.66405 25.259 3.02876 25.0534 3.31673 24.7785L14.0939 14.4912L15.509 15.9063L15.207 16.2227C15.1265 16.307 15.0828 16.4198 15.0856 16.5363C15.0883 16.6528 15.1372 16.7635 15.2215 16.8439C15.3058 16.9244 15.4186 16.9681 15.5351 16.9654C15.6516 16.9627 15.7623 16.9138 15.8427 16.8295L19.734 12.7529C20.115 12.3537 20.6985 12.2121 21.2567 12.3831C23.205 12.9805 25.3087 12.458 26.7469 11.0198C28.1008 9.66591 29.2077 7.74563 29.7078 5.88311C30.2721 3.78115 30.0135 2.05421 28.9797 1.02042ZM14.7298 13.8842L15.4194 13.226L16.7742 14.5808L16.1159 15.2704L14.7298 13.8842ZM26.1255 10.3984C24.9178 11.6061 23.1509 12.0445 21.5143 11.5429C20.6361 11.2736 19.7103 11.5049 19.0982 12.1461L17.3811 13.9449L16.0552 12.619L17.8541 10.9019C18.4953 10.2898 18.7265 9.364 18.4572 8.48588C17.9555 6.84929 18.394 5.08233 19.6017 3.87466C22.0751 1.4013 26.6017 -0.114838 28.3584 1.64187C30.115 3.39851 28.5989 7.92502 26.1255 10.3984Z" fill="currentColor"/>
</g>
<defs>
<clipPath id="oclip0_115_457">
<rect width="30" height="30" fill="currentColor"/>
</clipPath>
</defs>
</symbol><symbol viewBox="0 0 20 18" id="icon-star" xmlns="http://www.w3.org/2000/svg">
<path d="M5.11624 17.8204C4.48876 18.2062 4.12273 17.949 4.29267 17.2547L5.70451 11.3917L1.0899 7.48304C0.540858 7.02017 0.671583 6.58301 1.40364 6.53159L7.45623 6.05586L9.79621 0.501441C10.0577 -0.167147 10.5152 -0.167147 10.7897 0.501441L13.1428 6.05586L19.1823 6.53159C19.9143 6.59587 20.0581 7.00731 19.496 7.48304L14.8814 11.3917L16.2933 17.2547C16.4632 17.949 16.1102 18.2062 15.4697 17.8204L10.293 14.6961L5.11624 17.8204Z" fill="currentColor"/>
</symbol><symbol viewBox="0 0 30 30" fill="none" id="icon-thermometer" xmlns="http://www.w3.org/2000/svg">
<path d="M15.9025 18.0435V4.27732C15.9025 2.1574 14.184 0.438843 12.064 0.438843C9.94412 0.438843 8.22557 2.1574 8.22557 4.27732V18.0435C6.67148 19.2106 5.66602 21.0687 5.66602 23.1619C5.66602 26.6955 8.53049 29.5599 12.064 29.5599C15.5975 29.5599 18.4621 26.6955 18.4621 23.1619C18.4621 21.0687 17.4566 19.2107 15.9025 18.0435Z" fill="currentColor"/>
<path d="M20.5501 3.23789H24.2502C24.4929 3.23789 24.6897 3.04119 24.6897 2.79844C24.6897 2.55568 24.493 2.35898 24.2502 2.35898H20.5501C20.3074 2.35898 20.1106 2.55568 20.1106 2.79844C20.1106 3.04119 20.3073 3.23789 20.5501 3.23789ZM20.5501 6.80859H23.0941C23.2107 6.80859 23.3225 6.76229 23.4049 6.67988C23.4873 6.59747 23.5336 6.48569 23.5336 6.36914C23.5336 6.25259 23.4873 6.14081 23.4049 6.0584C23.3225 5.97599 23.2107 5.92969 23.0941 5.92969H20.5501C20.4335 5.92969 20.3217 5.97599 20.2393 6.0584C20.1569 6.14081 20.1106 6.25259 20.1106 6.36914C20.1106 6.48569 20.1569 6.59747 20.2393 6.67988C20.3217 6.76229 20.4335 6.80859 20.5501 6.80859ZM24.2502 9.50033H20.5501C20.3074 9.50033 20.1106 9.69703 20.1106 9.93979C20.1106 10.1825 20.3073 10.3792 20.5501 10.3792H24.2502C24.4929 10.3792 24.6897 10.1825 24.6897 9.93979C24.6897 9.69703 24.4929 9.50033 24.2502 9.50033ZM20.5501 13.9499H23.0941C23.2107 13.9499 23.3225 13.9036 23.4049 13.8212C23.4873 13.7388 23.5336 13.627 23.5336 13.5104C23.5336 13.3939 23.4873 13.2821 23.4049 13.1997C23.3225 13.1173 23.2107 13.071 23.0941 13.071H20.5501C20.4335 13.071 20.3217 13.1173 20.2393 13.1997C20.1569 13.2821 20.1106 13.3939 20.1106 13.5104C20.1106 13.627 20.1569 13.7388 20.2393 13.8212C20.3217 13.9036 20.4335 13.9499 20.5501 13.9499ZM24.2502 16.6416H20.5501C20.4335 16.6416 20.3217 16.6879 20.2393 16.7703C20.1569 16.8527 20.1106 16.9645 20.1106 17.0811C20.1106 17.1976 20.1569 17.3094 20.2393 17.3918C20.3217 17.4742 20.4335 17.5205 20.5501 17.5205H24.2502C24.3667 17.5205 24.4785 17.4742 24.5609 17.3918C24.6434 17.3094 24.6897 17.1976 24.6897 17.0811C24.6897 16.9645 24.6434 16.8527 24.5609 16.7703C24.4785 16.6879 24.3667 16.6416 24.2502 16.6416ZM16.3421 17.8281V4.27775C16.3421 1.919 14.4231 0 12.0643 0C9.70559 0 7.78658 1.919 7.78658 4.27775V17.8282C6.46108 18.8912 5.58651 20.3861 5.31527 22.0614C5.30605 22.1184 5.30813 22.1766 5.32141 22.2328C5.33469 22.2889 5.3589 22.3419 5.39266 22.3887C5.42642 22.4355 5.46908 22.4752 5.51818 22.5055C5.56729 22.5358 5.62188 22.5562 5.67885 22.5654C5.91785 22.6044 6.14408 22.4415 6.18287 22.2018C6.42938 20.679 7.24869 19.327 8.48988 18.3947C8.54438 18.3537 8.58861 18.3007 8.61906 18.2397C8.64952 18.1787 8.66537 18.1115 8.66537 18.0433V4.27775C8.66537 2.40363 10.1901 0.878906 12.0643 0.878906C13.9385 0.878906 15.4631 2.40363 15.4631 4.27775V18.0434C15.4631 18.1115 15.479 18.1788 15.5095 18.2398C15.5399 18.3007 15.5842 18.3538 15.6387 18.3947C17.1536 19.5326 18.0226 21.2701 18.0226 23.1616C18.0226 28.261 12.0131 30.9722 8.1842 27.6836C7.11703 26.767 6.40623 25.502 6.18281 24.1216C6.14402 23.8819 5.91826 23.7187 5.67879 23.758C5.62183 23.7672 5.56723 23.7876 5.51813 23.8179C5.46903 23.8482 5.42638 23.8879 5.39262 23.9347C5.35886 23.9815 5.33465 24.0345 5.32137 24.0906C5.30809 24.1468 5.306 24.205 5.31522 24.262C5.57174 25.8468 6.38731 27.2987 7.61156 28.3503C12.0078 32.1262 18.9014 29.0095 18.9014 23.1616C18.9015 21.0652 17.9716 19.1338 16.3421 17.8281Z" fill="currentColor"/>
<path d="M13.2349 6.42976C13.3515 6.42976 13.4632 6.38346 13.5457 6.30105C13.6281 6.21863 13.6744 6.10686 13.6744 5.99031V4.37898C13.6744 3.49146 12.9523 2.76941 12.0648 2.76941C11.1773 2.76941 10.4552 3.49146 10.4552 4.37898V19.1065C8.7805 19.7861 7.69875 21.4634 7.79279 23.2945C7.84705 24.3504 8.29365 25.3464 9.05027 26.0992C10.6922 27.7328 13.3336 27.7722 15.0182 26.1641C15.8722 25.3489 16.3426 24.2498 16.3426 23.0695C16.3426 21.3109 15.283 19.7567 13.6744 19.1062V8.05046C13.6744 7.93391 13.6281 7.82214 13.5457 7.73972C13.4632 7.65731 13.3515 7.61101 13.2349 7.61101C13.1184 7.61101 13.0066 7.65731 12.9242 7.73972C12.8418 7.82214 12.7955 7.93391 12.7955 8.05046V9.50031H11.3341V4.37898C11.3341 3.97609 11.6619 3.64832 12.0648 3.64832C12.4677 3.64832 12.7955 3.97615 12.7955 4.37898V5.99031C12.7955 6.04802 12.8069 6.10516 12.8289 6.15848C12.851 6.2118 12.8834 6.26025 12.9242 6.30106C12.965 6.34187 13.0134 6.37424 13.0667 6.39632C13.1201 6.41841 13.1772 6.42977 13.2349 6.42976ZM12.7955 10.3792V19.4144C12.7955 19.5075 12.8251 19.5982 12.88 19.6735C12.9349 19.7487 13.0123 19.8045 13.101 19.8329C14.5142 20.285 15.4636 21.5856 15.4636 23.0695C15.4636 24.0074 15.0899 24.8806 14.4113 25.5284C12.299 27.5447 8.8173 26.1067 8.67052 23.2494C8.5913 21.7073 9.56097 20.3024 11.0286 19.833C11.1173 19.8046 11.1947 19.7487 11.2496 19.6735C11.3045 19.5983 11.3341 19.5076 11.3341 19.4144V10.3792H12.7955Z" fill="currentColor"/>
</symbol><symbol viewBox="0 0 30 30" fill="none" id="icon-timer" xmlns="http://www.w3.org/2000/svg">
<path d="M2.27766 8.7428H6.9123C7.155 8.7428 7.35176 8.5461 7.35176 8.30334C7.35176 8.06059 7.155 7.86389 6.9123 7.86389H2.27766C2.03496 7.86389 1.8382 8.06059 1.8382 8.30334C1.8382 8.5461 2.0349 8.7428 2.27766 8.7428ZM6.7534 10.8584H4.92258C4.67988 10.8584 4.48313 11.0551 4.48313 11.2979C4.48313 11.5406 4.67988 11.7373 4.92258 11.7373H6.7534C6.99609 11.7373 7.19285 11.5406 7.19285 11.2979C7.19285 11.0551 6.99609 10.8584 6.7534 10.8584ZM0.439453 13.9059H4.92258C5.16527 13.9059 5.36203 13.7092 5.36203 13.4664C5.36203 13.2237 5.16527 13.027 4.92258 13.027H0.439453C0.196758 13.027 0 13.2237 0 13.4664C0 13.7092 0.196758 13.9059 0.439453 13.9059ZM7.35176 21.6966C7.35176 21.5801 7.30546 21.4683 7.22304 21.3859C7.14063 21.3035 7.02885 21.2572 6.9123 21.2572H2.27766C2.03496 21.2572 1.8382 21.4539 1.8382 21.6966C1.8382 21.9394 2.03496 22.1361 2.27766 22.1361H6.9123C7.02885 22.1361 7.14063 22.0898 7.22304 22.0074C7.30546 21.925 7.35176 21.8132 7.35176 21.6966ZM6.7534 18.2627H4.92258C4.67988 18.2627 4.48313 18.4594 4.48313 18.7022C4.48313 18.9449 4.67988 19.1416 4.92258 19.1416H6.7534C6.99609 19.1416 7.19285 18.9449 7.19285 18.7022C7.19285 18.4594 6.99609 18.2627 6.7534 18.2627ZM5.36203 16.5336C5.36203 16.417 5.31573 16.3053 5.23332 16.2229C5.15091 16.1404 5.03913 16.0941 4.92258 16.0941H0.439453C0.196758 16.0941 0 16.2908 0 16.5336C0 16.7764 0.196758 16.9731 0.439453 16.9731H4.92258C5.03913 16.9731 5.15091 16.9268 5.23332 16.8443C5.31573 16.7619 5.36203 16.6501 5.36203 16.5336ZM18.7224 9.71663C18.9652 9.71663 19.1619 9.51993 19.1619 9.27717V8.60639C19.1619 8.36364 18.9652 8.16694 18.7224 8.16694C18.4796 8.16694 18.2829 8.36364 18.2829 8.60639V9.27717C18.2829 9.51993 18.4796 9.71663 18.7224 9.71663ZM23.5541 10.1683C23.4717 10.0859 23.3599 10.0396 23.2433 10.0396C23.1268 10.0396 23.015 10.0859 22.9326 10.1683L22.4583 10.6426C22.3759 10.725 22.3296 10.8368 22.3296 10.9533C22.3296 11.0699 22.3759 11.1817 22.4583 11.2641C22.5407 11.3465 22.6525 11.3928 22.769 11.3928C22.8856 11.3928 22.9974 11.3465 23.0798 11.2641L23.5541 10.7898C23.6365 10.7073 23.6828 10.5956 23.6828 10.479C23.6828 10.3625 23.6365 10.2507 23.5541 10.1683ZM24.4453 14.5606C24.2025 14.5606 24.0058 14.7573 24.0058 15C24.0058 15.2428 24.2025 15.4395 24.4453 15.4395H25.116C25.3587 15.4395 25.5554 15.2428 25.5554 15C25.5554 14.7573 25.3587 14.5606 25.116 14.5606H24.4453ZM23.0798 18.7359C23.039 18.6951 22.9905 18.6627 22.9372 18.6406C22.8839 18.6186 22.8267 18.6072 22.769 18.6072C22.7113 18.6072 22.6542 18.6186 22.6009 18.6406C22.5475 18.6627 22.4991 18.6951 22.4583 18.7359C22.4175 18.7767 22.3851 18.8252 22.363 18.8785C22.3409 18.9318 22.3296 18.9889 22.3296 19.0467C22.3296 19.1044 22.3409 19.1615 22.363 19.2148C22.3851 19.2682 22.4175 19.3166 22.4583 19.3574L22.9326 19.8317C23.0154 19.9123 23.1266 19.957 23.2421 19.9562C23.3576 19.9554 23.4682 19.9091 23.5498 19.8275C23.6315 19.7458 23.6778 19.6352 23.6786 19.5197C23.6793 19.4042 23.6346 19.293 23.5541 19.2102L23.0798 18.7359ZM18.2829 20.7229V21.3936C18.2829 21.6364 18.4796 21.8331 18.7224 21.8331C18.9652 21.8331 19.1619 21.6364 19.1619 21.3936V20.7229C19.1619 20.4801 18.9652 20.2834 18.7224 20.2834C18.4796 20.2834 18.2829 20.4802 18.2829 20.7229ZM14.365 18.7359L13.8906 19.2102C13.8088 19.2928 13.763 19.4043 13.7633 19.5206C13.7635 19.6368 13.8098 19.7482 13.892 19.8303C13.9741 19.9125 14.0855 19.9588 14.2017 19.9591C14.318 19.9593 14.4295 19.9135 14.5121 19.8317L14.9864 19.3574C15.0682 19.2749 15.114 19.1633 15.1138 19.0471C15.1135 18.9309 15.0673 18.8195 14.9851 18.7373C14.9029 18.6551 14.7915 18.6088 14.6753 18.6086C14.5591 18.6083 14.4475 18.6541 14.365 18.7359ZM12.3288 14.5606C12.0861 14.5606 11.8893 14.7573 11.8893 15C11.8893 15.2428 12.0861 15.4395 12.3288 15.4395H12.9996C13.2422 15.4395 13.439 15.2428 13.439 15C13.439 14.7573 13.2422 14.5606 12.9996 14.5606H12.3288ZM14.9865 10.6426L14.5121 10.1683C14.4293 10.0881 14.3182 10.0438 14.2029 10.0448C14.0877 10.0458 13.9774 10.092 13.8959 10.1735C13.8144 10.255 13.7682 10.3653 13.7672 10.4806C13.7662 10.5959 13.8106 10.7069 13.8907 10.7898L14.365 11.2641C14.4476 11.3459 14.5591 11.3917 14.6754 11.3914C14.7916 11.3912 14.903 11.3449 14.9851 11.2627C15.0673 11.1805 15.1136 11.0691 15.1138 10.9529C15.1141 10.8367 15.0683 10.7251 14.9865 10.6426ZM21.0855 15C21.0855 14.7573 20.8888 14.5606 20.646 14.5606H19.1619V11.2978C19.1619 11.0551 18.9652 10.8584 18.7224 10.8584C18.4796 10.8584 18.2829 11.0551 18.2829 11.2978V15C18.2829 15.2428 18.4796 15.4395 18.7224 15.4395H20.646C20.7626 15.4395 20.8744 15.3932 20.9568 15.3108C21.0392 15.2284 21.0855 15.1166 21.0855 15Z" fill="currentColor"/>
<path d="M27.0554 14.9274C27.1717 14.9204 27.2805 14.8674 27.3577 14.7802C27.435 14.6929 27.4745 14.5785 27.4674 14.4622C27.1879 9.85071 23.3467 6.23834 18.7226 6.23834C13.8914 6.23834 9.96094 10.1688 9.96094 15C9.96094 19.8312 13.8914 23.7617 18.7226 23.7617C23.0508 23.7617 26.7441 20.5905 27.3865 16.3111C27.3951 16.254 27.3923 16.1958 27.3784 16.1398C27.3645 16.0838 27.3397 16.0311 27.3054 15.9847C27.2711 15.9383 27.228 15.8991 27.1785 15.8693C27.1291 15.8396 27.0742 15.8198 27.0172 15.8113C26.9601 15.8027 26.9019 15.8055 26.8459 15.8194C26.7899 15.8333 26.7372 15.8581 26.6908 15.8924C26.6444 15.9267 26.6052 15.9699 26.5754 16.0193C26.5456 16.0687 26.5259 16.1236 26.5174 16.1806C25.9402 20.0252 22.6205 22.8828 18.7226 22.8828C14.376 22.8828 10.8398 19.3466 10.8398 15.0001C10.8398 10.6536 14.376 7.11731 18.7226 7.11731C22.8828 7.11731 26.3386 10.367 26.5901 14.5155C26.6047 14.7576 26.8129 14.9415 27.0554 14.9274Z" fill="currentColor"/>
<path d="M18.7225 3.72241C17.1767 3.72241 15.6622 4.0431 14.2683 4.6428H6.51465C6.27195 4.6428 6.0752 4.8395 6.0752 5.08226C6.0752 5.32501 6.27195 5.52171 6.51465 5.52171H12.615C11.7832 6.05681 11.0255 6.69913 10.3614 7.4321C10.2838 7.51859 10.2437 7.63228 10.2497 7.7483C10.2557 7.86433 10.3074 7.97324 10.3935 8.05123C10.4797 8.12922 10.5932 8.16994 10.7092 8.16447C10.8253 8.15901 10.9344 8.10781 11.0128 8.02208C12.9817 5.84813 15.7918 4.60132 18.7225 4.60132C24.4563 4.60132 29.1212 9.26614 29.1212 15C29.1212 20.7338 24.4564 25.3987 18.7225 25.3987C12.9886 25.3987 8.32379 20.7339 8.32379 15C8.32379 12.9921 8.89736 11.0433 9.9824 9.36411C10.045 9.26622 10.0662 9.14754 10.0415 9.03403C10.0168 8.92052 9.94816 8.8214 9.85058 8.75836C9.753 8.69532 9.63443 8.67348 9.5208 8.69761C9.40716 8.72175 9.30771 8.7899 9.24418 8.88716C8.06703 10.7087 7.44488 12.8225 7.44488 15C7.44488 18.9707 9.50773 22.4683 12.6178 24.4783H6.51471C6.27201 24.4783 6.07525 24.675 6.07525 24.9178C6.07525 25.1605 6.27201 25.3572 6.51471 25.3572H14.2623C15.631 25.949 17.139 26.2776 18.7225 26.2776C24.941 26.2776 30.0001 21.2185 30.0001 15C30.0001 8.78151 24.941 3.72241 18.7225 3.72241Z" fill="currentColor"/>
</symbol><symbol viewBox="0 0 47 47" fill="none" id="icon-tt" xmlns="http://www.w3.org/2000/svg">
<path d="M22.3106 2C9.98747 2 0 11.8581 0 24.0216C0 36.1851 9.98747 46.0432 22.3106 46.0432C34.6337 46.0432 44.6211 36.1851 44.6211 24.0216C44.6211 11.8581 34.6337 2 22.3106 2ZM33.6053 21.9915C31.2348 21.9915 28.934 21.2345 27.1562 19.9442L27.1387 28.6754C27.1387 33.0711 23.522 36.6238 19.0773 36.6238C14.6326 36.6238 11.0246 33.0539 11.0246 28.6668C11.0246 24.2711 14.6413 20.7184 19.086 20.7184C19.4433 20.7184 19.8006 20.7442 20.1492 20.7872V25.0711C18.1361 24.4861 16.0183 25.6216 15.4257 27.6087C14.833 29.5958 15.9834 31.6861 17.9966 32.2711C20.0098 32.856 22.1276 31.7205 22.7202 29.7334C22.8248 29.3894 22.8771 29.0281 22.8771 28.6668V11.4022H27.3479C27.3479 14.8087 30.1454 17.5786 33.6053 17.5786V21.9915Z" fill="currentColor"/>
</symbol><symbol viewBox="0 0 47 49" fill="none" id="icon-tw" xmlns="http://www.w3.org/2000/svg">
<path fill-rule="evenodd" clip-rule="evenodd" d="M22.7578 3.47656C35.0724 3.47656 45.0684 13.3431 45.0684 25.4982C45.0684 37.6532 35.0724 47.5197 22.7578 47.5197C10.4433 47.5197 0.447266 37.6532 0.447266 25.4982C0.447266 13.3431 10.4433 3.47656 22.7578 3.47656ZM18.828 37.2142C28.7 37.2142 34.0954 29.1396 34.0954 22.1445C34.0954 21.9142 34.0954 21.684 34.0808 21.4609C35.1234 20.7124 36.0421 19.7769 36.7639 18.7118C35.8088 19.1292 34.7735 19.417 33.6798 19.5466C34.7953 18.8845 35.6411 17.8554 36.0421 16.6104C35.0068 17.2149 33.8621 17.6539 32.6372 17.8985C31.6602 16.8694 30.2676 16.2289 28.7219 16.2289C25.7617 16.2289 23.3557 18.6038 23.3557 21.5256C23.3557 21.943 23.3995 22.346 23.5015 22.7347C19.0394 22.5116 15.0877 20.403 12.441 17.2005C11.9817 17.9777 11.7192 18.8917 11.7192 19.856C11.7192 21.6912 12.667 23.3176 14.1107 24.2603C13.2285 24.2387 12.4046 23.9941 11.6828 23.5982V23.663C11.6828 26.2322 13.5274 28.3624 15.9918 28.859C15.547 28.9813 15.0658 29.0461 14.5773 29.0461C14.2346 29.0461 13.8992 29.0101 13.5638 28.9453C14.2419 31.0539 16.2251 32.5796 18.5728 32.6228C16.7354 34.0405 14.4242 34.8825 11.9088 34.8825C11.4713 34.8825 11.0484 34.8609 10.6256 34.8034C12.9733 36.329 15.8022 37.2142 18.828 37.2142Z" fill="currentColor"/>
</symbol><symbol viewBox="0 0 46 48" fill="none" id="icon-yt" xmlns="http://www.w3.org/2000/svg">
<path fill-rule="evenodd" clip-rule="evenodd" d="M22.6543 2.47852C34.9689 2.47852 44.9649 12.3451 44.9649 24.5001C44.9649 36.6552 34.9689 46.5217 22.6543 46.5217C10.3398 46.5217 0.34375 36.6552 0.34375 24.5001C0.34375 12.3451 10.3398 2.47852 22.6543 2.47852ZM36.0188 17.872C35.698 16.6846 34.7502 15.7562 33.5544 15.4396C31.3817 14.8639 22.6616 14.8639 22.6616 14.8639C22.6616 14.8639 13.9415 14.8639 11.7688 15.4396C10.5658 15.7562 9.62524 16.6918 9.30443 17.872C8.72115 20.0166 8.72115 24.5001 8.72115 24.5001C8.72115 24.5001 8.72115 28.9764 9.30443 31.1282C9.62524 32.3156 10.5731 33.244 11.7688 33.5606C13.9415 34.1364 22.6616 34.1364 22.6616 34.1364C22.6616 34.1364 31.3817 34.1364 33.5544 33.5606C34.7574 33.244 35.698 32.3084 36.0188 31.1282C36.6021 28.9836 36.6021 24.5001 36.6021 24.5001C36.6021 24.5001 36.5948 20.0238 36.0188 17.872ZM19.8619 28.631V20.3693L27.1091 24.5001L19.8619 28.631Z" fill="currentColor"/>
</symbol></svg>