<svg width="118" height="132" viewBox="0 0 118 132" fill="none" xmlns="http://www.w3.org/2000/svg">
<path d="M81.1727 52H23.8273C21.1655 52 19 54.1651 19 56.8264V98.9661C19 101.627 21.1655 103.793 23.8273 103.793H35.303C35.0606 104.272 35.0194 104.788 35.202 105.258C35.4713 105.953 36.1498 106.381 37.067 106.437L40.4344 106.859L40.8542 110.228C40.9124 111.146 41.3427 111.825 42.0388 112.092C42.2338 112.167 42.4364 112.204 42.6408 112.204C43.1615 112.204 43.6945 111.966 44.1447 111.516L49.7302 105.931C49.895 105.956 50.0502 105.966 50.1895 105.966C50.3434 105.966 50.4782 105.954 50.5862 105.935L52.5954 105.572L54.1089 105.877C54.207 105.899 54.3038 105.914 54.3994 105.925L60.1115 111.636C60.5605 112.087 61.0929 112.326 61.6137 112.326C61.8186 112.326 62.0217 112.289 62.213 112.215C62.9106 111.948 63.3418 111.268 63.4 110.347L63.823 106.982L67.1875 106.559C68.1076 106.503 68.7873 106.075 69.056 105.379C69.2533 104.868 69.1866 104.305 68.8857 103.793H81.1726C83.8344 103.793 85.9998 101.628 85.9998 98.9662V56.8264C86 54.1651 83.8345 52 81.1727 52ZM42.8237 110.04C42.823 110.032 42.822 110.024 42.821 110.016L42.3019 105.852C42.2747 105.634 42.1755 105.431 42.0201 105.275C41.8647 105.119 41.6619 105.02 41.4437 104.993L37.2788 104.47C37.2706 104.469 37.2623 104.468 37.2541 104.467L41.9296 99.796L42.6181 100.489L43.2247 101.905C43.6459 102.961 44.5567 103.496 45.0322 103.647L46.9807 104.261L47.8754 104.989L42.8237 110.04ZM54.5351 103.946C54.5271 103.944 54.519 103.942 54.5109 103.94L52.8012 103.595C52.6787 103.571 52.5527 103.57 52.4297 103.592L50.241 103.988C50.1973 103.994 50.0125 103.993 49.8048 103.922C49.7887 103.915 49.7724 103.91 49.7561 103.904C49.6471 103.862 49.546 103.802 49.457 103.727C49.4501 103.721 49.4431 103.715 49.4359 103.709L48.0823 102.608C47.9854 102.529 47.8745 102.469 47.7554 102.432L45.6312 101.762C45.5665 101.739 45.2071 101.543 45.0596 101.167C45.0559 101.157 45.052 101.148 45.0481 101.139L44.362 99.537C44.3129 99.4223 44.2426 99.318 44.1547 99.2295L42.6355 97.6997L42.6321 97.6961L42.6289 97.6931L42.5841 97.6481C42.5375 97.597 42.3094 97.2526 42.3522 96.8494C42.3533 96.8399 42.3542 96.8303 42.355 96.8206L42.4886 95.0818C42.498 94.9584 42.4842 94.8343 42.4479 94.716L41.7927 92.581C41.7749 92.5142 41.7317 92.1052 41.9557 91.7723C41.9618 91.7634 41.9675 91.7544 41.9733 91.7454L42.9004 90.266C42.9665 90.1606 43.0121 90.0437 43.0348 89.9213L43.4416 87.7273C43.4566 87.6598 43.6073 87.2764 43.9619 87.0838C43.9703 87.0792 43.9786 87.0745 43.9869 87.0696L45.4926 86.1946C45.6006 86.1319 45.6957 86.0493 45.7729 85.9512L47.1565 84.1932C47.2004 84.1413 47.5085 83.8762 47.9107 83.8701L47.938 83.8692L49.6773 83.795C49.8022 83.7897 49.9249 83.7608 50.0389 83.7098L52.0759 82.7989C52.1091 82.7856 52.2347 82.7544 52.3983 82.7544C52.5453 82.7544 52.723 82.7796 52.8918 82.8654C52.9007 82.87 52.9097 82.8743 52.9189 82.8787L54.4949 83.6203C54.6072 83.673 54.7283 83.7043 54.8521 83.7123L57.0831 83.857C57.1925 83.8683 57.5591 83.993 57.7739 84.2956C57.7795 84.3034 57.7853 84.3113 57.7911 84.319L58.8443 85.7132C58.9191 85.8123 59.0119 85.8964 59.1178 85.9611L61.0252 87.1259C61.1169 87.187 61.3847 87.4694 61.4348 87.8387L61.4391 87.8671L61.7247 89.5876C61.7448 89.7095 61.7877 89.8265 61.8509 89.9325L63.0014 91.8604C63.0538 91.9559 63.1582 92.3274 63.0313 92.6787C63.028 92.6877 63.0249 92.6969 63.0219 92.706L62.4767 94.3634C62.438 94.4808 62.4218 94.6045 62.4288 94.7279L62.5548 96.9591C62.5564 97.0279 62.5018 97.4342 62.2049 97.7048L62.1834 97.7249L61.8613 98.0364C61.8585 98.0392 61.8554 98.0414 61.8526 98.0442L61.8487 98.0485L60.9299 98.9371C60.8404 99.0238 60.7681 99.1266 60.7166 99.2401L59.7938 101.278C59.744 101.377 59.4952 101.678 59.1348 101.774C59.1268 101.776 59.1187 101.778 59.1107 101.78L57.4382 102.27C57.3182 102.305 57.2059 102.362 57.1073 102.439L55.3559 103.807C55.2993 103.848 54.9283 104.035 54.5351 103.946ZM66.9754 104.592L62.8144 105.115C62.5965 105.143 62.3938 105.242 62.2385 105.397C62.0831 105.552 61.9839 105.755 61.9565 105.973L61.4336 110.133C61.4325 110.141 61.4316 110.15 61.4309 110.158L56.6096 105.338L58.1756 104.115L59.6559 103.682C60.6157 103.422 61.3342 102.677 61.5951 102.096L62.4407 100.228L62.541 100.131L67.0005 104.59C66.9921 104.59 66.9837 104.591 66.9754 104.592ZM84.0222 98.9661C84.0222 100.537 82.7438 101.815 81.1727 101.815H67.0226L63.9325 98.7253C63.9383 98.7173 63.9449 98.7096 63.9507 98.7016H77.9724C79.7098 98.7016 81.1234 97.2882 81.1234 95.551V60.2414C81.1234 58.5041 79.7098 57.091 77.9724 57.091H27.0277C25.2882 57.091 23.8729 58.5042 23.8729 60.2414V77.8981C23.8729 78.4443 24.3156 78.887 24.8618 78.887C25.408 78.887 25.8507 78.4443 25.8507 77.8981V60.2414C25.8507 59.5947 26.3788 59.0686 27.0277 59.0686H77.9723C78.6191 59.0686 79.1454 59.5947 79.1454 60.2414V95.5512C79.1454 96.1979 78.6191 96.7241 77.9723 96.7241H64.5226L64.4142 94.8036L64.8968 93.336C65.2312 92.3944 65.027 91.3834 64.6929 90.8351L63.6454 89.0795L63.3925 87.5559C63.232 86.4239 62.4743 85.6903 62.0552 85.4376L60.3093 84.3713L59.3772 83.1375C58.7102 82.2086 57.6975 81.9118 57.209 81.8836L55.1674 81.7511L53.7734 81.0951C52.7558 80.585 51.722 80.7904 51.2711 80.9925L49.404 81.8274L47.8657 81.8931C46.7248 81.916 45.9048 82.5823 45.6017 82.9707L44.3353 84.5798L43.0042 85.3533C42.011 85.8992 41.5902 86.87 41.4977 87.3617L41.1243 89.3754L40.3047 90.6829C39.6781 91.6263 39.7548 92.6796 39.9003 93.1566L40.5019 95.117L40.3837 96.6564C40.3814 96.6792 40.381 96.7013 40.3793 96.7238H27.0277C26.3788 96.7238 25.8507 96.1976 25.8507 95.5509V82.4254C25.8507 81.8792 25.408 81.4365 24.8618 81.4365C24.3156 81.4365 23.8729 81.8792 23.8729 82.4254V95.5512C23.8729 97.2884 25.2882 98.7017 27.0277 98.7017H40.2263L37.1104 101.815H23.8273C22.256 101.815 20.9778 100.537 20.9778 98.9661V56.8264C20.9778 55.2555 22.256 53.9777 23.8273 53.9777H81.1727C82.7439 53.9777 84.0222 55.2556 84.0222 56.8264V98.9661Z" fill="white"/>
<path d="M34.1538 71.4329H50.019C50.5652 71.4329 51.0079 70.9902 51.0079 70.4439C51.0079 69.8977 50.5652 69.455 50.019 69.455H34.1538C33.3534 69.455 32.7024 68.8042 32.7024 68.0041C32.7024 67.204 33.3534 66.5531 34.1538 66.5531H70.7869C71.5873 66.5531 72.2383 67.204 72.2383 68.0041C72.2383 68.8042 71.5871 69.455 70.7869 69.455H54.766C54.2198 69.455 53.7771 69.8977 53.7771 70.4439C53.7771 70.9902 54.2198 71.4329 54.766 71.4329H70.7869C72.6778 71.4329 74.2161 69.8947 74.2161 68.0042C74.2161 66.1137 72.6778 64.5756 70.7869 64.5756H34.1538C32.2629 64.5756 30.7246 66.1137 30.7246 68.0042C30.7247 69.8949 32.2629 71.4329 34.1538 71.4329ZM63.878 75.0838H41.0666C40.8043 75.0838 40.5528 75.188 40.3673 75.3735C40.1819 75.5589 40.0777 75.8104 40.0777 76.0727C40.0777 76.3349 40.1819 76.5864 40.3673 76.7719C40.5528 76.9573 40.8043 77.0615 41.0666 77.0615H63.878C64.0088 77.063 64.1386 77.0385 64.2599 76.9895C64.3812 76.9405 64.4915 76.8679 64.5846 76.7759C64.6776 76.684 64.7515 76.5744 64.8019 76.4537C64.8523 76.333 64.8782 76.2035 64.8782 76.0727C64.8782 75.9418 64.8523 75.8123 64.8019 75.6916C64.7515 75.5709 64.6776 75.4614 64.5846 75.3694C64.4915 75.2774 64.3812 75.2048 64.2599 75.1558C64.1386 75.1068 64.0088 75.0823 63.878 75.0838ZM52.4073 87.0861C48.7907 87.0861 45.8483 90.028 45.8483 93.6441C45.8483 97.2603 48.7907 100.202 52.4073 100.202C56.024 100.202 58.9665 97.2603 58.9665 93.6441C58.9664 90.028 56.024 87.0861 52.4073 87.0861ZM52.4073 98.2245C49.8812 98.2245 47.8261 96.1697 47.8261 93.6441C47.8261 91.1185 49.8812 89.0638 52.4073 89.0638C54.9335 89.0638 56.9887 91.1185 56.9887 93.6441C56.9887 96.1697 54.9335 98.2245 52.4073 98.2245Z" fill="white"/>
</svg>
