<svg aria-hidden="true" xmlns="http://www.w3.org/2000/svg" xmlns:xlink="http://www.w3.org/1999/xlink"><symbol viewBox="0 0 77 15" fill="none" id="icon-arrow" xmlns="http://www.w3.org/2000/svg">
<path d="M76.2071 8.20711C76.5976 7.81658 76.5976 7.18342 76.2071 6.79289L69.8431 0.428932C69.4526 0.0384078 68.8195 0.0384078 68.4289 0.428932C68.0384 0.819457 68.0384 1.45262 68.4289 1.84315L74.0858 7.5L68.4289 13.1569C68.0384 13.5474 68.0384 14.1805 68.4289 14.5711C68.8195 14.9616 69.4526 14.9616 69.8431 14.5711L76.2071 8.20711ZM0.5 8.5H75.5V6.5H0.5V8.5Z" fill="currentColor"/>
</symbol><symbol viewBox="0 0 40 40" fill="none" id="icon-basket" xmlns="http://www.w3.org/2000/svg">
<circle cx="20" cy="20" r="19.5" fill="currentColor" stroke="currentColor"/>
<path d="M26.0564 25.8685H26.0576C26.5942 25.8697 27.1156 25.6907 27.5383 25.36C27.9609 25.0294 28.2602 24.5664 28.3881 24.0452L28.3883 24.0445L30.4822 15.5736C30.522 15.4128 30.5246 15.245 30.4898 15.083C30.4551 14.9211 30.3839 14.7691 30.2817 14.6388C30.1795 14.5084 30.0489 14.403 29.8999 14.3306C29.7509 14.2582 29.5874 14.2207 29.4217 14.221L29.421 14.221L16.441 14.221V14.3063H29.4232H29.4237C29.5761 14.3065 29.7266 14.3413 29.8636 14.4081C30.0007 14.475 30.1207 14.5721 30.2147 14.6922C30.3087 14.8123 30.3741 14.9521 30.4061 15.1012C30.4381 15.2503 30.4357 15.4047 30.3992 15.5527L30.3991 15.5531L28.3057 24.0236L26.0564 25.8685ZM26.0564 25.8685H13.9575H13.9575M26.0564 25.8685H13.9575M13.9575 25.8685C13.9477 25.8685 13.9382 25.8651 13.9306 25.859C13.923 25.8528 13.9177 25.8442 13.9157 25.8347L10.8434 11.3047L10.7595 10.9081M13.9575 25.8685L10.7595 10.9081M10.7595 10.9081H10.3542M10.7595 10.9081H10.3542M10.3542 10.9081H5.64453V10.8228L10.7936 10.8228C10.7936 10.8228 10.7936 10.8228 10.7936 10.8228C10.8034 10.8228 10.8129 10.8261 10.8204 10.8323C10.828 10.8384 10.8333 10.847 10.8353 10.8565C10.8353 10.8566 10.8353 10.8566 10.8353 10.8566L13.9082 25.3866L13.9921 25.7832M10.3542 10.9081L13.9921 25.7832M13.9921 25.7832H14.3974M13.9921 25.7832H14.3974M14.3974 25.7832H26.0559M14.3974 25.7832H26.0559M26.0559 25.7832C26.5737 25.7843 27.0769 25.6116 27.4848 25.2927C27.8927 24.9737 28.1817 24.527 28.3055 24.0242L26.0559 25.7832ZM23.8487 31.3418C24.1382 31.5351 24.4786 31.6383 24.8268 31.6382L23.8487 31.3418ZM23.8487 31.3418C23.559 31.1484 23.3331 30.8734 23.1997 30.5516M23.8487 31.3418L23.1997 30.5516M23.1997 30.5516C23.0663 30.2298 23.0313 29.8757 23.0992 29.534M23.1997 30.5516L23.0992 29.534M23.0992 29.534C23.167 29.1924 23.3347 28.8785 23.581 28.6321M23.0992 29.534L23.581 28.6321M23.581 28.6321C23.8273 28.3858 24.1411 28.218 24.4827 28.15M23.581 28.6321L24.4827 28.15M24.4827 28.15C24.8244 28.082 25.1785 28.1168 25.5003 28.2501M24.4827 28.15L25.5003 28.2501M25.5003 28.2501C25.8222 28.3834 26.0972 28.6092 26.2908 28.8988M25.5003 28.2501L26.2908 28.8988M26.2908 28.8988C26.4842 29.1883 26.5874 29.5287 26.5875 29.8768M26.2908 28.8988L26.5875 29.8768M26.5875 29.8768C26.5869 30.3437 26.4013 30.7913 26.0712 31.1215C25.7413 31.4515 25.294 31.6373 24.8273 31.6382L26.5875 29.8768ZM17.5662 28.2784V28.2015H17.0662C16.7348 28.2015 16.4109 28.2997 16.1353 28.4838C15.8597 28.6679 15.645 28.9296 15.5181 29.2358C15.3913 29.542 15.3581 29.8789 15.4227 30.2039C15.4873 30.529 15.6469 30.8275 15.8812 31.0619C16.1155 31.2963 16.4141 31.4559 16.7391 31.5206C17.0641 31.5853 17.401 31.5522 17.7072 31.4254C18.0134 31.2986 18.2752 31.0839 18.4593 30.8084C18.6435 30.5329 18.7419 30.2089 18.7419 29.8775V29.8768C18.7414 29.4327 18.5648 29.007 18.2507 28.6929C18.0576 28.4998 17.8222 28.3586 17.5662 28.2784ZM25.3275 28.2788V28.2019L24.828 28.2015C24.4965 28.2011 24.1724 28.2992 23.8967 28.4831C23.6209 28.667 23.4059 28.9286 23.2788 29.2347C23.1517 29.5409 23.1183 29.8778 23.1827 30.203C23.2472 30.5281 23.4066 30.8268 23.6409 31.0614C23.8751 31.2959 24.1737 31.4557 24.4987 31.5205C24.8238 31.5853 25.1608 31.5523 25.4671 31.4256C25.7734 31.2988 26.0352 31.0841 26.2195 30.8086C26.4037 30.533 26.5021 30.209 26.5022 29.8775V29.8768C26.5016 29.433 26.3252 29.0075 26.0115 28.6935C25.8185 28.5003 25.5833 28.3591 25.3275 28.2788ZM17.0657 31.6382C16.7176 31.6381 16.3773 31.5348 16.0878 31.3414C15.7982 31.1479 15.5725 30.8728 15.4392 30.551C15.3059 30.2292 15.2711 29.8751 15.339 29.5335C15.407 29.1919 15.5748 28.8781 15.8211 28.6318C16.0674 28.3856 16.3812 28.2178 16.7228 28.1499C17.0644 28.082 17.4185 28.1169 17.7403 28.2502C18.0621 28.3835 18.3371 28.6093 18.5306 28.8989C18.724 29.1884 18.8272 29.5287 18.8273 29.8768C18.8267 30.3438 18.6409 30.7916 18.3107 31.1218C17.9805 31.452 17.5327 31.6377 17.0657 31.6382Z" fill="currentColor" stroke="currentColor"/>
</symbol><symbol viewBox="0 0 45 48" fill="none" id="icon-fb" xmlns="http://www.w3.org/2000/svg">
<path fill-rule="evenodd" clip-rule="evenodd" d="M22.4633 46.9221H22.4852H22.4779H22.4633ZM22.3977 46.9221H22.4196H22.405H22.3977ZM22.6966 46.9221H22.682H22.7039H22.6966ZM22.2446 46.9221H22.2665H22.2592H22.2446ZM22.9081 46.9221H22.8935H22.9154H22.9081ZM22.179 46.9221H22.2008H22.1863H22.179ZM21.9602 46.9149H21.9894H21.9821H21.9602ZM23.1268 46.9149H23.1195H23.1487H23.1268ZM23.1997 46.9149H23.1851H23.2143H23.1997ZM21.8946 46.9149H21.9238H21.9092H21.8946ZM23.3382 46.9077H23.3309H23.3601H23.3382ZM21.7415 46.9077H21.7707H21.7634H21.7415ZM21.6759 46.9077H21.705H21.6905H21.6759ZM23.4111 46.9077H23.3966H23.4257H23.4111ZM21.5228 46.9005H21.5592H21.5519H21.5228ZM23.557 46.9005H23.5497H23.5861H23.557ZM21.4572 46.8933H21.4936H21.479H21.4572ZM23.6299 46.8933H23.6153H23.6518H23.6299ZM21.3915 46.8933H21.428H21.4061H21.3915ZM23.6955 46.8933H23.6736H23.7101H23.6955ZM23.8413 46.8861H23.8267H23.8632H23.8413ZM21.2384 46.8861H21.2749H21.2603H21.2384ZM21.1801 46.8789H21.2165H21.1947H21.1801ZM23.9142 46.8789H23.8924H23.9288H23.9142ZM24.0528 46.8717H24.0455H24.0819H24.0528ZM21.027 46.8717H21.0634H21.0561H21.027ZM20.9614 46.8645H20.9978H20.9832H20.9614ZM24.1257 46.8645H24.1111H24.1475H24.1257ZM20.8155 46.8573H20.8447H20.8374H20.8155ZM24.3371 46.8501H24.3225H24.3517H24.3371ZM20.7499 46.8501H20.7791H20.7645H20.7499ZM20.5458 46.8357H20.5604H20.5531H20.5458ZM19.0657 46.6558C8.4062 45.0006 0.240234 35.8825 0.240234 24.9005C0.240234 12.7454 10.2362 2.87891 22.5508 2.87891C34.8654 2.87891 44.8614 12.7454 44.8614 24.9005C44.8614 35.8825 36.6954 45.0006 26.0359 46.6558V31.2695H31.2344L32.226 24.9005H26.0359V20.7696C26.0359 19.0281 26.9036 17.3297 29.6742 17.3297H32.4885V11.9106C32.4885 11.9106 29.9366 11.4788 27.4941 11.4788C22.3977 11.4788 19.0657 14.5302 19.0657 20.05V24.9005H13.4006V31.2695H19.0657V46.6558Z" fill="currentColor"/>
</symbol><symbol viewBox="0 0 20 20" fill="none" id="icon-filter" xmlns="http://www.w3.org/2000/svg">
<path fill-rule="evenodd" clip-rule="evenodd" d="M13.125 3.75781C11.6206 3.75781 10.355 4.83656 10.0637 6.25781H1.875C1.70924 6.25781 1.55027 6.32366 1.43306 6.44087C1.31585 6.55808 1.25 6.71705 1.25 6.88281C1.25 7.04857 1.31585 7.20754 1.43306 7.32475C1.55027 7.44196 1.70924 7.50781 1.875 7.50781H10.0637C10.355 8.92969 11.62 10.0078 13.125 10.0078C14.63 10.0078 15.895 8.92969 16.1863 7.50781H18.125C18.2908 7.50781 18.4497 7.44196 18.5669 7.32475C18.6842 7.20754 18.75 7.04857 18.75 6.88281C18.75 6.71705 18.6842 6.55808 18.5669 6.44087C18.4497 6.32366 18.2908 6.25781 18.125 6.25781H16.1863C15.895 4.83656 14.63 3.75781 13.125 3.75781ZM13.125 5.00781C14.1681 5.00781 15 5.83969 15 6.88281C15 7.92594 14.1681 8.75781 13.125 8.75781C12.0819 8.75781 11.25 7.92594 11.25 6.88281C11.25 5.83969 12.0819 5.00781 13.125 5.00781ZM6.875 10.0078C5.37063 10.0078 4.105 11.0866 3.81375 12.5078H1.875C1.70924 12.5078 1.55027 12.5737 1.43306 12.6909C1.31585 12.8081 1.25 12.9671 1.25 13.1328C1.25 13.2986 1.31585 13.4575 1.43306 13.5748C1.55027 13.692 1.70924 13.7578 1.875 13.7578H3.81375C4.105 15.1797 5.37 16.2578 6.875 16.2578C8.38 16.2578 9.645 15.1797 9.93625 13.7578H18.125C18.2908 13.7578 18.4497 13.692 18.5669 13.5748C18.6842 13.4575 18.75 13.2986 18.75 13.1328C18.75 12.9671 18.6842 12.8081 18.5669 12.6909C18.4497 12.5737 18.2908 12.5078 18.125 12.5078H9.93625C9.645 11.0866 8.38 10.0078 6.875 10.0078ZM6.875 11.2578C7.91813 11.2578 8.75 12.0897 8.75 13.1328C8.75 14.1759 7.91813 15.0078 6.875 15.0078C5.83187 15.0078 5 14.1759 5 13.1328C5 12.0897 5.83187 11.2578 6.875 11.2578Z" fill="currentColor"/>
</symbol><symbol viewBox="0 0 47 48" fill="none" id="icon-inst" xmlns="http://www.w3.org/2000/svg">
<path fill-rule="evenodd" clip-rule="evenodd" d="M24.1016 2.47852C36.4161 2.47852 46.4122 12.3451 46.4122 24.5001C46.4122 36.6552 36.4161 46.5217 24.1016 46.5217C11.787 46.5217 1.79102 36.6552 1.79102 24.5001C1.79102 12.3451 11.787 2.47852 24.1016 2.47852ZM24.1016 10.7402C20.3175 10.7402 19.8363 10.7546 18.349 10.8266C16.8616 10.8913 15.8481 11.1288 14.9659 11.4671C14.0472 11.8197 13.2744 12.2875 12.4943 13.0575C11.7141 13.8275 11.2402 14.5904 10.8829 15.4972C10.5403 16.3751 10.2997 17.3755 10.234 18.8364C10.1684 20.3045 10.1538 20.7723 10.1538 24.5145C10.1538 28.2567 10.1684 28.7245 10.234 30.1926C10.2997 31.6607 10.5403 32.661 10.8829 33.5318C11.2402 34.4386 11.7141 35.2014 12.4943 35.9715C13.2671 36.7343 14.0472 37.2093 14.9659 37.5619C15.8554 37.9002 16.8689 38.1377 18.349 38.2024C19.8363 38.2672 20.3102 38.2888 24.1016 38.2888C27.8929 38.2888 28.3668 38.2744 29.8542 38.2024C31.3416 38.1377 32.355 37.9002 33.2373 37.5619C34.1559 37.2093 34.9288 36.7415 35.7089 35.9715C36.4818 35.2086 36.963 34.4386 37.3202 33.5318C37.6629 32.6539 37.9035 31.6535 37.9691 30.1926C38.0348 28.7245 38.0566 28.2567 38.0566 24.5145C38.0566 20.7723 38.0421 20.3045 37.9691 18.8364C37.9035 17.3683 37.6629 16.3679 37.3202 15.4972C36.963 14.5904 36.4891 13.8275 35.7089 13.0575C34.9361 12.2947 34.1559 11.8197 33.2373 11.4671C32.3477 11.1288 31.3343 10.8913 29.8542 10.8266C28.3668 10.7546 27.8856 10.7402 24.1016 10.7402ZM24.1016 13.2158C27.8273 13.2158 28.2648 13.2302 29.7376 13.295C31.0937 13.3598 31.8374 13.5829 32.3259 13.77C32.9748 14.0219 33.4414 14.3169 33.9299 14.7991C34.4184 15.2813 34.7173 15.7418 34.9725 16.3823C35.1621 16.8645 35.3881 17.5986 35.4537 18.9371C35.5194 20.3908 35.5339 20.8226 35.5339 24.5001C35.5339 28.1776 35.5194 28.6094 35.4537 30.0631C35.3954 31.4016 35.1621 32.1357 34.9725 32.6179C34.7173 33.2584 34.4184 33.7189 33.9299 34.2011C33.4414 34.6833 32.9748 34.9783 32.3259 35.2302C31.8374 35.4173 31.0937 35.6404 29.7376 35.7052C28.2648 35.77 27.8273 35.7844 24.1016 35.7844C20.3759 35.7844 19.9384 35.77 18.4656 35.7052C17.1095 35.6476 16.3658 35.4173 15.8773 35.2302C15.2284 34.9783 14.7618 34.6833 14.2733 34.2011C13.7848 33.7189 13.4858 33.2584 13.2307 32.6179C13.0411 32.1357 12.8151 31.4016 12.7494 30.0631C12.6838 28.6094 12.6692 28.1776 12.6692 24.5001C12.6692 20.8226 12.6838 20.3908 12.7494 18.9371C12.8151 17.5986 13.0411 16.8645 13.2307 16.3823C13.4858 15.7418 13.7848 15.2813 14.2733 14.7991C14.7618 14.3169 15.2284 14.0219 15.8773 13.77C16.3658 13.5829 17.1095 13.3598 18.4656 13.295C19.9384 13.2302 20.3759 13.2158 24.1016 13.2158ZM24.1016 17.433C20.1498 17.433 16.9418 20.5995 16.9418 24.5001C16.9418 28.4007 20.1498 31.5672 24.1016 31.5672C28.0533 31.5672 31.2614 28.4007 31.2614 24.5001C31.2614 20.5995 28.0533 17.433 24.1016 17.433ZM24.1016 29.0843C21.5351 29.0843 19.4572 27.0333 19.4572 24.5001C19.4572 21.9669 21.5351 19.9159 24.1016 19.9159C26.668 19.9159 28.746 21.9669 28.746 24.5001C28.746 27.0333 26.668 29.0843 24.1016 29.0843ZM33.2154 17.1524C33.2154 18.0663 32.4644 18.8004 31.5384 18.8004C30.6125 18.8004 29.8688 18.0591 29.8688 17.1524C29.8688 16.2384 30.6198 15.4972 31.5384 15.4972C32.4717 15.5044 33.2154 16.2384 33.2154 17.1524Z" fill="currentColor"/>
</symbol><symbol viewBox="0 0 48 48" fill="none" id="icon-p" xmlns="http://www.w3.org/2000/svg">
<path d="M24.2071 2.47656C11.8852 2.47656 1.89648 12.3359 1.89648 24.4982C1.89648 33.8249 7.78035 41.806 16.0776 45.0085C15.8807 43.2669 15.7057 40.5897 16.1578 38.6826C16.5661 36.9627 18.7752 27.7366 18.7752 27.7366C18.7752 27.7366 18.1045 26.4196 18.1045 24.4694C18.1045 21.4108 19.9053 19.1223 22.1437 19.1223C24.0467 19.1223 24.9653 20.5328 24.9653 22.224C24.9653 24.1167 23.7477 26.9378 23.1207 29.5574C22.5957 31.7523 24.2362 33.5371 26.4235 33.5371C30.3899 33.5371 33.4375 29.4134 33.4375 23.4546C33.4375 18.1795 29.6024 14.4949 24.1196 14.4949C17.7691 14.4949 14.0434 19.1943 14.0434 24.052C14.0434 25.9447 14.7797 27.9741 15.7057 29.0752C15.888 29.2911 15.9171 29.4854 15.8588 29.7085C15.6911 30.4066 15.312 31.8963 15.2391 32.2057C15.1443 32.6087 14.9183 32.6951 14.4954 32.5008C11.7102 31.2198 9.96766 27.1969 9.96766 23.9728C9.96766 17.0281 15.0787 10.6447 24.7101 10.6447C32.4532 10.6447 38.461 16.0853 38.461 23.3611C38.461 30.9535 33.6125 37.0562 26.8829 37.0562C24.6226 37.0562 22.4937 35.8976 21.7719 34.5302C21.7719 34.5302 20.6563 38.733 20.3793 39.7621C19.8762 41.6764 18.5128 44.0729 17.6087 45.5338C19.6866 46.1743 21.9104 46.5197 24.2071 46.5197C36.5289 46.5197 46.5176 36.6604 46.5176 24.4982C46.5176 12.3359 36.5289 2.47656 24.2071 2.47656Z" fill="currentColor"/>
</symbol><symbol viewBox="0 0 40 40" fill="none" id="icon-profile" xmlns="http://www.w3.org/2000/svg">
              <circle cx="20" cy="20" r="19.5" fill="currentColor" stroke="currentColor"/>
              <path d="M26.0564 25.8683H26.0576C26.5942 25.8695 27.1156 25.6904 27.5383 25.3598C27.9609 25.0291 28.2602 24.5661 28.3881 24.045L28.3883 24.0442L30.4822 15.5734C30.522 15.4125 30.5246 15.2448 30.4898 15.0828C30.4551 14.9208 30.3839 14.7689 30.2817 14.6385C30.1795 14.5081 30.0489 14.4028 29.8999 14.3304C29.7509 14.258 29.5874 14.2205 29.4217 14.2207L29.421 14.2207L16.441 14.2207V14.3061H29.4232H29.4237C29.5761 14.3062 29.7266 14.341 29.8636 14.4079C30.0007 14.4747 30.1207 14.5719 30.2147 14.6919C30.3087 14.812 30.3741 14.9519 30.4061 15.101C30.4381 15.2501 30.4357 15.4045 30.3992 15.5525L30.3991 15.5528L28.3057 24.0234L26.0564 25.8683ZM26.0564 25.8683H13.9575H13.9575M26.0564 25.8683H13.9575M13.9575 25.8683C13.9477 25.8683 13.9382 25.8649 13.9306 25.8587C13.923 25.8526 13.9177 25.844 13.9157 25.8344L10.8434 11.3044L10.7595 10.9079M13.9575 25.8683L10.7595 10.9079M10.7595 10.9079H10.3542M10.7595 10.9079H10.3542M10.3542 10.9079H5.64453V10.8225L10.7936 10.8225C10.7936 10.8225 10.7936 10.8225 10.7936 10.8225C10.8034 10.8225 10.8129 10.8259 10.8204 10.832C10.828 10.8382 10.8333 10.8468 10.8353 10.8563C10.8353 10.8563 10.8353 10.8563 10.8353 10.8564L13.9082 25.3864L13.9921 25.7829M10.3542 10.9079L13.9921 25.7829M13.9921 25.7829H14.3974M13.9921 25.7829H14.3974M14.3974 25.7829H26.0559M14.3974 25.7829H26.0559M26.0559 25.7829C26.5737 25.7841 27.0769 25.6113 27.4848 25.2924C27.8927 24.9735 28.1817 24.5268 28.3055 24.0239L26.0559 25.7829ZM23.8487 31.3416C24.1382 31.5349 24.4786 31.638 24.8268 31.638L23.8487 31.3416ZM23.8487 31.3416C23.559 31.1481 23.3331 30.8732 23.1997 30.5514M23.8487 31.3416L23.1997 30.5514M23.1997 30.5514C23.0663 30.2296 23.0313 29.8755 23.0992 29.5338M23.1997 30.5514L23.0992 29.5338M23.0992 29.5338C23.167 29.1921 23.3347 28.8782 23.581 28.6319M23.0992 29.5338L23.581 28.6319M23.581 28.6319C23.8273 28.3855 24.1411 28.2177 24.4827 28.1497M23.581 28.6319L24.4827 28.1497M24.4827 28.1497C24.8244 28.0817 25.1785 28.1166 25.5003 28.2499M24.4827 28.1497L25.5003 28.2499M25.5003 28.2499C25.8222 28.3832 26.0972 28.6089 26.2908 28.8986M25.5003 28.2499L26.2908 28.8986M26.2908 28.8986C26.4842 29.1881 26.5874 29.5284 26.5875 29.8766M26.2908 28.8986L26.5875 29.8766M26.5875 29.8766C26.5869 30.3434 26.4013 30.791 26.0712 31.1212C25.7413 31.4513 25.294 31.6371 24.8273 31.638L26.5875 29.8766ZM17.5662 28.2782V28.2012H17.0662C16.7348 28.2012 16.4109 28.2995 16.1353 28.4836C15.8597 28.6677 15.645 28.9294 15.5181 29.2356C15.3913 29.5417 15.3581 29.8786 15.4227 30.2037C15.4873 30.5287 15.6469 30.8273 15.8812 31.0617C16.1155 31.296 16.4141 31.4557 16.7391 31.5204C17.0641 31.5851 17.401 31.5519 17.7072 31.4252C18.0134 31.2984 18.2752 31.0837 18.4593 30.8082C18.6435 30.5326 18.7419 30.2087 18.7419 29.8773V29.8766C18.7414 29.4325 18.5648 29.0067 18.2507 28.6927C18.0576 28.4995 17.8222 28.3584 17.5662 28.2782ZM25.3275 28.2785V28.2017L24.828 28.2012C24.4965 28.2009 24.1724 28.2989 23.8967 28.4828C23.6209 28.6668 23.4059 28.9283 23.2788 29.2345C23.1517 29.5406 23.1183 29.8776 23.1827 30.2027C23.2472 30.5279 23.4066 30.8266 23.6409 31.0611C23.8751 31.2956 24.1737 31.4554 24.4987 31.5203C24.8238 31.5851 25.1608 31.552 25.4671 31.4253C25.7734 31.2986 26.0352 31.0839 26.2195 30.8083C26.4037 30.5328 26.5021 30.2088 26.5022 29.8773V29.8766C26.5016 29.4328 26.3252 29.0072 26.0115 28.6932C25.8185 28.5001 25.5833 28.3588 25.3275 28.2785ZM17.0657 31.638C16.7176 31.6378 16.3773 31.5346 16.0878 31.3412C15.7982 31.1476 15.5725 30.8726 15.4392 30.5508C15.3059 30.229 15.2711 29.8749 15.339 29.5333C15.407 29.1917 15.5748 28.8779 15.8211 28.6316C16.0674 28.3853 16.3812 28.2176 16.7228 28.1497C17.0644 28.0817 17.4185 28.1167 17.7403 28.25C18.0621 28.3833 18.3371 28.609 18.5306 28.8987C18.724 29.1882 18.8272 29.5285 18.8273 29.8766C18.8267 30.3436 18.6409 30.7913 18.3107 31.1215C17.9805 31.4517 17.5327 31.6374 17.0657 31.638Z" fill="currentColor" stroke="currentColor"/>
            </symbol><symbol viewBox="0 0 20 18" id="icon-star" xmlns="http://www.w3.org/2000/svg">
<path d="M5.11624 17.8204C4.48876 18.2062 4.12273 17.949 4.29267 17.2547L5.70451 11.3917L1.0899 7.48304C0.540858 7.02017 0.671583 6.58301 1.40364 6.53159L7.45623 6.05586L9.79621 0.501441C10.0577 -0.167147 10.5152 -0.167147 10.7897 0.501441L13.1428 6.05586L19.1823 6.53159C19.9143 6.59587 20.0581 7.00731 19.496 7.48304L14.8814 11.3917L16.2933 17.2547C16.4632 17.949 16.1102 18.2062 15.4697 17.8204L10.293 14.6961L5.11624 17.8204Z" fill="currentColor"/>
</symbol><symbol viewBox="0 0 47 47" fill="none" id="icon-tt" xmlns="http://www.w3.org/2000/svg">
<path d="M22.3106 2C9.98747 2 0 11.8581 0 24.0216C0 36.1851 9.98747 46.0432 22.3106 46.0432C34.6337 46.0432 44.6211 36.1851 44.6211 24.0216C44.6211 11.8581 34.6337 2 22.3106 2ZM33.6053 21.9915C31.2348 21.9915 28.934 21.2345 27.1562 19.9442L27.1387 28.6754C27.1387 33.0711 23.522 36.6238 19.0773 36.6238C14.6326 36.6238 11.0246 33.0539 11.0246 28.6668C11.0246 24.2711 14.6413 20.7184 19.086 20.7184C19.4433 20.7184 19.8006 20.7442 20.1492 20.7872V25.0711C18.1361 24.4861 16.0183 25.6216 15.4257 27.6087C14.833 29.5958 15.9834 31.6861 17.9966 32.2711C20.0098 32.856 22.1276 31.7205 22.7202 29.7334C22.8248 29.3894 22.8771 29.0281 22.8771 28.6668V11.4022H27.3479C27.3479 14.8087 30.1454 17.5786 33.6053 17.5786V21.9915Z" fill="currentColor"/>
</symbol><symbol viewBox="0 0 47 49" fill="none" id="icon-tw" xmlns="http://www.w3.org/2000/svg">
<path fill-rule="evenodd" clip-rule="evenodd" d="M22.7578 3.47656C35.0724 3.47656 45.0684 13.3431 45.0684 25.4982C45.0684 37.6532 35.0724 47.5197 22.7578 47.5197C10.4433 47.5197 0.447266 37.6532 0.447266 25.4982C0.447266 13.3431 10.4433 3.47656 22.7578 3.47656ZM18.828 37.2142C28.7 37.2142 34.0954 29.1396 34.0954 22.1445C34.0954 21.9142 34.0954 21.684 34.0808 21.4609C35.1234 20.7124 36.0421 19.7769 36.7639 18.7118C35.8088 19.1292 34.7735 19.417 33.6798 19.5466C34.7953 18.8845 35.6411 17.8554 36.0421 16.6104C35.0068 17.2149 33.8621 17.6539 32.6372 17.8985C31.6602 16.8694 30.2676 16.2289 28.7219 16.2289C25.7617 16.2289 23.3557 18.6038 23.3557 21.5256C23.3557 21.943 23.3995 22.346 23.5015 22.7347C19.0394 22.5116 15.0877 20.403 12.441 17.2005C11.9817 17.9777 11.7192 18.8917 11.7192 19.856C11.7192 21.6912 12.667 23.3176 14.1107 24.2603C13.2285 24.2387 12.4046 23.9941 11.6828 23.5982V23.663C11.6828 26.2322 13.5274 28.3624 15.9918 28.859C15.547 28.9813 15.0658 29.0461 14.5773 29.0461C14.2346 29.0461 13.8992 29.0101 13.5638 28.9453C14.2419 31.0539 16.2251 32.5796 18.5728 32.6228C16.7354 34.0405 14.4242 34.8825 11.9088 34.8825C11.4713 34.8825 11.0484 34.8609 10.6256 34.8034C12.9733 36.329 15.8022 37.2142 18.828 37.2142Z" fill="currentColor"/>
</symbol><symbol viewBox="0 0 46 48" fill="none" id="icon-yt" xmlns="http://www.w3.org/2000/svg">
<path fill-rule="evenodd" clip-rule="evenodd" d="M22.6543 2.47852C34.9689 2.47852 44.9649 12.3451 44.9649 24.5001C44.9649 36.6552 34.9689 46.5217 22.6543 46.5217C10.3398 46.5217 0.34375 36.6552 0.34375 24.5001C0.34375 12.3451 10.3398 2.47852 22.6543 2.47852ZM36.0188 17.872C35.698 16.6846 34.7502 15.7562 33.5544 15.4396C31.3817 14.8639 22.6616 14.8639 22.6616 14.8639C22.6616 14.8639 13.9415 14.8639 11.7688 15.4396C10.5658 15.7562 9.62524 16.6918 9.30443 17.872C8.72115 20.0166 8.72115 24.5001 8.72115 24.5001C8.72115 24.5001 8.72115 28.9764 9.30443 31.1282C9.62524 32.3156 10.5731 33.244 11.7688 33.5606C13.9415 34.1364 22.6616 34.1364 22.6616 34.1364C22.6616 34.1364 31.3817 34.1364 33.5544 33.5606C34.7574 33.244 35.698 32.3084 36.0188 31.1282C36.6021 28.9836 36.6021 24.5001 36.6021 24.5001C36.6021 24.5001 36.5948 20.0238 36.0188 17.872ZM19.8619 28.631V20.3693L27.1091 24.5001L19.8619 28.631Z" fill="currentColor"/>
</symbol></svg>